<svg id="Capa_1" data-name="Capa 1" xmlns="http://www.w3.org/2000/svg" viewBox="0 0 988.16 900.96"><defs><style>.cls-1{fill:#2b2e21;}.cls-2{fill:#59a46d;}.cls-3{fill:#9ebb9f;}</style></defs><polygon class="cls-1" points="493.89 96.06 939.89 391.06 763.39 856.56 218.39 860.56 61.39 389.56 493.89 96.06"/><path class="cls-2" d="M959.11,89.94h1.42a25.76,25.76,0,0,0,2.86,2.46c6.73,4.39,13.51,8.73,20.27,13.08l70,45,66.11,42.61q47,30.27,94.09,60.48a4.92,4.92,0,0,1,2.63,4.76c-.13,11.54,0,23.09-.11,34.64a4.66,4.66,0,0,0,2.21,4.3c11.58,8.64,23.08,17.39,34.61,26.09l86.73,65.45,111.34,84a17.6,17.6,0,0,0,3,1.52v.61a24.39,24.39,0,0,0-2,3.56q-25.62,68.44-51.15,136.79-28.68,76.71-57.4,153.42l-38.43,102.71L1267.64,972.2c-2.16,5.76-4.34,11.5-6.51,17.26-.78,0-1.36.11-1.93.12-14.81.13-29.67.36-44.43.36q-43.41.19-86.82.27h-57.08c-5.25,0-10.5.07-15.75.1q-39.75,0-79.51-.07a5.67,5.67,0,0,0-1.79.66h-28a23.8,23.8,0,0,0-3.92-.67q-37-.06-73.92,0c-1.16,0-2.32.09-3.48.14s-2.33-.13-3.49-.13L779.79,990q-43.59-.18-87.15-.39H658.28c-2.91-7.77-5.78-15.38-8.62-23Q624.52,899.34,599.4,832.1q-17.92-47.91-35.89-95.84Q538.79,670.2,514.1,604.08L469.93,486c-1.21-3.23-2.54-6.41-3.82-9.62v-2.1l46.22-34.93,69.76-52.62q59-44.49,118.08-89a5.91,5.91,0,0,0,2.75-5.44c-.13-12.24-.06-24.49-.06-36.86,1.15-.79,2.28-1.61,3.44-2.36q18.06-11.62,36.17-23.24l65.79-42.42L892.94,133q26.31-16.92,52.58-33.91C950.11,96.13,954.53,93,959.11,89.94Zm.36,106.59c-1.23.93-2.38,1.89-3.61,2.72l-23.81,16-52.6,35.29-51.74,34.71-52.6,35.29Q747.95,338.78,720.76,357l-50.28,33.73-55,36.87L535.88,481c-2.83,1.89-2.81,1.91-1.69,5q12.75,35,25.49,70,25.23,69.36,50.45,138.71l40.5,111.44Q670,859.58,689.46,913q3.15,8.73,6.34,17.42c.44,1.22.8,2.43,2.48,2.5,2.32.1,4.64.48,7,.52,14.57.28,29.14.49,43.72.73l42.66.69,43,.7,42.67.7q21.84.36,43.71.7c6.89.1,13.77.21,20.66.15q31.29-.27,62.62-.68c15-.19,30.08-.46,45.12-.7l40.92-.69c14.92-.24,29.84-.5,44.76-.7,19.48-.26,39-.44,58.43-.73,8.74-.13,17.47-.51,26.21-.63,2.1,0,3.3-.71,3.76-2.76a14.67,14.67,0,0,1,.76-2q21-57.84,42.09-115.7l40.49-111.38,30.25-83.18q11-30.24,22-60.49,12.9-35.49,25.82-71c1.3-3.59,1.27-3.62-1.78-5.67l-34.26-23.06L1297.15,423l-52.62-35.28L1192.8,353l-53.8-36.1-51.47-34.47-53.48-35.87q-20.64-13.83-41.31-27.63-16.65-11.19-33.27-22.44Z" transform="translate(-466.11 -89.94)"/><path class="cls-1" d="M1189.59,789.24v2.42c-4.42,14-12.18,25.86-24.66,33.57-13.1,8.09-26.44,16.27-40.64,22-36.29,14.62-74.61,20.91-113.42,24.43-6.23.56-12.43,1.55-18.65,2.34H974.05c-6.85-.39-13.7-1-20.56-1.09-4.84,0-9.7.7-14.55,1.09H920.78a18.28,18.28,0,0,0-3.56-1.32c-27.5-4-55.18-7-82.45-12.25-28.85-5.52-56.16-16.22-80.6-32.78-14.28-9.68-25.52-22.28-27.39-40.73.08-1.6.25-3.21.25-4.81q0-175.11,0-350.22c0-1.6-.16-3.21-.25-4.81a44.64,44.64,0,0,1,9.12-23.25c12.16-15.89,28.87-25.68,46.69-33.38,39.07-16.9,80.48-24.18,122.6-28.1,5.22-.49,10.39-1.55,15.59-2.35h21.79c3.45.4,6.91,1.18,10.35,1.11,7.46-.14,14.9-.71,22.35-1.11h18.16a12.32,12.32,0,0,0,3,1.18c17.78,2.06,35.64,3.61,53.35,6.17,34.83,5,68.41,14.19,99.62,31.07,18.94,10.23,34.35,23.36,40.2,45.13v1.21c-.4,1.88-1.15,3.76-1.15,5.64q-.09,176.6,0,353.2C1188.44,785.48,1189.19,787.36,1189.59,789.24Zm-12.28-327V458.6l-2.17,2.63c-12.36,10.81-25.76,20-40.92,26.48-41.83,17.74-86,25.84-130.93,28.64-27.28,1.7-54.76,1-82.14.4-29.86-.67-59.28-5.66-88.34-12.33-28.26-6.49-55.16-16.65-79.29-33.12-5-3.4-9.33-7.75-14.23-11.87a23.44,23.44,0,0,0-.27,2.33q0,161.91.21,323.8a29.19,29.19,0,0,0,4.93,15.14c11.25,16.82,28.59,25.87,46.54,33.27,39.88,16.45,81.95,23.7,124.7,26.35,25.08,1.56,50.33.9,75.49.44,30.49-.56,60.48-5.62,90.17-12.25,25.76-5.75,50.23-15.17,72.49-29.34,15.7-10,24.49-23.49,24.33-44-.82-101.67-.37-203.35-.38-305C1177.5,467.52,1177.38,464.9,1177.31,462.28ZM959,507.41c24.65-2.08,49.36-3.64,73.94-6.36,35.39-3.91,69.9-11.63,102.18-27.36,14.24-6.93,27.67-14.85,37-28.3,7-10.08,7.32-22.66,0-32.67-11.9-16.28-28.87-25.6-46.91-32.9-47.3-19.14-97.12-25.66-147.66-27.52a551.25,551.25,0,0,0-136.27,11.82c-27.83,6-54.36,15.37-78.27,30.84-7.72,5-14.35,12.42-19.85,19.94-8.61,11.76-3.9,29,9.31,40.25,16.91,14.36,36.55,23.44,57.44,30.13C858.35,500.77,908.24,505.92,959,507.41Z" transform="translate(-466.11 -89.94)"/><path class="cls-1" d="M1189.59,789.24c-.4-1.88-1.15-3.76-1.15-5.64q-.09-176.6,0-353.2c0-1.88.75-3.76,1.15-5.64Z" transform="translate(-466.11 -89.94)"/><path class="cls-1" d="M726.78,786.92l-.51.19-.45-.29V427.18a.61.61,0,0,1,1-.1c.09,1.6.25,3.21.25,4.81q0,175.11,0,350.22C727,783.71,726.86,785.32,726.78,786.92Z" transform="translate(-466.11 -89.94)"/><path class="cls-1" d="M938.94,874c4.85-.39,9.71-1.13,14.55-1.09,6.86.06,13.71.7,20.56,1.09Z" transform="translate(-466.11 -89.94)"/><path class="cls-1" d="M975.27,340c-7.45.4-14.89,1-22.35,1.11-3.44.07-6.9-.71-10.35-1.11Z" transform="translate(-466.11 -89.94)"/><path class="cls-3" d="M1177.31,462.28c.07,2.62.19,5.24.19,7.86,0,101.68-.44,203.36.38,305,.16,20.51-8.63,34-24.33,44-22.26,14.17-46.73,23.59-72.49,29.34-29.69,6.63-59.68,11.69-90.17,12.25-25.16.46-50.41,1.12-75.49-.44-42.75-2.65-84.82-9.9-124.7-26.35-18-7.4-35.29-16.45-46.54-33.27a29.19,29.19,0,0,1-4.93-15.14q-.42-161.89-.21-323.8a23.44,23.44,0,0,1,.27-2.33c4.9,4.12,9.24,8.47,14.23,11.87,24.13,16.47,51,26.63,79.29,33.12,29.06,6.67,58.48,11.66,88.34,12.33,27.38.6,54.86,1.3,82.14-.4,45-2.8,89.1-10.9,130.93-28.64,15.16-6.43,28.56-15.67,40.92-26.48ZM1009.74,710.55c2.47,0,4.45.59,5.61-.13,2.15-1.35,4.93-3.23,5.37-5.33.35-1.71-2-5.44-3.71-5.85a46.94,46.94,0,0,0-15.41-1.33c-2,.19-4.73,3.79-5.09,6.15-.23,1.49,3,4.23,5.22,5.19C1004.38,710.4,1007.6,710.25,1009.74,710.55Zm-159.48,8c6.15-1.26,10.87-1.66,15.06-3.37,1.92-.78,4.28-4.66,3.75-6.23-.76-2.23-3.94-5-6.18-5.07a29.58,29.58,0,0,0-12.85,2.5c-2.25,1-4.49,4.54-4.6,7C845.36,715.22,848.83,717.16,850.26,718.58ZM820.94,723c-.77-4.78-4.66-8.18-8.28-7.22a84.92,84.92,0,0,0-13.07,4.54c-4,1.78-5,6.77-2.07,9.54,5.34,5,10.17-.32,15-1.52C815.6,727.61,818.16,724.87,820.94,723Zm280.89-8.23c-1.73,1.91-4.66,3.7-4.89,5.79s1.67,5.46,3.61,6.57a35.89,35.89,0,0,0,12.43,4.4c2.12.32,5.79-1.47,6.66-3.31s-.21-6.21-1.77-7.09C1113.21,718.53,1107.89,717.08,1101.83,714.79Zm-195.35-4.21c2-.28,5.32,0,7.82-1.32s4-4.17,5.88-6.35c-2.11-1.84-4.08-5-6.37-5.23a33.28,33.28,0,0,0-13.6,1.34c-2.09.68-4.31,4.26-4.41,6.61-.06,1.58,3.36,3.54,5.52,4.84C902.35,711.1,904.06,710.58,906.48,710.58Zm258.93,37.63c-.18-.46-.32-2.21-1.25-2.9-4.31-3.2-8.63-6.52-13.4-8.87-1.44-.7-5.83,1.16-6.23,2.6-.67,2.34-.06,6.14,1.57,7.83,3,3.09,7,5.32,10.78,7.49C1161.28,756.87,1165.5,754.14,1165.41,748.21ZM1063.63,718l1.29,1.15c2-2.12,5.11-3.91,5.89-6.42,1.26-4-1.83-6.14-5.65-6.87-3.35-.63-6.73-1.15-10.06-1.89-4.12-.91-6.89.92-7.88,4.61-1.09,4,1.45,6.52,5.16,7.44S1059.87,717.32,1063.63,718ZM756.8,756.75c5.6-4.52,10.91-8.49,15.71-13,.76-.71-.18-4.47-1.43-5.73s-4.45-2.21-5.79-1.47a78.06,78.06,0,0,0-13.2,9.18c-1.15,1-1.29,4.19-.65,5.91S754.3,754.48,756.8,756.75ZM958.41,708v0c1.61,0,3.22,0,4.83,0,4-.07,6.83-2.06,6.8-6.06s-2.85-6-6.86-6c-3.62,0-7.44-.69-10.8.26-2.35.66-4.07,3.57-6.06,5.48,2,2.11,3.76,4.67,6.16,6.17C953.92,708.77,956.4,708,958.41,708Z" transform="translate(-466.11 -89.94)"/><path class="cls-3" d="M959,507.41c-50.72-1.49-100.61-6.64-149.05-22.13-20.89-6.69-40.53-15.77-57.44-30.13-13.21-11.21-17.92-28.49-9.31-40.25C748.66,407.38,755.29,400,763,395c23.91-15.47,50.44-24.88,78.27-30.84A551.25,551.25,0,0,1,977.55,352.3c50.54,1.86,100.36,8.38,147.66,27.52,18,7.3,35,16.62,46.91,32.9,7.31,10,7,22.59,0,32.67-9.36,13.45-22.79,21.37-37,28.3-32.28,15.73-66.79,23.45-102.18,27.36C1008.32,503.77,983.61,505.33,959,507.41Z" transform="translate(-466.11 -89.94)"/><path class="cls-1" d="M1177.31,462.28l-2.17-1,2.17-2.63Z" transform="translate(-466.11 -89.94)"/><path class="cls-1" d="M1009.74,710.55c-2.14-.3-5.36-.15-8-1.3-2.22-1-5.45-3.7-5.22-5.19.36-2.36,3.08-6,5.09-6.15a46.94,46.94,0,0,1,15.41,1.33c1.72.41,4.06,4.14,3.71,5.85-.44,2.1-3.22,4-5.37,5.33C1014.19,711.14,1012.21,710.55,1009.74,710.55Z" transform="translate(-466.11 -89.94)"/><path class="cls-1" d="M850.26,718.58c-1.43-1.42-4.9-3.36-4.82-5.14.11-2.49,2.35-6,4.6-7a29.58,29.58,0,0,1,12.85-2.5c2.24.09,5.42,2.84,6.18,5.07.53,1.57-1.83,5.45-3.75,6.23C861.13,716.92,856.41,717.32,850.26,718.58Z" transform="translate(-466.11 -89.94)"/><path class="cls-1" d="M820.94,723c-2.78,1.85-5.34,4.59-8.39,5.34-4.86,1.2-9.69,6.56-15,1.52-2.94-2.77-1.88-7.76,2.07-9.54a84.92,84.92,0,0,1,13.07-4.54C816.28,714.84,820.17,718.24,820.94,723Z" transform="translate(-466.11 -89.94)"/><path class="cls-1" d="M1101.83,714.79c6.06,2.29,11.38,3.74,16,6.36,1.56.88,2.61,5.3,1.77,7.09s-4.54,3.63-6.66,3.31a35.89,35.89,0,0,1-12.43-4.4c-1.94-1.11-3.85-4.46-3.61-6.57S1100.1,716.7,1101.83,714.79Z" transform="translate(-466.11 -89.94)"/><path class="cls-1" d="M906.48,710.58c-2.42,0-4.13.52-5.16-.11-2.16-1.3-5.58-3.26-5.52-4.84.1-2.35,2.32-5.93,4.41-6.61a33.28,33.28,0,0,1,13.6-1.34c2.29.26,4.26,3.39,6.37,5.23-1.93,2.18-3.47,5.08-5.88,6.35S908.47,710.3,906.48,710.58Z" transform="translate(-466.11 -89.94)"/><path class="cls-1" d="M1165.41,748.21c.09,5.93-4.13,8.66-8.53,6.15-3.81-2.17-7.8-4.4-10.78-7.49-1.63-1.69-2.24-5.49-1.57-7.83.4-1.44,4.79-3.3,6.23-2.6,4.77,2.35,9.09,5.67,13.4,8.87C1165.09,746,1165.23,747.75,1165.41,748.21Z" transform="translate(-466.11 -89.94)"/><path class="cls-1" d="M1063.63,718c-3.76-.64-7.57-1.06-11.25-2s-6.25-3.42-5.16-7.44c1-3.69,3.76-5.52,7.88-4.61,3.33.74,6.71,1.26,10.06,1.89,3.82.73,6.91,2.84,5.65,6.87-.78,2.51-3.85,4.3-5.89,6.42Z" transform="translate(-466.11 -89.94)"/><path class="cls-1" d="M756.8,756.75c-2.5-2.27-4.71-3.4-5.36-5.11s-.5-4.93.65-5.91a78.06,78.06,0,0,1,13.2-9.18c1.34-.74,4.54.21,5.79,1.47s2.19,5,1.43,5.73C767.71,748.26,762.4,752.23,756.8,756.75Z" transform="translate(-466.11 -89.94)"/><path class="cls-1" d="M958.41,708c-2,0-4.49.74-5.93-.16-2.4-1.5-4.15-4.06-6.16-6.17,2-1.91,3.71-4.82,6.06-5.48,3.36-1,7.18-.29,10.8-.26,4,0,6.83,2.06,6.86,6s-2.79,6-6.8,6.06c-1.61,0-3.22,0-4.83,0Z" transform="translate(-466.11 -89.94)"/></svg>