<svg id="Capa_1" data-name="Capa 1" xmlns="http://www.w3.org/2000/svg" viewBox="0 0 988.16 900.96"><defs><style>.cls-1{fill:#2b2e21;}.cls-2{fill:#59a46d;}.cls-3{fill:#9ebb9f;}</style></defs><polygon class="cls-1" points="493.89 96.06 939.89 391.06 763.39 856.56 218.39 860.56 61.39 389.56 493.89 96.06"/><path class="cls-2" d="M959.11,89.94h1.42a25.76,25.76,0,0,0,2.86,2.46c6.73,4.39,13.51,8.73,20.27,13.08l70,45,66.11,42.61q47,30.27,94.09,60.48a4.92,4.92,0,0,1,2.63,4.76c-.13,11.54,0,23.09-.11,34.64a4.66,4.66,0,0,0,2.21,4.3c11.58,8.64,23.08,17.39,34.61,26.09l86.73,65.45,111.34,84a17.6,17.6,0,0,0,3,1.52v.61a24.39,24.39,0,0,0-2,3.56q-25.62,68.44-51.15,136.79-28.68,76.71-57.4,153.42l-38.43,102.71L1267.64,972.2c-2.16,5.76-4.34,11.5-6.51,17.26-.78,0-1.36.11-1.93.12-14.81.13-29.67.36-44.43.36q-43.41.19-86.82.27h-57.08c-5.25,0-10.5.07-15.75.1q-39.75,0-79.51-.07a5.67,5.67,0,0,0-1.79.66h-28a23.8,23.8,0,0,0-3.92-.67q-37-.06-73.92,0c-1.16,0-2.32.09-3.48.14s-2.33-.13-3.49-.13L779.79,990q-43.59-.18-87.15-.39H658.28c-2.91-7.77-5.78-15.38-8.62-23Q624.52,899.34,599.4,832.1q-17.92-47.91-35.89-95.84Q538.79,670.2,514.1,604.08L469.93,486c-1.21-3.23-2.54-6.41-3.82-9.62v-2.1l46.22-34.93,69.76-52.62q59-44.49,118.08-89a5.91,5.91,0,0,0,2.75-5.44c-.13-12.24-.06-24.49-.06-36.86,1.15-.79,2.28-1.61,3.44-2.36q18.06-11.62,36.17-23.24l65.79-42.42L892.94,133q26.31-16.92,52.58-33.91C950.11,96.13,954.53,93,959.11,89.94Zm.36,106.59c-1.23.93-2.38,1.89-3.61,2.72l-23.81,16-52.6,35.29-51.74,34.71-52.6,35.29Q747.95,338.78,720.76,357l-50.28,33.73-55,36.87L535.88,481c-2.83,1.89-2.81,1.91-1.69,5q12.75,35,25.49,70,25.23,69.36,50.45,138.71l40.5,111.44Q670,859.58,689.46,913q3.15,8.73,6.34,17.42c.44,1.22.8,2.43,2.48,2.5,2.32.1,4.64.48,7,.52,14.57.28,29.14.49,43.72.73l42.66.69,43,.7,42.67.7q21.84.36,43.71.7c6.89.1,13.77.21,20.66.15q31.29-.27,62.62-.68c15-.19,30.08-.46,45.12-.7l40.92-.69c14.92-.24,29.84-.5,44.76-.7,19.48-.26,39-.44,58.43-.73,8.74-.13,17.47-.51,26.21-.63,2.1,0,3.3-.71,3.76-2.76a14.67,14.67,0,0,1,.76-2q21-57.84,42.09-115.7l40.49-111.38,30.25-83.18q11-30.24,22-60.49,12.9-35.49,25.82-71c1.3-3.59,1.27-3.62-1.78-5.67l-34.26-23.06L1297.15,423l-52.62-35.28L1192.8,353l-53.8-36.1-51.47-34.47-53.48-35.87q-20.64-13.83-41.31-27.63-16.65-11.19-33.27-22.44Z" transform="translate(-466.11 -89.94)"/><path class="cls-1" d="M971.53,812.16h-39a7,7,0,0,0-2-1c-8-1.35-16.11-2.33-24.06-4-84.1-17.52-152.43-86.46-169-170.36-1.23-6.22-2.62-12.42-3.94-18.63v-53c1.66-7.83,3.27-15.67,5-23.49,18.41-83.39,89-151.37,172.83-166.54,7.05-1.28,14.1-2.63,21.15-4h39a5.58,5.58,0,0,0,1.52.9c14.63,2.76,29.83,3.8,43.81,8.48,86.83,29.09,138.72,88.86,154.75,179.3,1.08,6.08,1.94,12.2,2.9,18.3v5l-.81,3.92v9.16l.81,3.92v6a20.9,20.9,0,0,0-1.07,3c-3,15.44-4.24,31.43-9.14,46.23-28.2,85.22-86.73,136.6-175,153.89C983.44,810.4,977.47,811.2,971.53,812.16Zm191-239.1a39.83,39.83,0,0,0,0-5.08c-.94-6.4-1.7-12.85-3-19.18-10.1-47.38-33.58-86.92-70.52-118.19a205.31,205.31,0,0,0-104.14-47c-7-1-14.27-3.72-21.33.56-1,.58-2.94-.1-4.24-.67-7.33-3.24-9.31-3-14.57,3.18a31.5,31.5,0,0,0-5.47,8.28c-4.42,10.92-9.46,21.74-12.46,33.07-11.67,44.1-15.35,89.32-17,134.7-.69,19.46-.17,39-.06,58.46,0,4.44.66,8.87,1.07,13.94h6.14c23.82,0,47.64.12,71.46-.09,3.59,0,7.16-1.64,10.76-2.38a12,12,0,0,1,3.87-.11c3.2.41,6.42,1.57,9.56,1.38,9.61-.61,19.18-1.78,28.77-2.61,25.87-2.26,51.48-6.12,76.48-13.25,12.92-3.68,25.89-7.2,37.32-15,7.72-5.26,10.28-11.63,8.34-18.72-5.44-3-9.9-5.18-14.13-7.78-2.29-1.41-3.47-3.65-1.74-6.4s4.2-3.13,6.91-1.76C1157,569.67,1159.37,571.21,1162.53,573.06ZM935,381.89c-6.27.85-11.67,1.41-17,2.33-41.83,7.22-78.42,25.24-109.16,54.46-38.2,36.31-59.54,81.1-65.08,133.44-.24,2.21-.45,5.2.75,6.64,2.67,3.2,1.83,5.7-.07,8.53-2.69,4-1.88,7.82,1.51,10.71,3.9,3.32,8,6.71,12.52,8.94a182.5,182.5,0,0,0,52.24,16.19c22.63,3.56,45.33,6.7,68,9.73,7,.93,14.13.89,21.89,1.34-.33-4.64-.88-8.57-.86-12.5.14-22.47-.49-45,.87-67.41q2.7-44.49,8.11-88.81a259.75,259.75,0,0,1,17.91-67.81C928.78,392.53,931.83,387.78,935,381.89Zm25.95,420.16c2.7-5.29,4.85-9.7,7.2-14,1.49-2.72,3.9-3.73,6.73-2.12s3.31,4,1.81,6.84-3,5.33-4.68,8.23c103.14-7.12,185.46-95.78,190.27-189.8-48.83,25.58-102.74,28-154.39,33.33-2.8,3-4.79,6.81-6.68,6.76-2.41,0-4.74-3.23-8.07-5.8H910.89c.88,10.6,1.7,20.69,2.56,30.77,2.18,25.37,5.56,50.56,12.36,75.14,3.72,13.43,6.9,27.08,14.39,39.21C945.46,799.12,951.67,805,960.93,802.05ZM743.54,609.46c6.17,58,30.23,105.42,73.59,142.62C850.74,780.92,889.94,797,934,801.24c-4.26-9.77-9-18.78-12.2-28.28-11.51-33.74-15.66-68.91-19.18-104.15-.66-6.61-.73-13.28-1.3-19.91-.17-2.12,0-4.6-3.54-4.88-14.41-1.13-28.88-1.95-43.17-4-19.54-2.76-39.1-5.82-58.36-10C778.11,626,760.07,621.1,743.54,609.46Z" transform="translate(-466.11 -89.94)"/><path class="cls-1" d="M1173.7,596.27v-9.16a7.4,7.4,0,0,1,.81.08v9Z" transform="translate(-466.11 -89.94)"/><path class="cls-1" d="M1174.51,587.19a7.4,7.4,0,0,0-.81-.08l.81-3.92Z" transform="translate(-466.11 -89.94)"/><path class="cls-1" d="M1173.7,596.27l.81-.08v4Z" transform="translate(-466.11 -89.94)"/><path class="cls-3" d="M1162.53,573.06c-3.16-1.85-5.52-3.39-8-4.66-2.71-1.37-5.17-1-6.91,1.76s-.55,5,1.74,6.4c4.23,2.6,8.69,4.82,14.13,7.78,1.94,7.09-.62,13.46-8.34,18.72-11.43,7.79-24.4,11.31-37.32,15-25,7.13-50.61,11-76.48,13.25-9.59.83-19.16,2-28.77,2.61-3.14.19-6.36-1-9.56-1.38a12,12,0,0,0-3.87.11c-3.6.74-7.17,2.34-10.76,2.38-23.82.21-47.64.1-71.46.09h-6.14c-.41-5.07-1-9.5-1.07-13.94-.11-19.49-.63-39,.06-58.46,1.62-45.38,5.3-90.6,17-134.7,3-11.33,8-22.15,12.46-33.07a31.5,31.5,0,0,1,5.47-8.28c5.26-6.15,7.24-6.42,14.57-3.18,1.3.57,3.29,1.25,4.24.67,7.06-4.28,14.34-1.61,21.33-.56a205.31,205.31,0,0,1,104.14,47c36.94,31.27,60.42,70.81,70.52,118.19,1.34,6.33,2.1,12.78,3,19.18A39.83,39.83,0,0,1,1162.53,573.06ZM1076,546.27c-1.07,1.06-4,2.66-4,4.29,0,1.89,2.07,4.61,4,5.53a17.88,17.88,0,0,0,9.12,1.75c2.14-.19,4.09-2.42,6.12-3.74-1.4-1.94-2.4-4.74-4.3-5.63C1084.08,547.12,1080.57,547.09,1076,546.27ZM991.48,457c1.24-1.64,3.77-3.47,3.78-5.31a28.7,28.7,0,0,0-2.34-11.59c-.7-1.53-4.54-2.74-6.44-2.22-1.29.34-2.77,4.21-2.31,6C985.29,448.32,983.79,454.33,991.48,457Zm3,64.45c.32,2.61.72,5.22,1,7.84.27,3.13,1.83,5.07,5,4.83s5-2.45,4.89-5.7c-.06-2.46-.71-4.9-.72-7.36,0-3.7-1.51-6.5-5.26-6.36S994.15,517.72,994.49,521.44Zm-30,16.64v0c-1.33,0-2.66,0-4,0-3-.11-5.42.76-5.83,4.07-.43,3.55,1.93,5.31,5,5.67,3.28.39,6.83.76,9.88-.14,2-.58,3.19-3.49,4.75-5.36-1.77-1.4-3.38-3.09-5.35-4.08C967.73,537.59,966,538.08,964.49,538.08ZM1043,552.27c1.55,0,2,0,2.54,0,3.41.24,6.65-.15,6.83-4.42.18-4.07-2.94-5.13-6.28-5.52-2.61-.3-5.39-1.07-7.82-.49-2,.47-4.71,2.37-5.09,4.08-.31,1.46,1.88,4.2,3.64,5.18C1038.85,552.23,1041.6,552,1043,552.27Zm71.71,1.67c-1.18,1.14-3.68,2.45-4,4.13s1,4.8,2.56,5.6a27.28,27.28,0,0,0,10.43,3c1.73.14,4.67-1.75,5.18-3.34s-.83-4.89-2.3-5.66C1123.3,556,1119.41,555.33,1114.72,553.94ZM925.83,538.29c-1.83,0-4-.65-5.38.15-2,1.17-4.22,3.22-4.59,5.22-.22,1.18,2.75,3.43,4.68,4.36,1.47.72,3.58.13,5.4.11,4,0,9.06.4,9-5.13S929.84,538,925.83,538.29Zm71.65,64.38h0v4.47c0,3.15,1.47,5,4.73,5.14s4.87-1.9,5.12-4.83a61.85,61.85,0,0,0,.05-9.43c-.21-2.94-1.68-5-5-4.91s-4.75,2-4.82,5.09C997.46,599.69,997.48,601.18,997.48,602.67Zm5-112.45-.9-1.07c-.39-2.95-.2-6.15-1.36-8.76-.88-2-3.48-3.19-5.31-4.75-1.45,1.91-3.76,3.67-4.14,5.77a16.17,16.17,0,0,0,1,8.74c.84,2,3.41,4.7,5.1,4.63C998.8,494.69,1000.6,491.86,1002.45,490.22Zm-5.73,71.86c.13,1.2.53,3.49.63,5.79.14,3.35,1.54,5.58,5.08,5.28,3.71-.32,4.81-3,4.68-6.39-.08-2-.51-4-.43-5.92.17-3.79-.87-7.08-5-7.06S996.59,557.33,996.72,562.08Zm-10.2-148.34c-1.94-4.6-3.26-8.71-5.42-12.31-.72-1.19-4-2-5.4-1.31s-3.06,3.49-2.76,5a33.89,33.89,0,0,0,4,10.57c.8,1.38,3.64,2.49,5.28,2.19S985,415.35,986.52,413.74Z" transform="translate(-466.11 -89.94)"/><path class="cls-3" d="M935,381.89c-3.15,5.89-6.2,10.64-8.33,15.78a259.75,259.75,0,0,0-17.91,67.81q-5.41,44.25-8.11,88.81c-1.36,22.41-.73,44.94-.87,67.41,0,3.93.53,7.86.86,12.5-7.76-.45-14.89-.41-21.89-1.34-22.71-3-45.41-6.17-68-9.73a182.5,182.5,0,0,1-52.24-16.19c-4.55-2.23-8.62-5.62-12.52-8.94-3.39-2.89-4.2-6.7-1.51-10.71,1.9-2.83,2.74-5.33.07-8.53-1.2-1.44-1-4.43-.75-6.64,5.54-52.34,26.88-97.13,65.08-133.44,30.74-29.22,67.33-47.24,109.16-54.46C923.31,383.3,928.71,382.74,935,381.89ZM803.06,561.7c4.77-1.07,8.42-1.32,11.47-2.8,1.67-.81,3.59-4.06,3.14-5.54-.5-1.67-3.5-3.54-5.46-3.59a21.36,21.36,0,0,0-9.61,2.15c-1.75.87-3.62,3.68-3.5,5.48S801.93,560.56,803.06,561.7Zm-27.45-3.09c-4.38,1.66-8.21,2.56-11.35,4.55-1.53,1-2.71,4.2-2.3,6,.31,1.32,3.59,3,5.32,2.75a25.78,25.78,0,0,0,9.76-3.39c1.59-.95,3.13-3.79,2.88-5.52S777.09,560,775.61,558.61Zm68.74-4.12c2.79-.42,5.6-.75,8.36-1.28,3.26-.62,4.82-3.14,3.67-5.84-.74-1.77-3.39-3.42-5.41-3.77-2.49-.42-5.24.47-7.85,1-3.1.6-6,1.68-5.56,5.68S841.12,554.52,844.35,554.49Zm41.91-4.24c1.28-.17,3.89.09,5.74-1,1.64-.94,3.49-3.46,3.32-5.08s-2.67-3.25-4.51-4-3.9-.08-5.89,0c-3.89.14-8.38.19-8.3,5.45C876.71,551.51,881.61,550.06,886.26,550.25Z" transform="translate(-466.11 -89.94)"/><path class="cls-3" d="M960.93,802.05c-9.26,2.94-15.47-2.93-20.73-11.44-7.49-12.13-10.67-25.78-14.39-39.21-6.8-24.58-10.18-49.77-12.36-75.14-.86-10.08-1.68-20.17-2.56-30.77h82.23c3.33,2.57,5.66,5.75,8.07,5.8,1.89.05,3.88-3.75,6.68-6.76,51.65-5.31,105.56-7.75,154.39-33.33-4.81,94-87.13,182.68-190.27,189.8,1.66-2.9,3.23-5.53,4.68-8.23s1-5.27-1.81-6.84-5.24-.6-6.73,2.12C965.78,792.35,963.63,796.76,960.93,802.05ZM992.56,684c-.46,3.5.86,6.34,4.37,6.55,1.71.11,4.61-1.84,5.14-3.46a26,26,0,0,0,1.15-10.76c-.21-1.83-2.75-4.59-4.4-4.71s-4.21,2.22-5,4.08C992.7,678.11,992.91,681.16,992.56,684Zm-14.68,79.17c1.32,1.36,2.55,3.53,4.33,4.14,1.32.46,4.39-.67,4.86-1.83a47.24,47.24,0,0,0,3.27-12.32c.16-1.39-2.12-4.06-3.64-4.37s-4.36,1.19-5.08,2.65C980,754.74,979.26,758.56,977.88,763.12Zm9.43-40.37-.94.93c1.61,1.85,2.88,4.65,4.89,5.35,3.28,1.14,5.08-1.44,5.68-4.59.52-2.76,1.66-5.62,1.29-8.26-.29-2.13-2.44-4-3.77-6-1.93,1.41-4.62,2.42-5.62,4.32C987.6,716.88,987.76,720,987.31,722.75Z" transform="translate(-466.11 -89.94)"/><path class="cls-3" d="M743.54,609.46C760.07,621.1,778.11,626,796.24,630c19.26,4.23,38.82,7.29,58.36,10,14.29,2,28.76,2.85,43.17,4,3.58.28,3.37,2.76,3.54,4.88.57,6.63.64,13.3,1.3,19.91,3.52,35.24,7.67,70.41,19.18,104.15,3.24,9.5,7.94,18.51,12.2,28.28-44-4.28-83.25-20.32-116.86-49.16C773.77,714.88,749.71,667.47,743.54,609.46Z" transform="translate(-466.11 -89.94)"/><path class="cls-1" d="M1076,546.27c4.54.82,8,.85,10.94,2.2,1.9.89,2.9,3.69,4.3,5.63-2,1.32-4,3.55-6.12,3.74a17.88,17.88,0,0,1-9.12-1.75c-1.89-.92-4-3.64-4-5.53C1072.08,548.93,1075,547.33,1076,546.27Z" transform="translate(-466.11 -89.94)"/><path class="cls-1" d="M991.48,457c-7.69-2.66-6.19-8.67-7.31-13.08-.46-1.83,1-5.7,2.31-6,1.9-.52,5.74.69,6.44,2.22a28.7,28.7,0,0,1,2.34,11.59C995.25,453.52,992.72,455.35,991.48,457Z" transform="translate(-466.11 -89.94)"/><path class="cls-1" d="M994.49,521.44c-.34-3.72,1.14-6.6,4.88-6.75s5.24,2.66,5.26,6.36c0,2.46.66,4.9.72,7.36.08,3.25-1.59,5.46-4.89,5.7s-4.75-1.7-5-4.83C995.21,526.66,994.81,524.05,994.49,521.44Z" transform="translate(-466.11 -89.94)"/><path class="cls-1" d="M964.49,538.08c1.5,0,3.24-.49,4.44.12,2,1,3.58,2.68,5.35,4.08-1.56,1.87-2.8,4.78-4.75,5.36-3,.9-6.6.53-9.88.14-3-.36-5.41-2.12-5-5.67.41-3.31,2.84-4.18,5.83-4.07,1.33.05,2.66,0,4,0Z" transform="translate(-466.11 -89.94)"/><path class="cls-1" d="M1043,552.27c-1.41-.23-4.16,0-6.18-1.17-1.76-1-3.95-3.72-3.64-5.18.38-1.71,3.08-3.61,5.09-4.08,2.43-.58,5.21.19,7.82.49,3.34.39,6.46,1.45,6.28,5.52-.18,4.27-3.42,4.66-6.83,4.42C1045.06,552.24,1044.56,552.27,1043,552.27Z" transform="translate(-466.11 -89.94)"/><path class="cls-1" d="M1114.72,553.94c4.69,1.39,8.58,2,11.9,3.76,1.47.77,2.81,4.11,2.3,5.66s-3.45,3.48-5.18,3.34a27.28,27.28,0,0,1-10.43-3c-1.52-.8-2.86-3.86-2.56-5.6S1113.54,555.08,1114.72,553.94Z" transform="translate(-466.11 -89.94)"/><path class="cls-1" d="M925.83,538.29c4-.25,9-.89,9.11,4.71s-5,5.1-9,5.13c-1.82,0-3.93.61-5.4-.11-1.93-.93-4.9-3.18-4.68-4.36.37-2,2.62-4,4.59-5.22C921.79,537.64,924,538.29,925.83,538.29Z" transform="translate(-466.11 -89.94)"/><path class="cls-1" d="M997.48,602.67c0-1.49,0-3,0-4.47.07-3.13,1.56-5,4.82-5.09s4.83,2,5,4.91a61.85,61.85,0,0,1-.05,9.43c-.25,2.93-1.76,5-5.12,4.83s-4.72-2-4.73-5.14v-4.47Z" transform="translate(-466.11 -89.94)"/><path class="cls-1" d="M1002.45,490.22c-1.85,1.64-3.65,4.47-5.57,4.56-1.69.07-4.26-2.61-5.1-4.63a16.17,16.17,0,0,1-1-8.74c.38-2.1,2.69-3.86,4.14-5.77,1.83,1.56,4.43,2.77,5.31,4.75,1.16,2.61,1,5.81,1.36,8.76Z" transform="translate(-466.11 -89.94)"/><path class="cls-1" d="M996.72,562.08c-.13-4.75.68-8.27,4.92-8.3s5.21,3.27,5,7.06c-.08,2,.35,3.94.43,5.92.13,3.34-1,6.07-4.68,6.39-3.54.3-4.94-1.93-5.08-5.28C997.25,565.57,996.85,563.28,996.72,562.08Z" transform="translate(-466.11 -89.94)"/><path class="cls-1" d="M986.52,413.74c-1.55,1.61-2.75,3.89-4.3,4.16s-4.48-.81-5.28-2.19a33.89,33.89,0,0,1-4-10.57c-.3-1.53,1.3-4.32,2.76-5s4.68.12,5.4,1.31C983.26,405,984.58,409.14,986.52,413.74Z" transform="translate(-466.11 -89.94)"/><path class="cls-1" d="M803.06,561.7c-1.13-1.14-3.84-2.63-4-4.3s1.75-4.61,3.5-5.48a21.36,21.36,0,0,1,9.61-2.15c2,.05,5,1.92,5.46,3.59.45,1.48-1.47,4.73-3.14,5.54C811.48,560.38,807.83,560.63,803.06,561.7Z" transform="translate(-466.11 -89.94)"/><path class="cls-1" d="M775.61,558.61c1.48,1.41,4.06,2.73,4.31,4.4s-1.29,4.57-2.88,5.52a25.78,25.78,0,0,1-9.76,3.39c-1.73.22-5-1.43-5.32-2.75-.41-1.81.77-5,2.3-6C767.4,561.17,771.23,560.27,775.61,558.61Z" transform="translate(-466.11 -89.94)"/><path class="cls-1" d="M844.35,554.49c-3.23,0-6.3-.19-6.79-4.24s2.46-5.08,5.56-5.68c2.61-.5,5.36-1.39,7.85-1,2,.35,4.67,2,5.41,3.77,1.15,2.7-.41,5.22-3.67,5.84C850,553.74,847.14,554.07,844.35,554.49Z" transform="translate(-466.11 -89.94)"/><path class="cls-1" d="M886.26,550.25c-4.65-.19-9.55,1.26-9.64-4.56-.08-5.26,4.41-5.31,8.3-5.45,2-.07,4.18-.64,5.89,0s4.35,2.45,4.51,4-1.68,4.14-3.32,5.08C890.15,550.34,887.54,550.08,886.26,550.25Z" transform="translate(-466.11 -89.94)"/><path class="cls-1" d="M992.56,684c.35-2.79.14-5.84,1.23-8.3.82-1.86,3.4-4.2,5-4.08s4.19,2.88,4.4,4.71a26,26,0,0,1-1.15,10.76c-.53,1.62-3.43,3.57-5.14,3.46C993.42,690.29,992.1,687.45,992.56,684Z" transform="translate(-466.11 -89.94)"/><path class="cls-1" d="M977.88,763.12c1.38-4.56,2.09-8.38,3.74-11.73.72-1.46,3.56-2.95,5.08-2.65s3.8,3,3.64,4.37a47.24,47.24,0,0,1-3.27,12.32c-.47,1.16-3.54,2.29-4.86,1.83C980.43,766.65,979.2,764.48,977.88,763.12Z" transform="translate(-466.11 -89.94)"/><path class="cls-1" d="M987.31,722.75c.45-2.78.29-5.87,1.53-8.23,1-1.9,3.69-2.91,5.62-4.32,1.33,2,3.48,3.85,3.77,6,.37,2.64-.77,5.5-1.29,8.26-.6,3.15-2.4,5.73-5.68,4.59-2-.7-3.28-3.5-4.89-5.35Z" transform="translate(-466.11 -89.94)"/></svg>