<svg id="Capa_1" data-name="Capa 1" xmlns="http://www.w3.org/2000/svg" viewBox="0 0 534.06 800"><defs><style>.cls-1{fill:#d3d3d3;}</style></defs><path class="cls-1" d="M551.82,340.7c.35,13.47,1,28.35,1,43.25a94.16,94.16,0,0,0,5.62,31.35l-.2-.65a130.55,130.55,0,0,1,6.88,24.4l.12.85c2.93,21.65-8.77,34.05-26.5,43.5a7.52,7.52,0,0,1-3.62.93h-.25a12.31,12.31,0,0,1-3.5-1.15l.07,0c-1.17-4.25,1.28-6.9,2.9-9.77,2-3.55,4.25-6.9,6.13-10.53,4.72-9.4,3.4-16.6-4.23-23.75a45.19,45.19,0,0,0-4.45-3.38l-.17-.09c-11.88-2.51-20.55,3.7-29.18,9.67-12.22,8.42-19.3,19.62-18.72,35,.25,6.12.27,12.22,0,18.35-.28,5-1.18,9.92-1.83,15.45H470.35c-4.57-3.73-5.75-9.35-6.35-14.48-2.47-20.2-15-31.15-33.05-36.85A95.82,95.82,0,0,0,400.43,458a97.5,97.5,0,0,0-33.65,5.95l.67-.23c-16.75,5.93-28.32,16.63-30.57,35.45a25.07,25.07,0,0,1-6.48,15.2l0,0H319c-.72-5.23-1.75-10.2-2.05-15a187,187,0,0,1,0-19.38c.58-13.3-5-23.77-15-31.7a89,89,0,0,0-17.6-10.7l-.55-.22c-4.07-1.88-9-1.9-13.42-2.7a75.65,75.65,0,0,0-7.63,6.37l0,0c-5.53,6.12-7.05,13-3.05,20.52,2.2,4.08,4.9,8.15,7,12.35,1.4,2.83,4.4,5.45,2,10-1.55,0-3.8.95-5.3.23-13-6.13-23.75-14.73-27.4-29.35-2.32-9.38-.65-18.83,2.3-28,2.28-7,5.1-13.95,6.88-21.1a91.54,91.54,0,0,0,2.37-17.8v-.18c.43-8.15,0-16.3.3-24.47.28-7.4.9-14.83,1.75-22.2a13.78,13.78,0,0,1,7.53-11.35l.07,0c8-3.57,11.93-10.2,16.5-17.12A146.78,146.78,0,0,1,355,252l1-.25a154.08,154.08,0,0,1,43.83-6.2,161.15,161.15,0,0,1,22.1,1.52l-.83-.1c29.5,3.6,55.05,15.48,77.78,33.85A132.05,132.05,0,0,1,530,317.22l.32.63c2.28,4.07,4.83,7.4,9.08,9.12,5.52,2.23,8.37,6.7,12.5,13.7Zm-117.5-23.12c.8,10.34,1.63,21.77,2.53,33.2,1,12.57,8.15,19.47,17.55,22,18.35,4.92,37,6.95,55.65,9.07a13.07,13.07,0,0,0,2.05.15,13.29,13.29,0,0,0,11.12-6l0-.05c4.17-6.13,6.12-27.18-1.43-34.65-7-7-14.07-13.3-23.8-16.63-16.62-5.7-33.77-8.8-51-11.55-3.8-.62-8.25-1.62-12.77,4.48Zm-69.07-2.78a25.09,25.09,0,0,0-7.2-1.78H358a89.94,89.94,0,0,0-16.6,2.05l.6-.1c-14.05,3.26-28.35,6-41.95,10.63-19.23,6.58-28.65,22.13-25.87,40.63,2,13.1,8,16.67,19.17,15.54,10-1,20.05-2.22,30-3.95,8.25-1.44,16.3-3.8,24.48-5.67,9.1-2,13.8-8.73,15.42-17a141.47,141.47,0,0,0,2.65-27.58c0-4.47-.2-8.92-.6-13.29l.05.57Zm57.6,99.08c1.28-2.7,2.75-5.68,4.07-8.7,3.05-7.13,2.8-14.8,1.6-22.05a87.48,87.48,0,0,0-16.72-38.95l.15.22c-7.15-9.55-16-9.32-23.43.15-.4.53-.6,1.23-1,1.75a85.8,85.8,0,0,0-15.2,35.47l-.08.53A44.28,44.28,0,0,0,374,406.65l-.1-.3c3.05,8.15,8.9,10.43,16.9,6.73,1.53-.73,2.88-1.8,4.43-2.45,2.37-1,4.82-1.83,7.07-2.65,5.85,5.2,11.43,8.9,20.6,5.9Z" transform="translate(-133 0)"/><path class="cls-1" d="M170.15,450.27c2.93,15.2,5.65,29.41,8.48,44.23,9.75,3.1,14.4,11.12,18.5,19.9,5.74,12.22,11.94,24.25,18.05,36.3,4.07,7.9,5.39,15.92,1.1,25.07,8.34,11.85,16.84,24,25.67,36.48,9.77-1.15,17.22,3.52,24.47,9.77,8.9,7.8,18.53,14.75,27.68,22.28,6.3,5.15,12.7,10.3,15,18.8l40.08,7.47v28.95L298,690.2c.87-.15,0-.23-.43.1-10.94,6.35-20.7,3.62-29.87-3.85q-16.9-13.77-33.93-27.5c-7.67-6.23-13-13.53-12.92-24.1,0-3-2.18-6.25-4.08-9-8.4-12.23-17.05-24.48-25.92-37a25.61,25.61,0,0,1-19-15.18l-.08-.17c-6.12-13.18-12.8-26.1-19.42-39-5.2-10.2-7.8-20.27-.72-29.9-3.28-18.35-6.43-35.92-9.55-53.45l1.27-.37c-1.52-1.78-3.15-3.48-4.57-5.35a27,27,0,0,1-5-23.2l-.05.17c3.2-15.47,6.63-30.9,10-46.35,2.25-10.2,5.15-14,15-20.4,6.13-16.05,12.23-32.07,18.35-47.92-.42-4.7-.95-9.33-1.25-14v-.67A18.21,18.21,0,0,1,180,281.47l0,0c9.45-12.78,18.85-25.6,28.35-38.35a57.91,57.91,0,0,1,6.1-6.78l0,0c6.65-6.35,14.27-8.8,22.85-5.4l45.6-21.45c2.7-13.1,12.07-18.73,24.47-21.85,14-3.6,27.55-8.58,41.83-13.08v10.55c-17.18,7.1-35.8,9.55-53.75,18.95,12.67,3.53,15.2,11.78,12.62,23.53l41.15-12.38c.18,3.48.38,6.73.58,10.65-12.4,3.85-24.48,8.15-36.7,11.1-5.6,1.28-11.9-.4-19.85-.87l-38.43,18c-.85,9.23-5.22,16.2-10.65,22.93-7.62,9.45-14.47,19.55-21.82,29.27-7.65,10.2-7.73,10-20.05,14.8-4.95,12.9-10.2,26.68-15.78,41,7.13,8.28,7,17.78,4.28,28.23-3.55,13.65-6.13,27.6-8.65,41.5-1.48,7.82-5.95,13.45-11.9,18.4ZM162,365.42a21.27,21.27,0,0,0-8.18,13.66l0,.12q-4.91,22.16-9.48,44.35a92.66,92.66,0,0,0-1,9.85v.2l6.8,7.6c5.38-4,10.2-.88,14.58-.23a16.58,16.58,0,0,0,7.07-11.22v-.1c3.33-15.1,6.78-30.13,9.9-45.25,1.05-5,1.4-10.2-3.15-14.48a15.23,15.23,0,0,1-16.42-4.5l0,0Zm81.37-108L232.12,240.2c-9.42,1.82-10.2,2.17-14.4,7.77-8.25,11-16.59,22.1-24.75,33.4-2.69,3.7-4.85,7.78-7.52,12.1,13.73,1.48,13.73,1.48,22.42,13.28.33,0,.8,0,.95-.3,11.2-14.83,22.43-29.65,33.43-44.6a10.73,10.73,0,0,0,1.2-4.5v0ZM290.23,682c2.55-6.67,4.85-12.75,7.69-20.22-14.75-13-31-25.95-46.9-38.3-2.05,4.7-3.2,9.62-6.12,12.87s-7.55,4.4-11.8,6.7c3.07,5.6,8.72,8.37,13.32,12.23,9.88,8.15,20,16.17,30,24.17,4.33,3.53,9,6.08,13.78,2.53ZM207.8,569.53a16.65,16.65,0,0,0,.65-4.76,17.18,17.18,0,0,0-2.6-9.12l.05.08c-6.82-13.53-13.55-27.13-20.4-40.68-1.15-2.3-2.7-4.43-4.6-7.48-4.92,10.78-12.48,13.61-23.27,9.61a21,21,0,0,0,.85,5.37l0-.15q12,24.45,24.2,48.93a11.27,11.27,0,0,0,8.75,6.57h.05c4-5,9.17-8.52,16.32-8.37Z" transform="translate(-133 0)"/><path class="cls-1" d="M451,674.2l35.58-7.62c4.07-13.05,16.2-19.51,25.85-28.25,6.5-5.9,13.7-11.08,20.22-17,5.58-5,11.58-8.15,19.75-6.78l25.13-37a6,6,0,0,0,.32-1.92h0a40.74,40.74,0,0,1-.62-7.2,41.31,41.31,0,0,1,7.45-23.75l-.1.12c6.25-9.6,11.3-20,16.6-30.2,4.07-8,9-15.13,18.35-18,3.47-14.87,6.9-29.57,10.42-44.85-7.82-5.35-10.65-13.8-12.55-23-2.75-13.15-5.55-26.35-9.45-39.17-2.83-9.4-.85-17.23,4.37-25.58-5.45-13.27-11-26.92-16.62-40.6a29.78,29.78,0,0,1-19.1-12.42l-.08-.1c-8.47-11.43-17.55-22.43-26.4-33.5a37.87,37.87,0,0,1-9.2-23v-.1c-8.62-4.55-17.07-8.78-25.27-13.43-3.25-1.85-6.65-2.72-9.68-1.2-5.27,2.65-10.2.93-14.72-.82-13.23-5-26.25-10.5-39.8-16v-10.7c15.9,4.7,30,12.53,45.57,17.18-2.25-13.1-.42-16.63,11.33-22.7-.68-3.78-4.08-4.08-6.75-5.23-16.53-6.72-33.13-13.24-50.23-20.05V173c1-.28,2.05-.93,2.9-.7,4.8,1.4,9.7,2.75,14.28,4.6,12.52,5,24.92,10.2,37.4,15.4,11.27,4.63,14.52,8.3,17.85,21,6,3.13,12.6,6.48,19.12,9.95,4.48,2.38,8.75,5.2,13.33,7.33a26.11,26.11,0,0,0,9.45,2.57h.1a25.23,25.23,0,0,1,20.32,11l0,.08Q600,263.08,614.8,281.13c6.85,8.3,9.35,17,5.1,27l19.62,48.93a31.57,31.57,0,0,1,16,23.17l0,.18a356,356,0,0,0,10.67,43.72l-.7-2.57c3.53,12.07,1.35,21.9-8.42,29.7.17,13.57-4.58,26-7.2,38.72-.88,4.27-2.3,8.45-2.93,12.78a17,17,0,0,0-.15,2.34,18.54,18.54,0,0,0,.88,5.71l0-.13a31.18,31.18,0,0,1,1.53,9.78,31.68,31.68,0,0,1-4.68,16.65l.08-.15c-7.25,12.57-14.28,25.37-21,38.17-4.57,8.53-10.75,14.7-20.95,15.53-8.65,12.7-17.12,25.32-25.8,37.85a17.6,17.6,0,0,0-3.4,10.45c0,.32,0,.62,0,.95v0c.3,8.15-3.68,14.15-9.73,19.17-11.2,9.28-22.6,18.35-33.37,28.15-10.2,9.23-20.88,12-32.35,5.93l-46.9,9.77c0-5.72-.15-10.37-.18-15s.05-8.77.05-13.75ZM616.58,380.12c4.25,17.78,8.3,34.05,11.95,50.41,1.17,5.17,2.89,9.62,7.57,12.57h14.1c5.7-4.9,7.87-10,5.6-17.85-3.9-13.5-5.92-27.52-9.37-41.18-1.5-5.94-2.25-12.87-9.43-15.87a37.42,37.42,0,0,1-7.45,4.12l-.25.1a50.42,50.42,0,0,1-9.85,1h0Zm0,128.28c-9.9,18.2-18.53,34.22-27.31,50.18-2,3.87-1.87,7.74-1,12.55,7.37-1.2,11,4.7,15.15,8.72a14.7,14.7,0,0,0,10.35-8.25l.05-.1c8-14.87,16.2-29.67,24.15-44.6a25.18,25.18,0,0,0,1.2-6.5v-.07c-11,3.25-18-.48-22.67-12ZM564,644c-15.13-4.07-16.15-5.24-17.73-19.27-16,10.83-29.25,24.2-43.9,35.87a32,32,0,0,0-4.7,6.13l-.08.15,6.33,8.15c.43,3.3.8,6.25,1.18,9.4A36.39,36.39,0,0,0,510,685.7l.22,0c.33,0,.68,0,1.05,0a38.9,38.9,0,0,0,4.63-.28l-.18,0c16-13,32.28-26,48.15-41.48Zm48.67-347.4c-10.2-16.59-22.42-30-33.3-44.37-2.15-2.82-4.25-6.12-7.9-6.65-2.25,4.08-3.6,8.55-6.62,11.15s-7.61,3.2-11.53,4.68c3,7.9,30.82,43.35,38.45,48.82,1.13-12.05,9.15-14.62,20.83-13.62Z" transform="translate(-133 0)"/><path class="cls-1" d="M311.53,557c6.45,1.49,6.45,1.49,12.22-1.23,3.38-15.35,14-25.9,27.58-32.72,27.3-13.73,55.65-17.38,85-5.58,10.87,4.43,20.85,9.5,29,18,5.87,6.12,8.95,13.35,12.42,21.72l10.68.47a35.48,35.48,0,0,0,5.45-19c0-.55,0-1.1,0-1.65v.08q.18-19.85.13-39.73v-.15a45.23,45.23,0,0,1,4-18.77l-.13.27c1.73-3.87,4.23-6.12,9.25-4.57,4.73,9.3,2.88,19.45,2.38,29.45-.18,3-.88,6-1,9-.82,16.92-1,33.87-2.52,50.72a126.49,126.49,0,0,1-6.53,29.43l.28-.88c-5.83,17.28-24.9,23.75-40.53,14.45-7.57-4.47-14.75-9.67-22.6-13.52a124.43,124.43,0,0,0-25.35-10l-.9-.2a51.15,51.15,0,0,0-34.92,4.73l.27-.13c-10.87,5.3-21.22,11.7-31.92,17.4a49.79,49.79,0,0,1-13.43,5.8l-.35.08c-12.9,2.47-26-7.88-29-17.58a143.87,143.87,0,0,1-6.45-27.67l-.08-.78c-1.55-14.42-1.62-29.05-2.37-43.6-.55-10.45-1.48-20.9-1.68-31.37a102.21,102.21,0,0,1,1.8-15.23l-.1.65c5-2.45,8.5-1,9.85,2.95a66.64,66.64,0,0,1,4.25,18.25l0,.28c.67,13.55.22,27.15.35,40.77a47.13,47.13,0,0,0,5,20.15l-.12-.27Z" transform="translate(-133 0)"/><path class="cls-1" d="M375.65,223.32v-68.2l-7-5H349.8l-5.9,7.45H323.4V119.5H344c1.25,1.62,2.65,3.47,4.2,5.52h32.93c4.07-3.9,3.82-9.62,4.62-14.75,3.15-20.15,2.3-40.47,2.3-60.75a25.38,25.38,0,0,0-.57-3.72l0,.17-9.12-.52V11.9C387,12,394,7.82,399.48,0a32.83,32.83,0,0,1,6.2,3.5l-.1-.08c7.72,7.05,7.67,7.13,16.87,8.58V44.82l-7.17,1.43c-.33.52-.95,1-.95,1.6-.6,37.3-.63,62.1,5.47,77h32.83l4.77-5.7h19.05c1.83,7.18,2.05,26.5.5,38.48H457.48l-6.13-7.33h-18.7l-7.9,4.88v67.9a135.08,135.08,0,0,0-24-2.08,139.49,139.49,0,0,0-26,2.43l.88-.13Z" transform="translate(-133 0)"/><path class="cls-1" d="M375.65,615.08c16.93-8.91,32.85-9.48,49.37-.13v9.18c0,34,.3,67.92-.4,102a161.89,161.89,0,0,1-10.27,55.52l.37-1.12a109.21,109.21,0,0,1-6.4,13.37l.3-.55a62.52,62.52,0,0,1-4.72,6.7l.1-.12h-6.48a12.93,12.93,0,0,1-2.12-1.9h0c-8.83-11.6-12.5-25.25-15.3-39.18-4.25-21-4.73-42.27-4.53-63.62.25-26.43.15-52.93.15-80.08Z" transform="translate(-133 0)"/></svg>