<svg id="Capa_1" data-name="Capa 1" xmlns="http://www.w3.org/2000/svg" viewBox="0 0 988.16 900.96"><defs><style>.cls-1{fill:#2b2e21;}.cls-2{fill:#59a46d;}.cls-3{fill:#9ebb9f;}</style></defs><polygon class="cls-1" points="493.89 96.06 939.89 391.06 763.39 856.56 218.39 860.56 61.39 389.56 493.89 96.06"/><path class="cls-2" d="M959.11,89.94h1.42a25.76,25.76,0,0,0,2.86,2.46c6.73,4.39,13.51,8.73,20.27,13.08l70,45,66.11,42.61q47,30.27,94.09,60.48a4.92,4.92,0,0,1,2.63,4.76c-.13,11.54,0,23.09-.11,34.64a4.66,4.66,0,0,0,2.21,4.3c11.58,8.64,23.08,17.39,34.61,26.09l86.73,65.45,111.34,84a17.6,17.6,0,0,0,3,1.52v.61a24.39,24.39,0,0,0-2,3.56q-25.62,68.44-51.15,136.79-28.68,76.71-57.4,153.42l-38.43,102.71L1267.64,972.2c-2.16,5.76-4.34,11.5-6.51,17.26-.78,0-1.36.11-1.93.12-14.81.13-29.67.36-44.43.36q-43.41.19-86.82.27h-57.08c-5.25,0-10.5.07-15.75.1q-39.75,0-79.51-.07a5.67,5.67,0,0,0-1.79.66h-28a23.8,23.8,0,0,0-3.92-.67q-37-.06-73.92,0c-1.16,0-2.32.09-3.48.14s-2.33-.13-3.49-.13L779.79,990q-43.59-.18-87.15-.39H658.28c-2.91-7.77-5.78-15.38-8.62-23Q624.52,899.34,599.4,832.1q-17.92-47.91-35.89-95.84Q538.79,670.2,514.1,604.08L469.93,486c-1.21-3.23-2.54-6.41-3.82-9.62v-2.1l46.22-34.93,69.76-52.62q59-44.49,118.08-89a5.91,5.91,0,0,0,2.75-5.44c-.13-12.24-.06-24.49-.06-36.86,1.15-.79,2.28-1.61,3.44-2.36q18.06-11.62,36.17-23.24l65.79-42.42L892.94,133q26.31-16.92,52.58-33.91C950.11,96.13,954.53,93,959.11,89.94Zm.36,106.59c-1.23.93-2.38,1.89-3.61,2.72l-23.81,16-52.6,35.29-51.74,34.71-52.6,35.29Q747.95,338.78,720.76,357l-50.28,33.73-55,36.87L535.88,481c-2.83,1.89-2.81,1.91-1.69,5q12.75,35,25.49,70,25.23,69.36,50.45,138.71l40.5,111.44Q670,859.58,689.46,913q3.15,8.73,6.34,17.42c.44,1.22.8,2.43,2.48,2.5,2.32.1,4.64.48,7,.52,14.57.28,29.14.49,43.72.73l42.66.69,43,.7,42.67.7q21.84.36,43.71.7c6.89.1,13.77.21,20.66.15q31.29-.27,62.62-.68c15-.19,30.08-.46,45.12-.7l40.92-.69c14.92-.24,29.84-.5,44.76-.7,19.48-.26,39-.44,58.43-.73,8.74-.13,17.47-.51,26.21-.63,2.1,0,3.3-.71,3.76-2.76a14.67,14.67,0,0,1,.76-2q21-57.84,42.09-115.7l40.49-111.38,30.25-83.18q11-30.24,22-60.49,12.9-35.49,25.82-71c1.3-3.59,1.27-3.62-1.78-5.67l-34.26-23.06L1297.15,423l-52.62-35.28L1192.8,353l-53.8-36.1-51.47-34.47-53.48-35.87q-20.64-13.83-41.31-27.63-16.65-11.19-33.27-22.44Z" transform="translate(-466.11 -89.94)"/><rect class="cls-3" x="313.89" y="341.06" width="359" height="359"/></svg>