<svg id="Capa_1" data-name="Capa 1" xmlns="http://www.w3.org/2000/svg" viewBox="0 0 988.16 900.96"><defs><style>.cls-1{fill:#2b2e21;}.cls-2{fill:#59a46d;}.cls-3{fill:#9ebb9f;}</style></defs><polygon class="cls-1" points="493.89 96.06 939.89 391.06 763.39 856.56 218.39 860.56 61.39 389.56 493.89 96.06"/><path class="cls-2" d="M959.11,89.94h1.42a25.76,25.76,0,0,0,2.86,2.46c6.73,4.39,13.51,8.73,20.27,13.08l70,45,66.11,42.61q47,30.27,94.09,60.48a4.92,4.92,0,0,1,2.63,4.76c-.13,11.54,0,23.09-.11,34.64a4.66,4.66,0,0,0,2.21,4.3c11.58,8.64,23.08,17.39,34.61,26.09l86.73,65.45,111.34,84a17.6,17.6,0,0,0,3,1.52v.61a24.39,24.39,0,0,0-2,3.56q-25.62,68.44-51.15,136.79-28.68,76.71-57.4,153.42l-38.43,102.71L1267.64,972.2c-2.16,5.76-4.34,11.5-6.51,17.26-.78,0-1.36.11-1.93.12-14.81.13-29.67.36-44.43.36q-43.41.19-86.82.27h-57.08c-5.25,0-10.5.07-15.75.1q-39.75,0-79.51-.07a5.67,5.67,0,0,0-1.79.66h-28a23.8,23.8,0,0,0-3.92-.67q-37-.06-73.92,0c-1.16,0-2.32.09-3.48.14s-2.33-.13-3.49-.13L779.79,990q-43.59-.18-87.15-.39H658.28c-2.91-7.77-5.78-15.38-8.62-23Q624.52,899.34,599.4,832.1q-17.92-47.91-35.89-95.84Q538.79,670.2,514.1,604.08L469.93,486c-1.21-3.23-2.54-6.41-3.82-9.62v-2.1l46.22-34.93,69.76-52.62q59-44.49,118.08-89a5.91,5.91,0,0,0,2.75-5.44c-.13-12.24-.06-24.49-.06-36.86,1.15-.79,2.28-1.61,3.44-2.36q18.06-11.62,36.17-23.24l65.79-42.42L892.94,133q26.31-16.92,52.58-33.91C950.11,96.13,954.53,93,959.11,89.94Zm.36,106.59c-1.23.93-2.38,1.89-3.61,2.72l-23.81,16-52.6,35.29-51.74,34.71-52.6,35.29Q747.95,338.78,720.76,357l-50.28,33.73-55,36.87L535.88,481c-2.83,1.89-2.81,1.91-1.69,5q12.75,35,25.49,70,25.23,69.36,50.45,138.71l40.5,111.44Q670,859.58,689.46,913q3.15,8.73,6.34,17.42c.44,1.22.8,2.43,2.48,2.5,2.32.1,4.64.48,7,.52,14.57.28,29.14.49,43.72.73l42.66.69,43,.7,42.67.7q21.84.36,43.71.7c6.89.1,13.77.21,20.66.15q31.29-.27,62.62-.68c15-.19,30.08-.46,45.12-.7l40.92-.69c14.92-.24,29.84-.5,44.76-.7,19.48-.26,39-.44,58.43-.73,8.74-.13,17.47-.51,26.21-.63,2.1,0,3.3-.71,3.76-2.76a14.67,14.67,0,0,1,.76-2q21-57.84,42.09-115.7l40.49-111.38,30.25-83.18q11-30.24,22-60.49,12.9-35.49,25.82-71c1.3-3.59,1.27-3.62-1.78-5.67l-34.26-23.06L1297.15,423l-52.62-35.28L1192.8,353l-53.8-36.1-51.47-34.47-53.48-35.87q-20.64-13.83-41.31-27.63-16.65-11.19-33.27-22.44Z" transform="translate(-466.11 -89.94)"/><path class="cls-1" d="M965.74,293q105.67,105.68,211.36,211.31a31,31,0,0,0,4.14,3V834.77l-2.46,1.23h-2.47c-2.54-.41-5.07-1.18-7.61-1.18q-206.81-.09-413.6-.15c-3.26,0-6.52-1.54-9.78-2.36v-2.47c.41-2.12,1.18-4.25,1.18-6.37q.09-152.47,0-305c0-2.13-.77-4.25-1.18-6.38v-3.69c10.32-10,20.75-19.93,30.92-30.1q91.14-91,182.15-182.17a29,29,0,0,0,2.43-3.23Zm206.39,533V516.42H755.58V825.93ZM968.27,505.6h193.49L963.9,307.67l-198.1,198H959.45c0-3.77-.51-7.14.18-10.23.43-1.93,2.68-3.45,4.11-5.16,1.51,1.65,3.89,3.09,4.33,5C968.8,498.36,968.27,501.75,968.27,505.6Z" transform="translate(-466.11 -89.94)"/><path class="cls-1" d="M745.32,832.31c3.26.82,6.52,2.36,9.78,2.36q206.79.18,413.6.15c2.54,0,5.07.77,7.61,1.18h-431Z" transform="translate(-466.11 -89.94)"/><path class="cls-1" d="M745.32,512.14c.41,2.13,1.18,4.25,1.18,6.38q.09,152.47,0,305c0,2.12-.77,4.25-1.18,6.37Z" transform="translate(-466.11 -89.94)"/><path class="cls-1" d="M1178.78,836l2.46-1.23Z" transform="translate(-466.11 -89.94)"/><path class="cls-3" d="M1172.13,825.93H755.58V516.42h416.55ZM1049.37,696.21c-4-3.34-7.67-7.36-12.18-9.78-2.8-1.5-6.29,3.57-4.26,6.46a39,39,0,0,0,8.86,9C1044.73,704.05,1048.29,701.34,1049.37,696.21Zm-40-36.35c-.66.52-2.49,1.33-3.2,2.72a4.79,4.79,0,0,0,.51,4.29,51,51,0,0,0,7.67,7.73,4.54,4.54,0,0,0,7.53-3.35C1022.05,668,1013.85,659.79,1009.35,659.86ZM1118,764.59c-2.62,2.07-4.44,2.8-4.9,4-.54,1.46-.52,3.84.35,5a47.89,47.89,0,0,0,7.71,7.75,4.68,4.68,0,0,0,4.3.42c1.31-.78,3.06-3.45,2.69-4C1125.09,773.35,1121.62,769.23,1118,764.59ZM938.43,649.94c3.32-4,7.36-7.72,9.7-12.27,1.46-2.84-3.7-6.2-6.54-4.1a38.34,38.34,0,0,0-8.55,8.65C930.85,645.36,933.41,649,938.43,649.94Zm-26.55,26.8c3.22-4.15,7.21-7.93,9.4-12.57,1.43-3-3.47-6-6.6-3.68a39.63,39.63,0,0,0-8.56,8.64C904.13,671.86,907.21,676,911.88,676.74Zm-53.75,53.58c3.6-4.39,7-8.34,10.07-12.58.39-.56-1-3.27-2.16-3.83-1.36-.67-3.86-.78-4.94.06a41,41,0,0,0-7.71,7.75c-.87,1.15-.8,3.59-.22,5.08C853.63,728,855.53,728.57,858.13,730.32Zm245,19.51c-4.28-3.5-8.11-6.91-12.3-9.77-.72-.5-3.65.92-4.4,2.16a5.25,5.25,0,0,0,.38,4.83,43.24,43.24,0,0,0,7.82,7.71c1.07.81,3.52.57,4.92-.08C1100.8,754.11,1101.43,752.28,1103.15,749.83Zm-325.1,60.49c3.63-4.37,7.11-8.31,10.17-12.55.4-.54-1-3.26-2.16-3.82-1.37-.68-3.86-.81-5,0a41.27,41.27,0,0,0-7.77,7.74c-.87,1.15-.81,3.6-.23,5.09C773.56,808,775.47,808.58,778.05,810.32Zm378.1-7.44c-4.07-3.3-7.79-7.32-12.36-9.65-2.94-1.5-6.13,3.36-4,6.45a37.83,37.83,0,0,0,8.51,8.62C1151.12,810.38,1155.33,807.54,1156.15,802.88ZM984.66,631.48c-2.51,2-4.34,2.83-4.76,4.07-.5,1.52-.41,3.89.5,5.07a36.89,36.89,0,0,0,7.39,7.27c1.14.84,3.62.74,5,.08,1.15-.56,2.61-3.3,2.22-3.82C991.91,639.9,988.4,635.94,984.66,631.48ZM896.2,692.23l-.22-2.74c-2.35-1-5.56-3.39-6.87-2.61a31.85,31.85,0,0,0-9.21,8.6c-2.09,2.9,1.34,8.24,3.86,6.78C888.31,699.62,892.1,695.65,896.2,692.23ZM842.86,745.4c-1.75-2.54-2.37-4.42-3.53-4.87-1.48-.57-3.93-.63-5.05.25a41.13,41.13,0,0,0-7.55,7.82c-.8,1.08-.63,3.51,0,4.86.57,1.14,3.22,2.57,3.71,2.21C834.65,752.56,838.53,749.07,842.86,745.4Zm-33.65,19.12c-3.55,4.85-7.47,8.83-9.58,13.61-1.27,2.9,3.77,5.37,6.91,3a43.72,43.72,0,0,0,7.74-7.7,4.84,4.84,0,0,0,.22-4.36C813.74,767.7,812,766.82,809.21,764.52ZM1063.58,713c-3.23.08-5.75,3.88-3.82,6.6a40.44,40.44,0,0,0,8.53,8.7c2.61,2,6.6-.45,6.82-3.65S1067,712.92,1063.58,713Zm-95.3-100.07c0-1.42.53-3.18-.12-4.2-1.23-2-3.13-3.48-4.76-5.19-1.32,1.73-3.33,3.29-3.8,5.23a18.36,18.36,0,0,0,0,8.47c.49,2,2.53,3.5,3.89,5.24,1.59-1.76,3.46-3.35,4.67-5.33C968.81,616.11,968.28,614.36,968.28,612.93Zm-8.85-75.69c0,1.23,0,2.47,0,3.69-.08,3.2.65,6.37,4.5,5.54,1.75-.38,3.41-3.21,4.23-5.28.7-1.77.11-4,.16-6.09.08-3.64-.77-7.2-5.07-6.54-1.55.24-2.64,4-3.76,6.25C959.15,535.46,959.42,536.42,959.43,537.24Zm.05,37.9h-.05c0,1.23-.4,2.65.08,3.65a54.73,54.73,0,0,0,3.77,5.88c1.67-1.91,4.1-3.57,4.81-5.78a15.93,15.93,0,0,0,0-8.5c-.44-1.65-2.69-3.85-4.19-3.9s-3.35,2.15-4.25,3.8C958.92,571.56,959.48,573.5,959.48,575.14Z" transform="translate(-466.11 -89.94)"/><path class="cls-3" d="M968.27,505.6c0-3.85.53-7.24-.2-10.34-.44-1.89-2.82-3.33-4.33-5-1.43,1.71-3.68,3.23-4.11,5.16-.69,3.09-.18,6.46-.18,10.23H765.8l198.1-198L1161.76,505.6ZM959.49,415h0c0,1.83-.53,3.9.14,5.44.76,1.7,2.59,4,4,4s4.11-2.08,4.39-3.6a30.14,30.14,0,0,0,0-10.92c-.28-1.47-2.89-3.26-4.59-3.44-1.15-.12-3,2.09-3.75,3.65C959,411.46,959.49,413.33,959.49,415Zm-.06-37.75c0,1.43-.46,3.08.1,4.23a43,43,0,0,0,4,5.82c1.59-2,3.77-3.73,4.59-6a11,11,0,0,0,0-7.2c-.84-2.2-3.1-3.86-4.75-5.75a69.63,69.63,0,0,0-3.86,5.86C959.07,375,959.43,376.2,959.43,377.22ZM958,452c2.22,4.54-.58,10.56,5.82,10.47,5.94-.09,4.35-5.76,4.47-9.59s.94-8.93-4.53-8.72C961.71,444.19,959.88,449.19,958,452Zm1.52-112.17h-.06c0,1.44-.43,3.06.1,4.26a36.32,36.32,0,0,0,3.6,5.41c1.71-1.65,4.39-3,4.92-5a20.66,20.66,0,0,0-.06-9.73c-.36-1.51-2.9-3.26-4.6-3.44-1.17-.12-3,2.09-3.77,3.65C959,336.26,959.49,338.14,959.49,339.78Z" transform="translate(-466.11 -89.94)"/><path class="cls-1" d="M1049.37,696.21c-1.08,5.13-4.64,7.84-7.58,5.71a39,39,0,0,1-8.86-9c-2-2.89,1.46-8,4.26-6.46C1041.7,688.85,1045.35,692.87,1049.37,696.21Z" transform="translate(-466.11 -89.94)"/><path class="cls-1" d="M1009.35,659.86c4.5-.07,12.7,8.12,12.51,11.39a4.54,4.54,0,0,1-7.53,3.35,51,51,0,0,1-7.67-7.73,4.79,4.79,0,0,1-.51-4.29C1006.86,661.19,1008.69,660.38,1009.35,659.86Z" transform="translate(-466.11 -89.94)"/><path class="cls-1" d="M1118,764.59c3.66,4.64,7.13,8.76,10.15,13.2.37.54-1.38,3.21-2.69,4a4.68,4.68,0,0,1-4.3-.42,47.89,47.89,0,0,1-7.71-7.75c-.87-1.13-.89-3.51-.35-5C1113.52,767.39,1115.34,766.66,1118,764.59Z" transform="translate(-466.11 -89.94)"/><path class="cls-1" d="M938.43,649.94c-5-.91-7.58-4.58-5.39-7.72a38.34,38.34,0,0,1,8.55-8.65c2.84-2.1,8,1.26,6.54,4.1C945.79,642.22,941.75,645.9,938.43,649.94Z" transform="translate(-466.11 -89.94)"/><path class="cls-1" d="M911.88,676.74c-4.67-.75-7.75-4.88-5.76-7.61a39.63,39.63,0,0,1,8.56-8.64c3.13-2.28,8,.64,6.6,3.68C919.09,668.81,915.1,672.59,911.88,676.74Z" transform="translate(-466.11 -89.94)"/><path class="cls-1" d="M858.13,730.32c-2.6-1.75-4.5-2.35-5-3.52-.58-1.49-.65-3.93.22-5.08A41,41,0,0,1,861.1,714c1.08-.84,3.58-.73,4.94-.06,1.14.56,2.55,3.27,2.16,3.83C865.17,722,861.73,725.93,858.13,730.32Z" transform="translate(-466.11 -89.94)"/><path class="cls-1" d="M1103.15,749.83c-1.72,2.45-2.35,4.28-3.58,4.85-1.4.65-3.85.89-4.92.08a43.24,43.24,0,0,1-7.82-7.71,5.25,5.25,0,0,1-.38-4.83c.75-1.24,3.68-2.66,4.4-2.16C1095,742.92,1098.87,746.33,1103.15,749.83Z" transform="translate(-466.11 -89.94)"/><path class="cls-1" d="M778.05,810.32c-2.58-1.74-4.49-2.35-4.95-3.52-.58-1.49-.64-3.94.23-5.09A41.27,41.27,0,0,1,781.1,794c1.1-.83,3.59-.7,5,0,1.14.56,2.56,3.28,2.16,3.82C785.16,802,781.68,806,778.05,810.32Z" transform="translate(-466.11 -89.94)"/><path class="cls-1" d="M1156.15,802.88c-.82,4.66-5,7.5-7.84,5.42a37.83,37.83,0,0,1-8.51-8.62c-2.14-3.09,1-7.95,4-6.45C1148.36,795.56,1152.08,799.58,1156.15,802.88Z" transform="translate(-466.11 -89.94)"/><path class="cls-1" d="M984.66,631.48c3.74,4.46,7.25,8.42,10.36,12.67.39.52-1.07,3.26-2.22,3.82-1.39.66-3.87.76-5-.08a36.89,36.89,0,0,1-7.39-7.27c-.91-1.18-1-3.55-.5-5.07C980.32,634.31,982.15,633.53,984.66,631.48Z" transform="translate(-466.11 -89.94)"/><path class="cls-1" d="M896.2,692.23c-4.1,3.42-7.89,7.39-12.44,10-2.52,1.46-6-3.88-3.86-6.78a31.85,31.85,0,0,1,9.21-8.6c1.31-.78,4.52,1.65,6.87,2.61Z" transform="translate(-466.11 -89.94)"/><path class="cls-1" d="M842.86,745.4c-4.33,3.67-8.21,7.16-12.38,10.27-.49.36-3.14-1.07-3.71-2.21-.67-1.35-.84-3.78,0-4.86a41.13,41.13,0,0,1,7.55-7.82c1.12-.88,3.57-.82,5.05-.25C840.49,741,841.11,742.86,842.86,745.4Z" transform="translate(-466.11 -89.94)"/><path class="cls-1" d="M809.21,764.52c2.75,2.3,4.53,3.18,5.29,4.6a4.84,4.84,0,0,1-.22,4.36,43.72,43.72,0,0,1-7.74,7.7c-3.14,2.32-8.18-.15-6.91-3C801.74,773.35,805.66,769.37,809.21,764.52Z" transform="translate(-466.11 -89.94)"/><path class="cls-1" d="M1063.58,713c3.46-.08,11.77,8.3,11.53,11.65s-4.21,5.63-6.82,3.65a40.44,40.44,0,0,1-8.53-8.7C1057.83,716.88,1060.35,713.08,1063.58,713Z" transform="translate(-466.11 -89.94)"/><path class="cls-1" d="M968.28,612.93c0,1.43.53,3.18-.11,4.22-1.21,2-3.08,3.57-4.67,5.33-1.36-1.74-3.4-3.29-3.89-5.24a18.36,18.36,0,0,1,0-8.47c.47-1.94,2.48-3.5,3.8-5.23,1.63,1.71,3.53,3.24,4.76,5.19C968.81,609.75,968.28,611.51,968.28,612.93Z" transform="translate(-466.11 -89.94)"/><path class="cls-1" d="M959.43,537.24c0-.82-.28-1.78.05-2.43,1.12-2.25,2.21-6,3.76-6.25,4.3-.66,5.15,2.9,5.07,6.54,0,2,.54,4.32-.16,6.09-.82,2.07-2.48,4.9-4.23,5.28-3.85.83-4.58-2.34-4.5-5.54C959.45,539.71,959.43,538.47,959.43,537.24Z" transform="translate(-466.11 -89.94)"/><path class="cls-1" d="M959.48,575.14c0-1.64-.56-3.58.14-4.85.9-1.65,2.83-3.85,4.25-3.8s3.75,2.25,4.19,3.9a15.93,15.93,0,0,1,0,8.5c-.71,2.21-3.14,3.87-4.81,5.78a54.73,54.73,0,0,1-3.77-5.88c-.48-1-.08-2.42-.08-3.65Z" transform="translate(-466.11 -89.94)"/><path class="cls-1" d="M959.49,415c0-1.64-.5-3.51.14-4.83.74-1.56,2.6-3.77,3.75-3.65,1.7.18,4.31,2,4.59,3.44a30.14,30.14,0,0,1,0,10.92c-.28,1.52-2.89,3.64-4.39,3.6s-3.24-2.34-4-4c-.67-1.54-.14-3.61-.14-5.44Z" transform="translate(-466.11 -89.94)"/><path class="cls-1" d="M959.43,377.22c0-1-.36-2.23.07-3a69.63,69.63,0,0,1,3.86-5.86c1.65,1.89,3.91,3.55,4.75,5.75a11,11,0,0,1,0,7.2c-.82,2.25-3,4-4.59,6a43,43,0,0,1-4-5.82C959,380.3,959.43,378.65,959.43,377.22Z" transform="translate(-466.11 -89.94)"/><path class="cls-1" d="M958,452c1.91-2.76,3.74-7.76,5.76-7.84,5.47-.21,4.65,4.94,4.53,8.72s1.47,9.5-4.47,9.59C957.39,462.51,960.19,456.49,958,452Z" transform="translate(-466.11 -89.94)"/><path class="cls-1" d="M959.49,339.78c0-1.64-.51-3.52.13-4.85.74-1.56,2.6-3.77,3.77-3.65,1.7.18,4.24,1.93,4.6,3.44a20.66,20.66,0,0,1,.06,9.73c-.53,2-3.21,3.35-4.92,5a36.32,36.32,0,0,1-3.6-5.41c-.53-1.2-.1-2.82-.1-4.26Z" transform="translate(-466.11 -89.94)"/></svg>