<svg id="Capa_1" data-name="Capa 1" xmlns="http://www.w3.org/2000/svg" viewBox="0 0 988.16 900.96"><defs><style>.cls-1{fill:#2b2e21;}.cls-2{fill:#59a46d;}.cls-3{fill:#9ebb9f;}</style></defs><polygon class="cls-1" points="493.89 96.06 939.89 391.06 763.39 856.56 218.39 860.56 61.39 389.56 493.89 96.06"/><path class="cls-2" d="M959.11,89.94h1.42a25.76,25.76,0,0,0,2.86,2.46c6.73,4.39,13.51,8.73,20.27,13.08l70,45,66.11,42.61q47,30.27,94.09,60.48a4.92,4.92,0,0,1,2.63,4.76c-.13,11.54,0,23.09-.11,34.64a4.66,4.66,0,0,0,2.21,4.3c11.58,8.64,23.08,17.39,34.61,26.09l86.73,65.45,111.34,84a17.6,17.6,0,0,0,3,1.52v.61a24.39,24.39,0,0,0-2,3.56q-25.62,68.44-51.15,136.79-28.68,76.71-57.4,153.42l-38.43,102.71L1267.64,972.2c-2.16,5.76-4.34,11.5-6.51,17.26-.78,0-1.36.11-1.93.12-14.81.13-29.67.36-44.43.36q-43.41.19-86.82.27h-57.08c-5.25,0-10.5.07-15.75.1q-39.75,0-79.51-.07a5.67,5.67,0,0,0-1.79.66h-28a23.8,23.8,0,0,0-3.92-.67q-37-.06-73.92,0c-1.16,0-2.32.09-3.48.14s-2.33-.13-3.49-.13L779.79,990q-43.59-.18-87.15-.39H658.28c-2.91-7.77-5.78-15.38-8.62-23Q624.52,899.34,599.4,832.1q-17.92-47.91-35.89-95.84Q538.79,670.2,514.1,604.08L469.93,486c-1.21-3.23-2.54-6.41-3.82-9.62v-2.1l46.22-34.93,69.76-52.62q59-44.49,118.08-89a5.91,5.91,0,0,0,2.75-5.44c-.13-12.24-.06-24.49-.06-36.86,1.15-.79,2.28-1.61,3.44-2.36q18.06-11.62,36.17-23.24l65.79-42.42L892.94,133q26.31-16.92,52.58-33.91C950.11,96.13,954.53,93,959.11,89.94Zm.36,106.59c-1.23.93-2.38,1.89-3.61,2.72l-23.81,16-52.6,35.29-51.74,34.71-52.6,35.29Q747.95,338.78,720.76,357l-50.28,33.73-55,36.87L535.88,481c-2.83,1.89-2.81,1.91-1.69,5q12.75,35,25.49,70,25.23,69.36,50.45,138.71l40.5,111.44Q670,859.58,689.46,913q3.15,8.73,6.34,17.42c.44,1.22.8,2.43,2.48,2.5,2.32.1,4.64.48,7,.52,14.57.28,29.14.49,43.72.73l42.66.69,43,.7,42.67.7q21.84.36,43.71.7c6.89.1,13.77.21,20.66.15q31.29-.27,62.62-.68c15-.19,30.08-.46,45.12-.7l40.92-.69c14.92-.24,29.84-.5,44.76-.7,19.48-.26,39-.44,58.43-.73,8.74-.13,17.47-.51,26.21-.63,2.1,0,3.3-.71,3.76-2.76a14.67,14.67,0,0,1,.76-2q21-57.84,42.09-115.7l40.49-111.38,30.25-83.18q11-30.24,22-60.49,12.9-35.49,25.82-71c1.3-3.59,1.27-3.62-1.78-5.67l-34.26-23.06L1297.15,423l-52.62-35.28L1192.8,353l-53.8-36.1-51.47-34.47-53.48-35.87q-20.64-13.83-41.31-27.63-16.65-11.19-33.27-22.44Z" transform="translate(-466.11 -89.94)"/><path class="cls-1" d="M965.55,321c7.73,14.2,15.58,28.34,23.15,42.62q33.12,62.47,66,125.05,27.3,51.72,54.56,103.45,27.08,51.26,54.21,102.46,12.26,23.17,24.49,46.36v17.45c-3.17,5.22-5.74,10.93-9.63,15.57-14.18,16.91-33.31,26.76-53.66,34.42-36.26,13.64-74.12,20.07-112.63,23.39-5.28.45-10.51,1.47-15.77,2.23H976.2c-6.1-.38-12.2-1-18.31-1.06-4.15,0-8.3.68-12.46,1.06H926.5a14.67,14.67,0,0,0-3.4-1.32c-18.93-2.34-37.93-4.18-56.79-7-34.44-5.13-67.35-15.07-97.47-32.64-14.14-8.24-25.6-19.16-31.06-35-.26-.76-1.17-1.3-1.78-2V743.27q9.35-17.87,18.69-35.72,21.57-41,43.18-82,29.46-55.9,59-111.79,27.09-51.25,54.26-102.48,21.42-40.5,42.79-81c1.7-3.2,3.83-6.18,5.76-9.26ZM772.9,700.45l7.88,4.81c-1.76,2.5-3.29,5.21-5.38,7.41-1.27,1.34-3.58,1.66-5.12,2.82-3.84,2.89-8.12,5.52-11.08,9.15-3.15,3.85-4.67,8.93-7.44,13.13-5.11,7.78-4.32,15.56,0,23a48.44,48.44,0,0,0,9.51,11.7c15,13.38,32.9,21.65,51.89,28,45.93,15.42,93.52,20.5,141.65,21.59,32.1.73,64.05-1.91,95.8-6.78,33.67-5.17,66.14-13.94,96.17-30.29A72.35,72.35,0,0,0,1172,762.74c4-5.66,6.38-12.51,3.73-18.73-5.34-12.53-10.41-25.78-25.41-31-3.34-1.15-6.81-3-6-7.48.8-4.29,4.41-5,8.1-5.28l.55.49-.44-.59c-1.09-2.47-2-5-3.3-7.4q-21.48-40.68-43-81.32c-13.41-25.43-26.72-50.91-40.16-76.32q-40.72-77-81.55-153.93c-7.22-13.63-14.38-27.29-21.84-41.46-1.21,1.82-2.07,2.9-2.69,4.09q-17.68,33.47-35.32,67-23.2,44.1-46.4,88.19-22.12,42-44.34,84c-12.18,23-24.51,45.91-36.61,68.94-8.41,16-16.55,32.09-24.8,48.15l-.43.78Z" transform="translate(-466.11 -89.94)"/><path class="cls-1" d="M945.43,834c4.16-.38,8.31-1.1,12.46-1.06,6.11.07,12.21.68,18.31,1.06Z" transform="translate(-466.11 -89.94)"/><path class="cls-3" d="M1152.44,700.29c-3.69.31-7.3,1-8.1,5.28-.82,4.46,2.65,6.33,6,7.48,15,5.18,20.07,18.43,25.41,31,2.65,6.22.23,13.07-3.73,18.73A72.35,72.35,0,0,1,1146.77,785c-30,16.35-62.5,25.12-96.17,30.29-31.75,4.87-63.7,7.51-95.8,6.78-48.13-1.09-95.72-6.17-141.65-21.59-19-6.37-36.91-14.64-51.89-28a48.44,48.44,0,0,1-9.51-11.7c-4.31-7.46-5.1-15.24,0-23,2.77-4.2,4.29-9.28,7.44-13.13,3-3.63,7.24-6.26,11.08-9.15,1.54-1.16,3.85-1.48,5.12-2.82,2.09-2.2,3.62-4.91,5.38-7.41l-7.88-4.81-.4-.38c8.26-16.06,16.4-32.17,24.81-48.15,12.1-23,24.43-45.95,36.61-68.94q22.22-42,44.34-84,23.24-44.07,46.4-88.19,17.64-33.49,35.32-67c.62-1.19,1.48-2.27,2.69-4.09,7.46,14.17,14.62,27.83,21.84,41.46q40.77,77,81.55,153.93c13.44,25.41,26.75,50.89,40.16,76.32q21.48,40.68,43,81.32c1.26,2.39,2.21,4.93,3.3,7.4Zm-236-36.15c-3.31.39-6.94.09-9.84,1.38-2.36,1.05-3.84,4-5.71,6.12,2.26,1.72,4.31,4.33,6.84,4.94,2.88.69,6.19-.62,9.32-.7,4.21-.12,7.92-1.34,7.85-5.92C924.86,665,920.93,663.86,916.47,664.14Zm-60.28,20.07c6-1.18,10.81-1.58,15.11-3.24,1.89-.73,4.27-4.61,3.71-6.05-.8-2.09-4-4.53-6.28-4.56a35,35,0,0,0-13.18,2.47c-1.8.71-3.55,4.21-3.4,6.3S855,682.83,856.19,684.21Zm212.14.06c1.38-1.38,4.28-3,4.57-4.92s-1.42-5.73-3.17-6.4a38,38,0,0,0-13.74-2.59c-2.13,0-5.06,2.71-6,4.88-.55,1.24,1.69,5,3.44,5.65C1057.73,682.53,1062.51,683,1068.33,684.27ZM803.4,691.09c.06,4,3,6.43,7.18,5.36a89.76,89.76,0,0,0,12.27-4.12c4-1.67,5.29-5.78,2.73-8.47-5-5.19-9.9-.79-14.7.55C807.45,685.37,803.15,685.92,803.4,691.09Zm205.48-27c-4-.23-8.18.16-8.56,4.83-.17,2.06,2.24,5.66,4.22,6.29a33.63,33.63,0,0,0,13.31,1.27c2.1-.22,5-3,5.57-5.16,1-3.41-1.4-5.72-5.23-6.1C1015.08,665,1012,664.52,1008.88,664.14Zm94.47,16.56c-1.7,1.69-4.2,3.1-4.71,5-.44,1.67.8,5,2.25,5.72a58.64,58.64,0,0,0,14.37,4.95c1.7.33,5-1.81,5.71-3.54s-.43-5.57-1.9-6.33C1114.43,684.15,1109.25,682.79,1103.35,680.7ZM962.91,662.89c-1.95,0-4.23-.63-5.78.15-2.24,1.12-4.94,2.94-5.65,5.05-1.21,3.57,1.49,5.88,5,6.19,4.07.35,8.37.74,12.22-.22,2.08-.52,4.74-3.82,4.74-5.86,0-1.78-3.18-3.91-5.38-5.17C966.79,662.28,964.67,662.9,962.91,662.89Z" transform="translate(-466.11 -89.94)"/><path class="cls-1" d="M772.9,700.45l-.82.4.42-.78Z" transform="translate(-466.11 -89.94)"/><path class="cls-1" d="M1152.55,700.19l.44.59-.55-.49Z" transform="translate(-466.11 -89.94)"/><path class="cls-1" d="M916.47,664.14c4.46-.28,8.39.87,8.46,5.82.07,4.58-3.64,5.8-7.85,5.92-3.13.08-6.44,1.39-9.32.7-2.53-.61-4.58-3.22-6.84-4.94,1.87-2.12,3.35-5.07,5.71-6.12C909.53,664.23,913.16,664.53,916.47,664.14Z" transform="translate(-466.11 -89.94)"/><path class="cls-1" d="M856.19,684.21c-1.19-1.38-3.9-3.14-4-5.08s1.6-5.59,3.4-6.3a35,35,0,0,1,13.18-2.47c2.24,0,5.48,2.47,6.28,4.56.56,1.44-1.82,5.32-3.71,6.05C867,682.63,862.18,683,856.19,684.21Z" transform="translate(-466.11 -89.94)"/><path class="cls-1" d="M1068.33,684.27c-5.82-1.23-10.6-1.74-14.93-3.38-1.75-.67-4-4.41-3.44-5.65,1-2.17,3.9-4.85,6-4.88a38,38,0,0,1,13.74,2.59c1.75.67,3.47,4.36,3.17,6.4S1069.71,682.89,1068.33,684.27Z" transform="translate(-466.11 -89.94)"/><path class="cls-1" d="M803.4,691.09c-.25-5.17,4.05-5.72,7.48-6.68,4.8-1.34,9.75-5.74,14.7-.55,2.56,2.69,1.25,6.8-2.73,8.47a89.76,89.76,0,0,1-12.27,4.12C806.4,697.52,803.46,695.12,803.4,691.09Z" transform="translate(-466.11 -89.94)"/><path class="cls-1" d="M1008.88,664.14c3.1.38,6.2.82,9.31,1.13,3.83.38,6.2,2.69,5.23,6.1-.61,2.15-3.47,4.94-5.57,5.16a33.63,33.63,0,0,1-13.31-1.27c-2-.63-4.39-4.23-4.22-6.29C1000.7,664.3,1004.87,663.91,1008.88,664.14Z" transform="translate(-466.11 -89.94)"/><path class="cls-1" d="M1103.35,680.7c5.9,2.09,11.08,3.45,15.72,5.82,1.47.76,2.57,4.62,1.9,6.33s-4,3.87-5.71,3.54a58.64,58.64,0,0,1-14.37-4.95c-1.45-.71-2.69-4.05-2.25-5.72C1099.15,683.8,1101.65,682.39,1103.35,680.7Z" transform="translate(-466.11 -89.94)"/><path class="cls-1" d="M962.91,662.89c1.76,0,3.88-.61,5.19.14,2.2,1.26,5.37,3.39,5.38,5.17,0,2-2.66,5.34-4.74,5.86-3.85,1-8.15.57-12.22.22-3.55-.31-6.25-2.62-5-6.19.71-2.11,3.41-3.93,5.65-5.05C958.68,662.26,961,662.89,962.91,662.89Z" transform="translate(-466.11 -89.94)"/></svg>