<svg id="Capa_1" data-name="Capa 1" xmlns="http://www.w3.org/2000/svg" viewBox="0 0 276.33 335.7"><defs><style>.cls-1{fill:#989898;}.cls-2{fill:#7d7e7e;}.cls-3{fill:#8c8c8d;}.cls-4{fill:#8f8f90;}.cls-5{fill:#0e0f11;}.cls-6{fill:#242525;}.cls-7{fill:#545555;}.cls-8{fill:#939393;}.cls-9{fill:#6c6c6c;}.cls-10{fill:#282929;}.cls-11{fill:#818181;}.cls-12{fill:#757575;}.cls-13{fill:#494949;}.cls-14{fill:#131515;}.cls-15{fill:#505151;}.cls-16{fill:#787878;}.cls-17{fill:#444546;}.cls-18{fill:#2e2e2e;}.cls-19{fill:#3d3e3e;}.cls-20{fill:#606060;}.cls-21{fill:#1d1d1d;}.cls-22{fill:#676767;}.cls-23{fill:#6f6f6f;}.cls-24{fill:#191919;}.cls-25{fill:#030303;}.cls-26{fill:#0f1011;}.cls-27{fill:#0c0d0d;}.cls-28{fill:#111213;}.cls-29{fill:#888988;}.cls-30{fill:#0b0c0e;}</style></defs><path class="cls-1" d="M1010.44,419.1l3.87,6.24,6.32,10.33.42,4.69-4.68-3c0,4.55-.47,8,.13,11.31.67,3.69,2.3,7.22,3.52,10.82-.19,1.34-.37,2.69-.55,4l-.68.9L1017.2,467l2.16,1.2.91.41-.06,3.61-2.77.7-3.23,1.53-2,3.05-2.2,2.9c-4.8,6-4.78,6.25,1.19,11.55l14,8.57-.81,2.78c-2,3.51-.05,9.5,3.73,11.63,3.35,1.89,7.67-.29,10.31-5.18l8.24,5.31.06.32-1.7,2.52,3.82,1.14q-.9,3.75-1.78,7.51l-7.75,5.06,0,0c-4-.64-6.6,1.11-8.16,4.69-.07,2.4-.13,4.8-.2,7.21l-.83.87-3.29-.08-.29-1.18,2.18-2.55-1.36-1-2.36,3-1.35,20.29-4.41,6-8.83-2.11-.71-.83a31.41,31.41,0,0,0-.53-5.42c-.21-.82-1.39-1.39-2.14-2.07a12.21,12.21,0,0,0-2.32,4.28l-.57-1.4-7.85,2.29c-.34,2.68-.69,5.35-1.05,8.14-8.8-7.67-15.91-10.37-19.79-8.57L987,573.26l-2.74,1c-1.12-.26-2.73-.15-3.26-.85-3.94-5.17-10.06-6-15.47-6.46-7-.63-14.16,2.62-21.31-.1-.43-.17-1.15.47-1.76.67-4.12,1.42-8.24,2.81-12.37,4.21-.24-1.42-.47-2.85-.76-4.56l8.07-3.3-8.23-4.36q-1-2.91-2-5.84l-5-.29c.78-3.21-1.35-2.94-3.17-2.4-3.27,1-6.45,2.24-9.67,3.38,1.59-5,3.19-10.1,4.93-15.63l-7.14,4.43.82.52-1.72,3.8-8.11,2.92-3.85.74a2,2,0,0,0-.07-.73l.69-2.15,6.16-9.63-8.77,3.6-2,0c0-.25,0-.5,0-.76-1.25-3.66-2.42-7.35-3.88-10.93-.17-.41-2.3-.59-3-.11a32.69,32.69,0,0,0-4.14,4l-2.08,1.91-3.83-2.83,4.17-3.09c4-3.74,8-7.45,12-11.23.43-.41.51-1.19.76-1.8l3.29-1.29-1.91-2.29-1.38,3.58L887,512l.87-1.71,2.16-.5-.77-1.34,2.22-6.9c1.3-1,3.09-1.65,3.81-2.94a65.42,65.42,0,0,0,3.23-8.08c3.88-.77,4.83-3.58,4.86-7l2.88-.06c0,.71,0,1.42,0,2.12l1.14-.46-1.15-1.66,7-6,2,0,1.25.85-1.23-1.9c0-.33,0-.65,0-1l11-3.56c-2.06-1.36-3.53-2.32-5-3.27l5.41.53,2.18,0,.41-.19.43.16,10.58-1.74,1.4-1.76,5.54-.4c4.15.41,4-1.92,3-4.78-.34-1.37-.68-2.75-1-4.12.07-.52.13-1,.19-1.57l9.37-2.63,2.64,1.34c-1.08,1.63-2.15,3.27-3.23,4.91l-1.78,2.11-.18,4.9,0,0-1.33.93,1.25,1,7.21-1.68,1.92-.29,6.12.46c2.4.82,5,2,4.83-2.38l3-3c.63,4.58,5.76,8,9.82,6.84q-.87-3.23-1.74-6.42l2.11-2.51,4.92-4.91,2.89.24c.28,3.53.56,7.05.89,11.08,9.63-4.41,9.05-22-2.71-27.49l-1-1-2-2-4.94-3.73-8.15-4.2v.06l-1-1.08-8.73-6.05-.11-.19q-3.11-9.4-6.2-18.79-.63-2.75-1.28-5.49c.23-2.27,1-4.63.57-6.77-.55-3-2-5.76-3-8.63l-.66-11.15,1.88-.31,8.64,18.41,0,1q0,3.51,0,7l.82.84.26-.78,0,.13q1.88-5.62,3.73-11.24c.43-1.3.79-2.62,1.18-3.93l2,3.31c1.2-2.62,2-4.41,2.57-5.59.43,7.17.89,14.72,1.35,22.27q1.68,4.4,3.35,8.77l7.71-3.79,1.06-3c3,.29,3.09,2,1.82,4.08-.92,1.53-2.6,2.7-3.16,4.3-.46,1.31.23,3,.41,4.54l2.61.46.62,1.31c-1,1.92-5.75,0-4.33,4.31l1,2h0c1.7,5,4.68,8.73,10,10.07,4,2.71,4.75,2.59,6.14-1l-3.12-3.15v-3.85l4.16-4.75Zm-16.21,12.34v0q-2.46-3.91-4.91-7.85l-1.26.91C988.49,428.14,990.91,430.16,994.23,431.44Zm16.44,88.41-6.53-5.11-6.87-5.55c-3.11-1.44-6.17-3-9.36-4.28-2.32-.91-4.81-1.37-8.33-2.33l-9.27,10.95-.89,2.86,2.27,6c-.8,5.22-.75,10.18,4.26,13.57l6.86,3.58a9.59,9.59,0,0,0,1.83,1.57c9.59,4.67,18.2,1,26.55-3.49,1.63-.88,2.43-3.32,3.61-5.05,1.72-8.29,1.38-9.38-4-12.47Zm-42.33,24.9c2.51-2.58,2.21-5.31.45-8.12-3.43-5.52-6.52-11.3-10.51-16.38-1.21-1.55-5.6-2.39-7.33-1.41-7.11,4-12.91,9.58-15.69,17.64-.22,1.2-1,2.58-.59,3.57,1.17,3.26,3.44,6.44,7.07,5.66,2.74-.59,5-3.37,7.48-5.17l3.36-4c.95,1.72,1.81,3.27,2.68,4.82-.17,4.49,3.51,5.78,6.52,6.28C963.75,548,966.14,545.81,968.34,544.75Zm-57-13.93h2.79l.6,4.68,3.55-1,1.84-1.28,3.12-.79,5-3.73c2.62-.65,5.85,3.35,7.83-.53,1.72-3.34,3.76-7.25,3.5-10.75-.75-10.11-10.41-14.3-19.32-10.55-.62-.56-1.75-1.62-1.77-1.59-2.18,2.24-4.26,4.57-6.36,6.9l-8.91,8.67c-1.4,1.37-2.91,2.64-4.18,4.12-2.12,2.48-3.22,5.07.16,7.5,5.12,5.2,5.71-1.68,8.31-3.14ZM1005.47,469l.24,1.09c2-1.6,4.48-2.83,5.78-4.86,2.43-3.77,2.07-8.1.69-10.19Zm-59.72,7.36-1.48-2.14-9.54,7.49,1,1.36ZM915.62,498l-1-1.17-5.77,5.05,1.17,1.29Zm3.11-3.87,1.47,1.28,3.71-4.23L922.47,490Zm114.92,26.77-.92-.78-1.1,1.89.65.46ZM932.56,485.07l-.56-.82a7.52,7.52,0,0,0-1,.76s.35.66.43.63A6.31,6.31,0,0,0,932.56,485.07Zm38.32-87.86h-.43v2.14h.43Z" transform="translate(-817.04 -368)"/><path class="cls-2" d="M1029.09,581.06l-4.78,9.33-1.3,1.09q-3.46,7.31-6.92,14.63c-.05.1.11.3.17.45l0,0-3.09,2.34c-.34,2.2-.67,4.41-1,6.61l-2.94,2.37-2,1.65a.83.83,0,0,0-.3.59c-2.2,2.46-5.15,4.68-2.8,8.61l-1.08.84-5.66-4.06-.45,0,.32-1,3.66-5.65c1.78-1.55,1.72-2.71-.71-3.36,1.78-2.45,3.65-4.84,5.32-7.37,1.11-1.69,2-3.56,2.91-5.36l2.12-3.1c1.45-1.51,3.23-2.83,4.3-4.58q6.09-9.9,11.79-20.06c3.61-6.43,7-13,10.49-19.48l.47-2.13.93-.79,2.66-2.16q6.15-11.41,12.32-22.82c.38-.58.76-1.16,1.13-1.75l9.35-13.57,2.2-4.86,3.26.24q-1.59,4.42-3.19,8.87c-.28.57-.57,1.14-.86,1.71l-6.14,10.29a1.61,1.61,0,0,1-.28.82c-.64.93-1.29,1.85-1.94,2.78l-.36,1.16-6.47,11.17a1.72,1.72,0,0,1-.43.85l-5.77,9.79-.08.2-3.68,6.23a1.83,1.83,0,0,1-.55.77l-1.59,3-.42,1-6.62,10.9c-.15.37-.3.74-.44,1.11Z" transform="translate(-817.04 -368)"/><path class="cls-3" d="M905.1,622.19l-2-3.62q-2.17-3.65-4.37-7.29l-.45-.9c-.49-.73-1-1.47-1.46-2.21-.13-.33-.27-.65-.4-1-.58-1-1.17-2-1.76-3l-.26-1c0-.6-.07-1.21-.11-1.81l.9-2,2.17-.16,2.71,4.34,1.52,2.19L907.92,617l2.34,2.79,2.14,5.37c1.62,3.54,3.15,7.13,5,10.57.26.49,1.92.25,2.93.34l7.94-2.46-.41,1.95,4.21,5.06,1.33,5.87a46.62,46.62,0,0,0,4,3.48,29.82,29.82,0,0,0,4,2.06c-.16.54-.33,1.07-.5,1.61l-9.68-.62c-.94-.88-1.88-1.76-2.81-2.65l-.76-.22.07.8q1.53,2.44,3.08,4.89l2.4,4.76c.35.82.69,1.63,1,2.45a11.42,11.42,0,0,0,.76,3.33c5.69,9.88,11.37,19.77,17.32,29.5,1,1.62,3.28,2.46,5,3.66l.47,3.69a.33.33,0,0,1-.12.47H952.9l-.18-.42-4.2-6.78-1.95-1.65-.33-2.34q-5.07-8.55-10.16-17.09l-.66-1.38a30.9,30.9,0,0,0-1.8-5.11c-6.24-11.09-12.5-22.17-19-33.15-2.13-3.62-4.83-6.9-7.27-10.34l-.18.09Z" transform="translate(-817.04 -368)"/><path class="cls-3" d="M1069.49,507.72l-3.26-.24,4.39-9.12,2-2.72,7.71-13,.05-.05,3.63-6.36a2,2,0,0,1,.25-.71l2-2.07-1.1-1.1a1.28,1.28,0,0,0-.68.69l-29.9.47-1.37.36.09-1.29-4-.21-12.32.46-11.73-.21-4.18.05-.92-.47.06-3.61-1.57-1.16-1.5-.45,1.59-2.55c1.1.89,2.18,2.5,3.32,2.55,6.69.3,13.4.23,20.1.29l3-.13,2.93.17,7.38-.24,1.59.08,4.09-.19,9.94-.27,1,.34.93,1c4.41.48,8.82,1.06,13.24,1.4,2.36.17,4.72,0,5,3.21l-1.83,2.81a.92.92,0,0,0-.43.78l-2.16,4.15-1.68,2.18c0,.64,0,1.28-.07,1.93l-.72.73-1.43,2-2.73,5c-.4.7-.81,1.4-1.22,2.1l-.6.91c-.44.73-.89,1.45-1.34,2.17l-2.18,3.95Z" transform="translate(-817.04 -368)"/><path class="cls-4" d="M913.21,477.48l-7,6h0l-2.88.06-4.11-1.06,2-6c3.78-1.31,1.77-2.65,0-4h-6l-3,1-11.94-4.86,5.88-.2,3.06.06c2,0,4,0,6,.05,4.37.14,8.8.52,11.1-4.47,5.31-2.55,5.22-3.56-.82-8.72l-.09-.06-.67-3.05,3.83-9.19,11.81,16.35c-1.76,2.38-3.52,4.76-5.5,7.42l6.36,1.86c1.46.95,2.93,1.91,5,3.27l-11,3.56Zm-3-4.81c-.32-.39-.56-.83-.69-.8a4.81,4.81,0,0,0-1.15.54c.18.23.38.65.56.64A4.55,4.55,0,0,0,910.22,472.67Z" transform="translate(-817.04 -368)"/><path class="cls-5" d="M890.25,542.3l2,0c-.33,2.53-2.48,5.84,2.61,6l-.69,2.15-.92.92a52.2,52.2,0,0,1-.65,7.43c-.52,2.32-1,5.36-2.69,6.53-2.51,1.78-6,2.24-9,3.26l-5.21,2.06-4.39-6.33c5.19-1.68,2.48-4.31.81-6.82l-2-4-.95-6a37.68,37.68,0,0,0,3.49,1.44,12.32,12.32,0,0,0,2.52.29l-1-2.75,10-6,5.14,1Z" transform="translate(-817.04 -368)"/><path class="cls-1" d="M997.42,625.49l5.66,4.06c0,1.9.86,4.87,0,5.5-3.76,2.74-3.71,6.83-4.77,10.56l-9,14.15a6.85,6.85,0,0,1-.78.07l-.85-.78a34.84,34.84,0,0,0,3.06-5.48c.57-1.57.37-3.41.51-5.13l-1.85-2.35c-.59,1.68-1.17,3.35-1.76,5-.44.82-.87,1.64-1.31,2.45h-5.14c-.33.67-.67,1.33-1,2l0-.08-4.05,3-1.06,1,0-.15-5.91,2.18,0-3a4.13,4.13,0,0,1,.16-.92l5.93-4,2-2.67,1-.34.92-.61,1.78-3.48c5.29-3.58,12.09-6,11.33-14.33l-.14-1.77,3.06-2.9,2-1Z" transform="translate(-817.04 -368)"/><path class="cls-3" d="M828,489.7a.62.62,0,0,0-.33-.54c-.51-1.54-1-3.07-1.54-4.61l-5.7-10.21c-2.42-5.17-2.08-5.89,3.23-5.93q17-.12,34,0a24.08,24.08,0,0,1,4.81,1L862.4,471c-1.81.23-3.61.55-5.42.68-5.58.39-11.17.71-16.75,1.06L826.1,473c-.2,1.15-.93,2.57-.51,3.4,3.16,6.19,6.44,12.33,9.93,18.34.94,1.6,2.76,2.69,4.17,4l.63,1.63,0,2.08-3,1.71-1.16-.66-1.52-2.57-3.12-5.66Z" transform="translate(-817.04 -368)"/><path class="cls-6" d="M1042.21,467.27c-6.7-.06-13.41,0-20.1-.29-1.14-.05-2.22-1.66-3.32-2.55l.68-.9c4.46,0,8.17-1.31,9.72-6q1.51-3,3-6l8.06-2.09.92.12c.22,2.17.43,4.35.8,8l4.22-5.16,3,.22.06,3.84a18.08,18.08,0,0,0-2.74,2.72c-3.76,5.65-4.41,5.75-8.72.23l-2.67,4.09Z" transform="translate(-817.04 -368)"/><path class="cls-7" d="M840.23,472.7c5.58-.35,11.17-.67,16.75-1.06,1.81-.13,3.61-.45,5.42-.68l.07-1.55a24.08,24.08,0,0,0-4.81-1q-17-.12-34,0c-5.31,0-5.65.76-3.24,5.93l-1.38,1.17c-.39-.89-.86-1.75-1.17-2.67-1.76-5.19-1.06-6.29,4.34-6.3,18-.05,36,0,54,0l6.9-1,3,0,0,0,0,2.87-5.88.19-4,.61-10.6-.66,0,2.15c3.43,1.73,7,1.29,10.56-.12,0,1.22-.08,2.45-.11,3.68l-1.26.52c-2-.5-4-1.38-6-1.45C859.32,473,849.77,472.88,840.23,472.7Z" transform="translate(-817.04 -368)"/><path class="cls-6" d="M1007,620.09a.83.83,0,0,1,.3-.58l2-1.65,2.94-2.37,13.06-11,3.32,3.9-2.7,3.51,3.44,2.59a27.76,27.76,0,0,1-2.55,4.61c-.85,1-2.27,1.64-3.43,2.44-2.93-4.41-5.64-1.77-8.38.24-2.5,1.15-7,1.07-3.55,5.85-1.17.88-2.36,1.73-3.49,2.65-2.39,2-2.65.13-3-1.63C1007.56,626.27,1009,623.6,1007,620.09Z" transform="translate(-817.04 -368)"/><path class="cls-2" d="M876.5,454.66c-.45-1.31-.63-2.8-1.4-3.89a38.6,38.6,0,0,0-4-4.23c2.49-3.89,5.65-.41,8.46-.77,2.61,1.9,5.51,3.53,7.71,5.82,1.3,1.35,1.5,3.76,2.19,5.69.32,1.62.65,3.24,1,4.86l-.24,1.32-5-1h-3.91Z" transform="translate(-817.04 -368)"/><path class="cls-8" d="M986.47,662.78,971,681.47l-2.73,1.09-3.2.06-2.69.81-7-1.76L969,673.31l2.18-1.79,2.21-3.86,1.4-.52.88,1.24,6.52-4.84Z" transform="translate(-817.04 -368)"/><path class="cls-8" d="M961.36,453.52l-2.64-1.34c.57-1.48,1.13-2.95,1.7-4.42l17.78,2.62,1,3.08-1.44,1.64.8.46.64-2.1h2.07q-.93,3.43-1.87,6.89l-.26.16-3,3-2.81-1-3.06-4.95-4.15.06a5.49,5.49,0,0,1-.81,0Z" transform="translate(-817.04 -368)"/><path class="cls-9" d="M1005,628.67c.31,1.76.57,3.58,3,1.63,1.13-.92,2.32-1.77,3.49-2.65l3.85,3.89c0,.32,0,.65,0,1l1.72.3-.6,2c-2.19,1.82-6.44,2.11-5,6.66l-.17,1-4.22,2.83-4.75,3.27-4-3c1.06-3.73,1-7.82,4.77-10.56.88-.63.06-3.6,0-5.5l1.08-.84Z" transform="translate(-817.04 -368)"/><path class="cls-10" d="M1048.18,467.31l-2.93-.17,6-10.67-.12-4.13,2.07-.94h2.11l1.92,0,2,.05c0,.33,0,.65,0,1l-1,3.78,3.93.32,4-.08c2.1,4.67-.09,6.18-4.47,6.08-4.19-1.13-4.19,1.94-4.61,4.6l-1.59-.09-5.58-3.72Z" transform="translate(-817.04 -368)"/><path class="cls-7" d="M921.21,468.64l-6.36-1.86c2-2.66,3.74-5,5.5-7.42l15.95-1.71-1.09,1.81-2.39.55.39,6.35-3.57,2.81-.43-.15-.41.19-2.18,0Z" transform="translate(-817.04 -368)"/><path class="cls-11" d="M837.34,504.15l3-1.71,1.53.19a5.87,5.87,0,0,1,.36.81l1.64,2.24a6.07,6.07,0,0,1,.32.8l3.66,6.21,2.47,4.67,1.59,2.31,2.27,3.82,1.39,2.31.75,1.56c-.15,3.56,4,6.84.71,10.61L855,535.68l-1.58-2.32v0l-1.3-2.29-.85-2.55-3.69-6.06a1.43,1.43,0,0,1-.35-.88l-4.48-7.15c-.6-1.12-1.2-2.23-1.81-3.34l-2.19-3.67Z" transform="translate(-817.04 -368)"/><path class="cls-12" d="M907.4,625.42c2.44,3.44,5.14,6.72,7.27,10.34,6.45,11,12.71,22.06,19,33.15a30.9,30.9,0,0,1,1.8,5.11c-4.24-6.83-8.56-13.61-12.68-20.52-4.55-7.64-9-15.39-13.34-23.14A41.13,41.13,0,0,1,907.4,625.42Z" transform="translate(-817.04 -368)"/><path class="cls-12" d="M875.71,570.63l5.21-2.06,6.75,12.68-1.42,2.25-1.24.65-2.74-.69-1-1.36-1.7-2.59-2-2.92Z" transform="translate(-817.04 -368)"/><path class="cls-13" d="M857.05,538c3.26-3.77-.86-7.05-.71-10.61a40.46,40.46,0,0,1,3.14,4.31c1.35,2.47,3.18,3.09,5.69,2l1,10-5,3.75L857,539.5a1.3,1.3,0,0,0-.32-.78A1.32,1.32,0,0,1,857.05,538Z" transform="translate(-817.04 -368)"/><path class="cls-14" d="M1029.31,614.51l-3.44-2.59,2.7-3.51-3.32-3.9,1-2,1-.92,1-1,1,.89c1.46,1,3.78,1.73,4.2,3,.76,2.41,2.25,5.44-.94,7.59C1031.38,612.86,1030.36,613.71,1029.31,614.51Z" transform="translate(-817.04 -368)"/><path class="cls-15" d="M905.47,455.31c6,5.16,6.13,6.17.82,8.72l-6.08-2.65-2.86-1.85-.39-1.38-1.54-5L896.8,452l7.35,6.89Z" transform="translate(-817.04 -368)"/><path class="cls-16" d="M935.21,459.46l1.09-1.81,11.9-3.22,1.15.38c-.06.53-.12,1.05-.19,1.57-.66,1.38-1.33,2.75-2,4.13,0,1.59,0,3.18,0,4.77l-5.54.4Zm8.61,1.5-.64.52a4.23,4.23,0,0,0,.69.44c.07,0,.36-.21.35-.24A7.28,7.28,0,0,0,943.82,461Z" transform="translate(-817.04 -368)"/><path class="cls-17" d="M861.17,547.42l5-3.75,2.58-.21h2.79l2.68,3.06,1,2.75a12.32,12.32,0,0,1-2.52-.29,37.68,37.68,0,0,1-3.49-1.44c-4,2.67-.86,4.22.95,6l2,4-2,1.25L864.39,553c0-.53,0-1,0-1.58l-2.22-1.91-1.75-1.06Z" transform="translate(-817.04 -368)"/><path class="cls-18" d="M1029.21,601.49l-1-.89,2.24-4.36-.93-.6-3.32,2.51c1.07-3.26-.19-5.39-3.22-6.67l1.3-1.09a17.17,17.17,0,0,1,4.3-1c1.81,0,5,.32,5.17,1.05a12,12,0,0,1-.68,6.7C1032.4,598.83,1030.55,600.06,1029.21,601.49Z" transform="translate(-817.04 -368)"/><path class="cls-15" d="M1010.44,419.1l-1,.69c-3.66-2.57-4.46-2.06-6.12,3.92-4.9-.15-6.27-3.9-7.73-7.56l-.62-1.31,13.32,1.31.82-1.5Z" transform="translate(-817.04 -368)"/><path class="cls-19" d="M994.28,453.51l-4.92,4.9-3.09-3v.08l-1-2,.1,0-.21-1.88,1.91-1-2.83-1.11,0,0c.15-2,.31-4,.46-6Z" transform="translate(-817.04 -368)"/><path class="cls-20" d="M994.28,453.51l-9.57-10-3.54-5,2.91-1.87.59-.17,10.49,10.86,2,6.44Z" transform="translate(-817.04 -368)"/><path class="cls-18" d="M986.47,662.78l-4.24.76q2-5,4.1-10c.44-.81.87-1.63,1.31-2.45l3.61-2.67c-.14,1.72.06,3.56-.51,5.13a35.38,35.38,0,0,1-3.06,5.49l.15,1.07.7-.3a6.85,6.85,0,0,0,.78-.07l-1.82,2.85-.85-.93-.31,1Z" transform="translate(-817.04 -368)"/><path class="cls-18" d="M876.5,454.66l4.78,7.78,1.85,3.1-6.9,1c-.86-1.57-1.77-3.12-2.58-4.72C871.94,458.38,872.18,455.69,876.5,454.66Z" transform="translate(-817.04 -368)"/><path class="cls-21" d="M1061.76,462.56c4.38.1,6.57-1.41,4.47-6.08,3.67-1.81,4.76,0,4.81,3.37,0,2.28.09,4.56.14,6.84l-9.94.27C1061.42,465.49,1061.59,464,1061.76,462.56Z" transform="translate(-817.04 -368)"/><path class="cls-7" d="M992.21,404.43l-7.71,3.79q-1.68-4.38-3.35-8.77l4.32-.68-.65,1.08Z" transform="translate(-817.04 -368)"/><path class="cls-15" d="M879.58,445.77c-2.81.36-6-3.12-8.46.77-.34-1.75-1.38-3.79-.8-5.15.42-1,3-1.42,4.57-1.46a30.56,30.56,0,0,1,5.86,1Z" transform="translate(-817.04 -368)"/><path class="cls-22" d="M1091.39,472.62c-.28-3.24-2.64-3-5-3.21-4.42-.34-8.83-.92-13.24-1.4l1.09-1.56c4.79.06,9.59.32,14.37.13,3.72-.15,5.22,1.27,4.65,4.91Z" transform="translate(-817.04 -368)"/><path class="cls-2" d="M984.08,436.62l-2.91,1.87a6.45,6.45,0,0,1-.92-1.65c-1.57-7.09-5.92-12.45-10.77-17.51l8.73,6.05,1,1.08v-.06l4,7,1,2.43A1.75,1.75,0,0,0,984.08,436.62Z" transform="translate(-817.04 -368)"/><path class="cls-15" d="M1015.25,631.54l-3.85-3.89c-3.48-4.78,1.05-4.7,3.55-5.85.84,3.53,3.5,3.08,6.09,2.79l1,1.81-2.5,1.75c-.7,1.18-1.4,2.36-2.11,3.54a3,3,0,0,1-.91.32Z" transform="translate(-817.04 -368)"/><path class="cls-23" d="M959.44,379.46c1,2.87,2.47,5.67,3,8.63.4,2.14-.34,4.5-.57,6.77C957.62,390.4,956.69,384.56,959.44,379.46Z" transform="translate(-817.04 -368)"/><path class="cls-9" d="M1024,426.57a15,15,0,0,1-.53,3.6c-.79,1.91-1.89,3.68-2.86,5.5l-6.32-10.33Z" transform="translate(-817.04 -368)"/><path class="cls-16" d="M992.34,414.38c-.18-1.53-.87-3.23-.41-4.54.56-1.6,2.24-2.77,3.16-4.3,1.27-2.07,1.17-3.79-1.82-4.08a.48.48,0,0,1-.36-.54l-1.13-2.58-.24-4.79,3.15,3c3.81,4.56,3.56,8.77-.66,13.05C993,410.69,992.87,412.76,992.34,414.38Z" transform="translate(-817.04 -368)"/><path class="cls-15" d="M885,584.15l1.24-.65,3.15-.1q1.2,2.19,2.41,4.38c.16.88.31,1.75.47,2.63l1.07,4.65-.12,1.43-5.47-4.13-3-4.53C884.87,586.6,884.94,585.37,885,584.15Z" transform="translate(-817.04 -368)"/><path class="cls-11" d="M985.13,451.56l.21,1.88-4,0h-2.07l-1-3.08-3.07-10.87c4.14,1.9,6.79,5,7.14,9.91l1.57,1.28Z" transform="translate(-817.04 -368)"/><path class="cls-2" d="M963.17,400.35q3.11,9.39,6.2,18.79a96.72,96.72,0,0,1-5.56-8,23.47,23.47,0,0,1-2.6-7.23C961,402.84,962.47,401.53,963.17,400.35Z" transform="translate(-817.04 -368)"/><path class="cls-18" d="M975.21,379.46c-.39,1.31-.75,2.63-1.18,3.93q-1.85,5.63-3.73,11.24c-.35-2.4-.69-4.8-1-7.2l0-1c1.24-2.78,2.47-5.57,4-8.93Z" transform="translate(-817.04 -368)"/><path class="cls-13" d="M949.35,454.81l-1.15-.38c2.26-5.53,7.4-5.81,12.22-6.67-.57,1.47-1.13,2.94-1.7,4.42Z" transform="translate(-817.04 -368)"/><path class="cls-12" d="M936.08,675.4q5.08,8.54,10.16,17.09Q941.17,683.94,936.08,675.4Z" transform="translate(-817.04 -368)"/><path class="cls-19" d="M897,458.15l.39,1.38c-2.12,1,1.39,5.51-3.14,5l-3.75-2.35c-.33-1.62-.66-3.24-1-4.86Z" transform="translate(-817.04 -368)"/><path class="cls-20" d="M1069.49,507.72l5.51-6.39-8.7,15.26Z" transform="translate(-817.04 -368)"/><path class="cls-18" d="M1021,624.59c-2.59.29-5.25.74-6.09-2.79,2.74-2,5.45-4.65,8.38-.24l-.18,2Z" transform="translate(-817.04 -368)"/><path class="cls-16" d="M968.28,682.56l2.73-1.09-6.84,12.94-1-.13Q965.71,688.42,968.28,682.56Z" transform="translate(-817.04 -368)"/><path class="cls-6" d="M1011.38,641.5c-1.47-4.55,2.78-4.84,5-6.66C1017.52,640.67,1017.35,640.9,1011.38,641.5Z" transform="translate(-817.04 -368)"/><path class="cls-6" d="M1007,645.31l4.22-2.83.12,6.88-2.08,1.15-3.12-.1,1.83-2.86.22-1Z" transform="translate(-817.04 -368)"/><path class="cls-5" d="M864.39,553l5.75,5.74c.36,1.59.71,3.17,1.07,4.76C867.19,561.12,864.71,557.75,864.39,553Z" transform="translate(-817.04 -368)"/><path class="cls-20" d="M1050.25,544.52l6.47-11.17Z" transform="translate(-817.04 -368)"/><path class="cls-9" d="M819.07,475.51l1.38-1.17q2.87,5.1,5.71,10.21l-1.07.16Q822.09,480.11,819.07,475.51Z" transform="translate(-817.04 -368)"/><path class="cls-20" d="M1059.3,528.59l6.14-10.29Z" transform="translate(-817.04 -368)"/><path class="cls-21" d="M1062.21,456.56l-3.93-.32,1-3.78Z" transform="translate(-817.04 -368)"/><path class="cls-18" d="M871.21,563.49c-.36-1.59-.71-3.17-1.07-4.76l2-1.25c1.67,2.51,4.38,5.14-.81,6.82A5.63,5.63,0,0,0,871.21,563.49Z" transform="translate(-817.04 -368)"/><path class="cls-24" d="M1046.24,452.31l-4.22,5.16c-.37-3.64-.58-5.82-.8-8Z" transform="translate(-817.04 -368)"/><path class="cls-19" d="M887.76,592.36l5.47,4.13c-.19,1.33-.39,2.66-.58,4l-.72.1Z" transform="translate(-817.04 -368)"/><path class="cls-19" d="M1008,647.55l-1.83,2.86-3.89-1.83,4.75-3.27,1.19,1.19C1008.1,646.85,1008,647.2,1008,647.55Z" transform="translate(-817.04 -368)"/><path class="cls-15" d="M898.78,611.28q2.19,3.65,4.37,7.29Q901,614.92,898.78,611.28Z" transform="translate(-817.04 -368)"/><path class="cls-9" d="M842.7,514.39l4.48,7.15Z" transform="translate(-817.04 -368)"/><path class="cls-16" d="M962.12,698.34c-1.48,1.63-3,3.26-4.43,4.88-.15-1.23-.3-2.46-.46-3.69h0l4.57-3.08.57,1.09A1.13,1.13,0,0,0,962.12,698.34Z" transform="translate(-817.04 -368)"/><path class="cls-16" d="M952.72,703.26l-3.75-4-.89-1.73.44-1.07Z" transform="translate(-817.04 -368)"/><path class="cls-9" d="M847.53,522.42l3.69,6.06Z" transform="translate(-817.04 -368)"/><path class="cls-20" d="M994.69,396.55l-3.15-3,2.19-1.88Z" transform="translate(-817.04 -368)"/><path class="cls-19" d="M882.2,585.5c0-.68,0-1.36.07-2l2.74.69c-.07,1.22-.14,2.45-.22,3.68Z" transform="translate(-817.04 -368)"/><path class="cls-18" d="M828,489.7l3.51,5.56Z" transform="translate(-817.04 -368)"/><path class="cls-21" d="M1051.11,452.34l.12,4.13-2-.1-.06-3.84Z" transform="translate(-817.04 -368)"/><path class="cls-18" d="M825.09,484.71l1.07-.16c.51,1.54,1,3.07,1.54,4.61Z" transform="translate(-817.04 -368)"/><path class="cls-18" d="M1017.43,631.69c.71-1.18,1.41-2.36,2.11-3.54l.69,1.3,0,1-.26,0-.26,0-1.79,1.13-.25.08Z" transform="translate(-817.04 -368)"/><path class="cls-9" d="M838.7,507.38l2.19,3.67Z" transform="translate(-817.04 -368)"/><path class="cls-6" d="M1021,624.59l2.11-1.07L1022,626.4C1021.7,625.8,1021.37,625.19,1021,624.59Z" transform="translate(-817.04 -368)"/><path class="cls-20" d="M1029.09,581.06l1.58-2.7Z" transform="translate(-817.04 -368)"/><path class="cls-20" d="M1038.15,565.35l1.59-3Z" transform="translate(-817.04 -368)"/><path class="cls-15" d="M894.71,604.23c.59,1,1.18,2,1.76,3C895.89,606.2,895.3,605.21,894.71,604.23Z" transform="translate(-817.04 -368)"/><path class="cls-21" d="M1055.29,451.41h-2.11l1.06-1.83Z" transform="translate(-817.04 -368)"/><path class="cls-20" d="M1057.08,532.19c.65-.93,1.3-1.85,1.94-2.78C1058.38,530.34,1057.73,531.26,1057.08,532.19Z" transform="translate(-817.04 -368)"/><path class="cls-15" d="M904.71,452.2l.67,3.05Z" transform="translate(-817.04 -368)"/><path class="cls-15" d="M894.34,601.41c0,.6.08,1.21.11,1.81l-2.52-2.65.71-.1Z" transform="translate(-817.04 -368)"/><path class="cls-19" d="M1009.25,650.51l2.08-1.15,1-.11c-.06.4-.11.8-.16,1.21Z" transform="translate(-817.04 -368)"/><path class="cls-18" d="M862.23,550.43c0-.31,0-.62,0-.93l2.22,1.91Z" transform="translate(-817.04 -368)"/><path class="cls-21" d="M962.36,697.55l-.57-1.09,1.35-2.18,1,.13Z" transform="translate(-817.04 -368)"/><path class="cls-5" d="M877.6,576.59l2,2.92Z" transform="translate(-817.04 -368)"/><path class="cls-21" d="M1059.19,451.49l-2-.05Z" transform="translate(-817.04 -368)"/><path class="cls-18" d="M834.66,500.92l1.52,2.57Z" transform="translate(-817.04 -368)"/><path class="cls-20" d="M1077.18,497.38c.45-.72.9-1.44,1.34-2.17C1078.08,495.94,1077.63,496.66,1077.18,497.38Z" transform="translate(-817.04 -368)"/><path class="cls-20" d="M1079.12,494.3c.41-.7.82-1.4,1.22-2.1C1079.94,492.9,1079.53,493.6,1079.12,494.3Z" transform="translate(-817.04 -368)"/><path class="cls-20" d="M1083.07,487.21l1.43-2Z" transform="translate(-817.04 -368)"/><path class="cls-17" d="M1074.24,466.45l-1.09,1.56-.93-1Z" transform="translate(-817.04 -368)"/><path class="cls-17" d="M853.38,533.36l1.58,2.32Z" transform="translate(-817.04 -368)"/><path class="cls-17" d="M852.07,531l1.3,2.29Z" transform="translate(-817.04 -368)"/><path class="cls-20" d="M991.78,398.34l1.13,2.58Z" transform="translate(-817.04 -368)"/><path class="cls-6" d="M1012.17,650.46c.05-.41.1-.81.16-1.21l1.08.24Z" transform="translate(-817.04 -368)"/><path class="cls-15" d="M896.87,608.17c.48.74,1,1.48,1.46,2.21C897.84,609.65,897.35,608.91,896.87,608.17Z" transform="translate(-817.04 -368)"/><path class="cls-21" d="M948.52,696.48l-.44,1.07-1.51-2.72Z" transform="translate(-817.04 -368)"/><path class="cls-19" d="M983.84,450.7l-1.57-1.28,2,.06,0,0C984.09,449.86,984,450.28,983.84,450.7Z" transform="translate(-817.04 -368)"/><path class="cls-8" d="M986.33,662.65l.31-1,.85.93Z" transform="translate(-817.04 -368)"/><path class="cls-5" d="M856.69,538.72a1.3,1.3,0,0,1,.32.78A1.26,1.26,0,0,1,856.69,538.72Z" transform="translate(-817.04 -368)"/><path class="cls-15" d="M1020.25,630.49l0-1a4.07,4.07,0,0,1,.3.72C1020.55,630.25,1020.35,630.38,1020.25,630.49Z" transform="translate(-817.04 -368)"/><path class="cls-15" d="M1017.94,631.62l1.79-1.13Z" transform="translate(-817.04 -368)"/><path class="cls-18" d="M1015.25,631.54l1.27.47-.15,0-1.14.47C1015.22,632.19,1015.23,631.86,1015.25,631.54Z" transform="translate(-817.04 -368)"/><path class="cls-15" d="M1015.23,632.52l1.14-.47a2.24,2.24,0,0,1,.58.78Z" transform="translate(-817.04 -368)"/><path class="cls-25" d="M891.81,587.78q-1.21-2.19-2.41-4.38l-1.73-2.15-6.75-12.68c3.05-1,6.5-1.48,9-3.26,1.64-1.17,2.17-4.21,2.69-6.53a52.2,52.2,0,0,0,.65-7.43l1-.19,3.85-.74c4.21,4.94-1.79,12.54,4.38,17,.15.11-.18.91-.31,1.37-1.28,4.54.53,6.44,5.3,5.62a20.68,20.68,0,0,1,2.08-.14c-.6,1.68-1.06,3-2,5.58,3.07-.74,5.24-1,7.15-1.79,2.47-1.1,4.62-3,7.12-4a71.19,71.19,0,0,1,8.27-2.33c4.13-1.4,8.25-2.79,12.37-4.21.61-.2,1.33-.84,1.76-.67,7.15,2.72,14.31-.53,21.31.1,5.41.49,11.53,1.29,15.47,6.46.53.7,2.14.59,3.26.85.71,1.27,1.18,2.82,2.19,3.76,2.11,2,4.51,3.6,6.78,5.37l-3,9.09-.08,1.89-1,1.07-.88,0c-1.87-3.08-1.87-3.08-5.12-.32l5.08.36c0,.32,0,.64,0,1q-2.51,6.51-5,13c-4.68.33-3.91,3.85-4,6.86l-1,.13C977.8,616,977.14,615,977,615a69.9,69.9,0,0,0-10.53,5.74c-.36.26,2.11,4.37,3.2,6.73a8.41,8.41,0,0,1,.39,1.91l-2,8.05a19.86,19.86,0,0,0-4,2.27c-2.39,2.19-4.5,4.69-6.82,7s-4.75,4.42-7.13,6.62l-3.84,1.12,3.82,2.91,2.3,1,0,0,.84,3.34-3.21,2.81.57,1.09,15.78-2.93,2.81-1.19,5.91-2.18-1.71,8.38-2.21,3.86L969,673.31l-13.61,8.36,7,1.76c-.49,5.36-4,8.9-7.56,13.78l-20.05-34.45-1.63-2.17-2.4-4.76.42-2.82,9.68.62c.17-.54.34-1.07.5-1.61a29.82,29.82,0,0,1-4-2.06,46.62,46.62,0,0,1-4-3.48,46.79,46.79,0,0,0,5.79-1.19c.18-.06.06-3-.59-3.34-1.66-.9-3.69-1.11-5.59-1.55-.28-.07-.63.13-.94.21l-4.21-5.06.41-1.95-7.94,2.46-7.89-10.91-2.14-5.37,3.56-3.59-.8-.7-5.1,1.5-6.28-11.18-1.52-2.19-2.71-4.34-.93-.82-.34-2.78c1.68-3,3-6.3,5.13-8.88,2.41-2.88,2.43-5.37.8-8.68l-5.23,5Zm24.44,26.7-.13-.12.16.14.07.16ZM937.5,660l-.25,2.43,8.67,1.37.26-2Z" transform="translate(-817.04 -368)"/><path class="cls-26" d="M969.42,516.39l.89-2.86,5.56.82,1.24,5.39c2.48-5.85,10.6-2.2,12-8.59,0-.07.64.05.95,0,2.42-.63,4.83-1.28,7.25-1.93l6.87,5.55-1.83,5.53,8.36-.42.16.22a56.73,56.73,0,0,0,1.28,7.16,32.7,32.7,0,0,0,2.69,5.31c-1.18,1.73-2,4.17-3.61,5.05-8.35,4.46-17,8.16-26.55,3.49a9.59,9.59,0,0,1-1.83-1.57l5.45-4.4-1-1.61L976,535.93c-5-3.39-5.06-8.35-4.26-13.57Z" transform="translate(-817.04 -368)"/><path class="cls-27" d="M930.12,571.75a71.19,71.19,0,0,0-8.27,2.33c-2.5,1-4.65,2.89-7.12,4-1.91.84-4.08,1-7.15,1.79.92-2.59,1.38-3.9,2-5.58a20.68,20.68,0,0,0-2.08.14c-4.77.82-6.58-1.08-5.3-5.62.13-.46.46-1.26.31-1.37-6.17-4.47-.17-12.07-4.38-17l8.11-2.92c.18,2.94.37,5.88.55,8.82l2.56-1.94c3.22-1.14,6.4-2.4,9.67-3.38,1.82-.54,4-.81,3.17,2.4L920.68,555l-2.74,3.15-.05.08-2.45,2.43-.11.07-4.41,4.66.76.86,3.58-2.16,4-2.53,5-1,3-1.14,2,.1,8.23,4.36-8.07,3.3C929.65,568.9,929.88,570.33,930.12,571.75Z" transform="translate(-817.04 -368)"/><path class="cls-27" d="M988.25,595.48l.88,0,1-1.07c0-.63.06-1.26.08-1.89l9-7,1-2,4.32-1.24.76-.82.84-.69c5.83-2.36,10.59-5.91,13.09-11.92l4.41-6,8.74-9.09a4.17,4.17,0,0,1,.79-.1l4,1.93c-3.49,6.5-6.88,13.05-10.49,19.48q-5.7,10.14-11.79,20.06c-1.07,1.75-2.85,3.07-4.3,4.58l-8.42-2.2,2.09-3.94h6.09l.8-1.18-6.28-5.32-1.63,3.51h-1c-1-.5-2.48-1.7-2.89-1.4-2.52,1.82-6,3.17-5.13,7.37l-1,1-1,1h-2l-2.06-2c0-.32,0-.64,0-1Z" transform="translate(-817.04 -368)"/><path class="cls-14" d="M920.28,506.9c8.91-3.75,18.57.44,19.32,10.55.26,3.5-1.78,7.41-3.5,10.75-2,3.88-5.21-.12-7.83.53a2.88,2.88,0,0,0-1-.28l-.43-3.37c-4.46,1.64-8.6,3.16-12.73,4.66-.23-1.12-.45-2.24-.68-3.35a1.1,1.1,0,0,0,.5-.74l5-2-2.92-.9c.51-1.72,1-3.43,1.54-5.15l-.16-.45-.06.42-1.14-.18c0-.66,0-1.33,0-2Z" transform="translate(-817.04 -368)"/><path class="cls-28" d="M935.26,536.48c2.78-8.06,8.58-13.63,15.69-17.64,1.73-1,6.12-.14,7.33,1.41,4,5.08,7.08,10.86,10.51,16.38-3.51.14-5.23,2.25-6,5.44l-7.56-.68c-.87-1.55-1.73-3.1-2.68-4.82l-3.36,4c.41-4.27-1.66-5.57-5.65-4.93C940.83,536.06,938,536.2,935.26,536.48Zm7.31-4.54c.81.72,2.08,2.57,2.85,2.38,3-.73,6.59-1.5,5.51-6.23Z" transform="translate(-817.04 -368)"/><path class="cls-26" d="M1006.18,580.77l-.84.69-.76.82-4.32,1.24c-.33.67-.67,1.34-1,2l-9,7q1.53-4.54,3-9.09c.1-1,.68-2.4.23-3-2-2.51-4.28-4.8-6.46-7.17l-11.55-10.1c3.88-1.8,11,.9,19.79,8.57.36-2.79.71-5.46,1.05-8.14,1.45.59,2.9,1.16,4.34,1.77,2.16.93,4.67,1.46,6.36,2.94s2.58,3.9,4.11,6.38l-5,1.49Z" transform="translate(-817.04 -368)"/><path class="cls-18" d="M1024.39,503.28l.81-2.78c-1.37-3.39-2.73-6.78-4.21-10.45l3.44-3.21-.13-1.4,0,.12,7.9,1.57c2.51,1.91,4.66,1.58,6.93-.65,1.07-1,2.84-1.35,4.29-2l1.87,1,0,1.09-2,.94-4.81,4.82,6.82,1c.08.41.16.83.23,1.24l-15.37,9Z" transform="translate(-817.04 -368)"/><path class="cls-5" d="M1070.62,498.36l-4.39,9.12-2.2,4.86-8.87,8.11c-2.38-1.8-3.6-5.88-7.86-4l-.57-1.11-.06-.32-.06,0c.65-.65,1.31-1.3,2-2l2.69-2.55c2.6-1.63,6.81-2.56,3-6.94l8-6.13,0,0h3Zm-16.13,17.23c0-.12,0-.29-.13-.33s-.22.07-.34.11c0,.11.06.29.14.32S1054.38,515.63,1054.49,515.59Z" transform="translate(-817.04 -368)"/><path class="cls-19" d="M997.27,509.19c-2.42.65-4.83,1.3-7.25,1.93-.31.08-.93,0-.95,0-1.36,6.39-9.48,2.74-12,8.59l-1.24-5.39-5.56-.82,9.27-10.95c3.52,1,6,1.42,8.33,2.33C991.1,506.16,994.16,507.75,997.27,509.19Z" transform="translate(-817.04 -368)"/><path class="cls-23" d="M997.17,453.75l-2-6.44c1.46-2.77,1.07-5.07-1.72-6.76l1.91-3.21c11.76,5.47,12.34,23.08,2.71,27.49C997.73,460.8,997.45,457.28,997.17,453.75Z" transform="translate(-817.04 -368)"/><path class="cls-13" d="M1006.18,580.77v-4.6l5-1.49c-1.53-2.48-2.41-4.9-4.11-6.38s-4.2-2-6.36-2.94c-1.44-.61-2.89-1.18-4.34-1.77l7.85-2.29.57,1.4a12.21,12.21,0,0,1,2.32-4.28c.75.68,1.93,1.25,2.14,2.07a32.43,32.43,0,0,1,.54,5.42l-.81,1,1.51-.19,8.83,2.11C1016.77,574.86,1012,578.41,1006.18,580.77Z" transform="translate(-817.04 -368)"/><path class="cls-8" d="M887,512l3.26,5.45h0c-.25.61-.33,1.39-.76,1.8-4,3.78-8,7.49-12,11.23l-3.75-1.07c-.11-.6-.21-1.19-.32-1.78l-1.36-1.22,8.09-11Z" transform="translate(-817.04 -368)"/><path class="cls-20" d="M935.26,536.48c2.78-.28,5.57-.42,8.31-.87,4-.64,6.06.66,5.65,4.93-2.48,1.8-4.74,4.58-7.48,5.17-3.63.78-5.9-2.4-7.07-5.66C934.31,539.06,935,537.68,935.26,536.48Z" transform="translate(-817.04 -368)"/><path class="cls-21" d="M1025.31,472.62l11.73.21.16.08-8.36,6.1a1.31,1.31,0,0,0-.59.5l-6.88,4.26c-.26-3.18-2.36-4.16-5.16-4.31l-.72-3.52,2-3,2.77-.7.92.47Z" transform="translate(-817.04 -368)"/><path class="cls-9" d="M1021.37,483.77l6.88-4.26q-2,3-4,6.05l0-.12c0,.47.09.93.13,1.4l-3.44,3.21c1.48,3.67,2.84,7.06,4.21,10.45l-14-8.57,2.76-5.29C1017.61,488.69,1019.28,485.7,1021.37,483.77Z" transform="translate(-817.04 -368)"/><path class="cls-15" d="M1041.23,550.48l-2.66,2.16-1.23-4.41-.37-2.94-3.12-.65-2.87-1.1c.07-2.41.13-4.81.2-7.21,3.91.5,7-.41,8.16-4.69l0,0,4-1a38,38,0,0,0-2.46,4.68,22.68,22.68,0,0,0-.74,4.32C1040.49,543.23,1040.86,546.86,1041.23,550.48Z" transform="translate(-817.04 -368)"/><path class="cls-7" d="M1032.42,553.73l-8.74,9.09,1.35-20.28,1.54.61c.1.39.2.79.29,1.18,1.12,2.4,2.24,4.81,3.35,7.21Z" transform="translate(-817.04 -368)"/><path class="cls-11" d="M1024.39,503.28l5.75.31c-1.17,2.3-2.35,4.6-3.35,6.58l11.19-1c.15.18.31.36.46.55-2.65,4.89-7,7.07-10.32,5.18C1024.34,512.78,1022.42,506.79,1024.39,503.28Z" transform="translate(-817.04 -368)"/><path class="cls-9" d="M1021.05,440.36c1.73,3.91,2.83,7.66-.28,11.62-.74.93.11,3.1.23,4.71-.33.93-.66,1.87-1,2.81-1.22-3.6-2.85-7.13-3.52-10.82-.6-3.29-.13-6.76-.13-11.31Z" transform="translate(-817.04 -368)"/><path class="cls-10" d="M916.17,515.38l0,2-8.94,7.19-3,1c-.34-1.58-.69-3.15-1-4.73l8.91-8.67a17.55,17.55,0,0,0,2,2.76C914.58,515.37,915.48,515.26,916.17,515.38Z" transform="translate(-817.04 -368)"/><path class="cls-19" d="M1014,486.64l-2.76,5.29c-6-5.3-6-5.53-1.19-11.55l2.2-2.9,2-3.05,1.28,1.51.72,3.52Z" transform="translate(-817.04 -368)"/><path class="cls-13" d="M887,512l-6.79,3.4-2.88-7.85,7.36,3,4.62-12.18c.32,0,.65,0,1,0l1.2,3.12-2.22,6.9-1.39,1.84Z" transform="translate(-817.04 -368)"/><path class="cls-24" d="M1047.3,516.47c4.26-1.9,5.48,2.18,7.86,4l-.48,5.46c-.37.59-.75,1.17-1.13,1.75l-3.27,1.79-.08.08-2.16-1.29-1-1.71,1.77-7.51C1048.33,518.17,1047.82,517.32,1047.3,516.47Z" transform="translate(-817.04 -368)"/><path class="cls-4" d="M995.57,416.15c1.46,3.66,2.83,7.41,7.73,7.56l2,.83c0,1.29,0,2.57,0,3.85l-13.07-5.93h0c-.32-.67-.65-1.34-1-2C989.82,416.14,994.61,418.07,995.57,416.15Z" transform="translate(-817.04 -368)"/><path class="cls-12" d="M889.37,541.52l-5.14-1c1.29-4.48-1.28-5.75-5-6l0,0a32.69,32.69,0,0,1,4.14-4c.69-.48,2.82-.3,3,.11,1.46,3.58,2.63,7.27,3.88,10.93Z" transform="translate(-817.04 -368)"/><path class="cls-17" d="M909.33,554.38l-2.56,1.94c-.18-2.94-.37-5.88-.55-8.82l1.72-3.8-.82-.52,7.14-4.43C912.52,544.28,910.92,549.33,909.33,554.38Z" transform="translate(-817.04 -368)"/><path class="cls-13" d="M970.33,457.54l3.06,4.95-2,3.36-6.12-.46-5-3.95,0,0,.94-2.07,4.19-1.83a5.49,5.49,0,0,0,.81,0Z" transform="translate(-817.04 -368)"/><path class="cls-29" d="M914.15,529.76l12.73-4.68.43,3.37c-2.72-.05-4.17,1.2-4.09,4l-3.12.79-2.68-1.43.84,2.71-3.55,1c-.24-1.92-.42-3.3-.6-4.68C914.12,530.47,914.14,530.11,914.15,529.76Z" transform="translate(-817.04 -368)"/><path class="cls-29" d="M904.27,525.61l3-1,4,2.95.09,3.3-3.79-1.46c-2.6,1.46-3.19,8.34-8.31,3.14l4-5.64,1.07-1.38Z" transform="translate(-817.04 -368)"/><path class="cls-2" d="M955.26,541.39l7.56.68,5.52,2.68c-2.2,1.06-4.59,3.24-6.56,2.92C958.77,547.17,955.09,545.88,955.26,541.39Z" transform="translate(-817.04 -368)"/><path class="cls-11" d="M992.2,422.46l13.07,5.93,3.12,3.14-6.14,1C996.88,431.19,993.9,427.46,992.2,422.46Z" transform="translate(-817.04 -368)"/><path class="cls-8" d="M987.25,460.93q.87,3.19,1.74,6.42c-4.06,1.2-9.19-2.26-9.82-6.84l.26-.15,7.82.16Z" transform="translate(-817.04 -368)"/><path class="cls-29" d="M1005.47,469l6.71-14c1.38,2.09,1.74,6.42-.69,10.19-1.3,2-3.82,3.26-5.78,4.86Z" transform="translate(-817.04 -368)"/><path class="cls-13" d="M903.22,526.86l-4,5.64c-3.38-2.43-2.28-5-.16-7.5,1.27-1.48,2.78-2.75,4.18-4.12.34,1.58.69,3.15,1,4.73l0-.12C903.93,525.94,903.57,526.4,903.22,526.86Z" transform="translate(-817.04 -368)"/><path class="cls-19" d="M1020,459.5c.32-.94.65-1.88,1-2.81l3.22-1.26,5,2.06c-1.55,4.73-5.26,6-9.72,6Z" transform="translate(-817.04 -368)"/><path class="cls-22" d="M935.21,459.46l6.41,6.22-1.4,1.76-7-1.08-.39-6.35Z" transform="translate(-817.04 -368)"/><path class="cls-7" d="M976,535.93l11.34-2.43,1,1.61-5.45,4.4Z" transform="translate(-817.04 -368)"/><path class="cls-11" d="M1046.67,515l-8.24-5.31c-.14-.19-.3-.37-.45-.55l7.24-5.81-1,7.07c-.21-.1-.41-.21.18.1l-.19-.09,2.14,1.26c.09,1.1.18,2.19.28,3.29Z" transform="translate(-817.04 -368)"/><path class="cls-29" d="M894.88,548.28c-5.09-.19-2.94-3.5-2.61-6l8.77-3.6Z" transform="translate(-817.04 -368)"/><path class="cls-15" d="M995.35,437.34l-1.91,3.21-8.77-4.1-.59.17a1.75,1.75,0,0,1,.13-.75c.18-.48.36-1,.53-1.45l2.66-3.82,4.94,3.73,2,2Z" transform="translate(-817.04 -368)"/><path class="cls-11" d="M987,573.26c2.18,2.37,4.47,4.66,6.46,7.17.45.58-.13,2-.23,3-2.27-1.77-4.67-3.41-6.78-5.37-1-.94-1.48-2.49-2.19-3.76Z" transform="translate(-817.04 -368)"/><path class="cls-3" d="M899.23,482.47l4.11,1.06c0,3.45-1,6.26-4.87,7l-1.3-1.15c-.65-1.64-1.29-3.27-1.94-4.9Z" transform="translate(-817.04 -368)"/><path class="cls-20" d="M968.34,544.75l-5.52-2.68c.74-3.19,2.46-5.3,6-5.44C970.55,539.44,970.85,542.17,968.34,544.75Z" transform="translate(-817.04 -368)"/><path class="cls-23" d="M871.56,543.45h-2.79q2-5.15,4-10.29c.18.14.36.28.53.43l3.83,2.83,0,0Z" transform="translate(-817.04 -368)"/><path class="cls-2" d="M916.17,515.38c-.69-.12-1.59,0-2-.41a17.55,17.55,0,0,1-2-2.76c2.1-2.33,4.18-4.66,6.36-6.9,0,0,1.15,1,1.77,1.59Z" transform="translate(-817.04 -368)"/><path class="cls-18" d="M1014.8,532.54a32.7,32.7,0,0,1-2.69-5.31,56.73,56.73,0,0,1-1.28-7.16C1016.18,523.16,1016.52,524.25,1014.8,532.54Z" transform="translate(-817.04 -368)"/><path class="cls-2" d="M897.17,489.41l1.3,1.15a63.84,63.84,0,0,1-3.22,8.08c-.72,1.29-2.51,2-3.81,2.94l-1.2-3.12Z" transform="translate(-817.04 -368)"/><path class="cls-20" d="M961.18,459.4c-.32.69-.63,1.38-.94,2.07l0,0,5,3.95-1.92.28-7.16-.23.18-4.9,1.77-1.29Z" transform="translate(-817.04 -368)"/><path class="cls-11" d="M1032.42,553.73l-2.21-2.19-.06-7.13.83-.87,2.87,1.1a3.52,3.52,0,0,0,.53.79c.41,1.08.81,2.16,1.21,3.23l-.21,3.82-2.17,1.15A4.17,4.17,0,0,0,1032.42,553.73Z" transform="translate(-817.04 -368)"/><path class="cls-20" d="M987.4,430.6l-2.66,3.82-1.48-1-4-7Z" transform="translate(-817.04 -368)"/><path class="cls-3" d="M945.75,476.37l-10.06,6.71-1-1.36,9.54-7.49Z" transform="translate(-817.04 -368)"/><path class="cls-29" d="M920.68,555l1.49-1.59,5,.29-2,2.74-.89.59,1-.47,1.94,2.88-3,1.14-4-2-.29-.37Z" transform="translate(-817.04 -368)"/><path class="cls-18" d="M1010.67,519.85l-8.36.42,1.83-5.53Z" transform="translate(-817.04 -368)"/><path class="cls-11" d="M1039.34,531.64c-1.16,4.28-4.25,5.19-8.16,4.69C1032.74,532.75,1035.36,531,1039.34,531.64Z" transform="translate(-817.04 -368)"/><path class="cls-23" d="M1005.26,424.54l-2-.83c1.66-6,2.46-6.49,6.12-3.92Z" transform="translate(-817.04 -368)"/><path class="cls-29" d="M1030.15,544.41l.06,7.13c-1.11-2.4-2.23-4.81-3.35-7.21Z" transform="translate(-817.04 -368)"/><path class="cls-11" d="M994.24,431.44c-3.33-1.28-5.75-3.3-6.19-6.92l1.26-.91q2.45,3.93,4.91,7.85Z" transform="translate(-817.04 -368)"/><path class="cls-4" d="M933.21,466.36l7,1.08-10.58,1.74Z" transform="translate(-817.04 -368)"/><path class="cls-4" d="M915.62,498,910,503.18l-1.17-1.29,5.77-5.05Z" transform="translate(-817.04 -368)"/><path class="cls-4" d="M1002.25,432.53l6.14-1C1007,435.12,1006.23,435.24,1002.25,432.53Z" transform="translate(-817.04 -368)"/><path class="cls-4" d="M918.73,494.14l3.74-4.18,1.44,1.23-3.71,4.23Z" transform="translate(-817.04 -368)"/><path class="cls-29" d="M1047.07,526.53l1,1.71-.86,1-3.85,1.35-4,1Z" transform="translate(-817.04 -368)"/><path class="cls-11" d="M961.18,459.4l-3.06-.15c0-.28,0-.55,0-.82,1.08-1.64,2.15-3.28,3.23-4.91l4,4.05Z" transform="translate(-817.04 -368)"/><path class="cls-29" d="M947.16,465.28c0-1.59,0-3.18,0-4.77h3C951.18,463.36,951.31,465.69,947.16,465.28Z" transform="translate(-817.04 -368)"/><path class="cls-11" d="M971.37,465.85l2-3.36,2.81,1C976.36,467.86,973.77,466.67,971.37,465.85Z" transform="translate(-817.04 -368)"/><path class="cls-19" d="M969.42,516.39l2.27,6Z" transform="translate(-817.04 -368)"/><path class="cls-11" d="M923.22,532.46c-.08-2.81,1.37-4.06,4.09-4a2.88,2.88,0,0,1,1,.28Z" transform="translate(-817.04 -368)"/><path class="cls-11" d="M956.17,465.44l7.16.23-7.21,1.7c0-.65.06-1.3.08-1.95Z" transform="translate(-817.04 -368)"/><path class="cls-23" d="M873.76,529.44l3.75,1.07-4.17,3.09c-.17-.15-.35-.29-.53-.43C873.13,531.92,873.44,530.68,873.76,529.44Z" transform="translate(-817.04 -368)"/><path class="cls-16" d="M927.2,559.43l-1.94-2.88-.1-.12,2-2.74q1,2.92,2,5.84Z" transform="translate(-817.04 -368)"/><path class="cls-15" d="M969.26,387.43c.35,2.4.69,4.8,1,7.2l0-.13-1.08-.06Q969.26,390.95,969.26,387.43Z" transform="translate(-817.04 -368)"/><path class="cls-29" d="M1026.57,543.15l-1.54-.61,2.36-3,1.36,1Z" transform="translate(-817.04 -368)"/><path class="cls-11" d="M1047.3,516.47c.52.85,1,1.7,1.54,2.55l-3.81-1.14,1.7-2.52Z" transform="translate(-817.04 -368)"/><path class="cls-11" d="M986.27,455.38l3.09,3-2.11,2.52v-.41Q986.75,457.94,986.27,455.38Z" transform="translate(-817.04 -368)"/><path class="cls-11" d="M911.32,530.82l-.09-3.3,2.24-1.13c.23,1.11.45,2.23.68,3.35,0,.37,0,.73,0,1.09Z" transform="translate(-817.04 -368)"/><path class="cls-11" d="M918.26,534.53l-.84-2.71,2.68,1.43Z" transform="translate(-817.04 -368)"/><path class="cls-8" d="M950.19,460.5h-3c.66-1.38,1.33-2.75,2-4.13C949.51,457.75,949.85,459.13,950.19,460.5Z" transform="translate(-817.04 -368)"/><path class="cls-13" d="M1015.49,475.94l-1.28-1.51,3.23-1.53Z" transform="translate(-817.04 -368)"/><path class="cls-11" d="M1033.65,520.91l-1.37,1.57-.65-.46,1.1-1.89Z" transform="translate(-817.04 -368)"/><path class="cls-8" d="M890.22,517.48l1.38-3.58,1.91,2.29-3.29,1.29Z" transform="translate(-817.04 -368)"/><path class="cls-4" d="M906.22,483.47l1.15,1.66-1.14.46c0-.7,0-1.41,0-2.12Z" transform="translate(-817.04 -368)"/><path class="cls-3" d="M932.56,485.07a6.31,6.31,0,0,1-1.13.57c-.08,0-.47-.59-.43-.63a7.52,7.52,0,0,1,1-.76Z" transform="translate(-817.04 -368)"/><path class="cls-4" d="M915.23,476.45l1.23,1.9-1.25-.85C915.22,477.15,915.23,476.8,915.23,476.45Z" transform="translate(-817.04 -368)"/><path class="cls-8" d="M887.83,510.32l1.39-1.84.77,1.34Z" transform="translate(-817.04 -368)"/><path class="cls-8" d="M958.13,458.43c0,.27,0,.54,0,.82l-1.77,1.29Z" transform="translate(-817.04 -368)"/><path class="cls-13" d="M1012.23,477.48l-2.2,2.9Z" transform="translate(-817.04 -368)"/><path class="cls-20" d="M956.2,465.42c0,.65-.05,1.3-.08,1.95l-1.25-1Z" transform="translate(-817.04 -368)"/><path class="cls-3" d="M915.23,476.45c0,.35,0,.7,0,1.05l-2,0,2-2C915.22,475.8,915.23,476.12,915.23,476.45Z" transform="translate(-817.04 -368)"/><path class="cls-23" d="M994.34,436.36l-2-2C993,435,993.67,435.68,994.34,436.36Z" transform="translate(-817.04 -368)"/><ellipse class="cls-18" cx="153.63" cy="30.28" rx="0.3" ry="1.51"/><path class="cls-23" d="M877.17,536.43l2.08-1.91,0,0-2,2Z" transform="translate(-817.04 -368)"/><path class="cls-11" d="M991.24,420.46c.33.67.66,1.34,1,2C991.9,421.8,991.57,421.13,991.24,420.46Z" transform="translate(-817.04 -368)"/><path class="cls-22" d="M1017.2,467l1.5.45a3,3,0,0,1,.66.75Z" transform="translate(-817.04 -368)"/><path class="cls-4" d="M926.62,469.17l2.18,0Z" transform="translate(-817.04 -368)"/><path class="cls-20" d="M979.26,426.46l-1-1.08Z" transform="translate(-817.04 -368)"/><path class="cls-18" d="M969.24,394.44l1.08.06-.26.78Z" transform="translate(-817.04 -368)"/><path class="cls-29" d="M894.26,551.16l-1,.19.92-.92A2,2,0,0,1,894.26,551.16Z" transform="translate(-817.04 -368)"/><path class="cls-29" d="M889.37,541.52l.89,0c0,.26,0,.51,0,.76Z" transform="translate(-817.04 -368)"/><path class="cls-17" d="M1019.36,468.18a3,3,0,0,0-.66-.75l1.57,1.16Z" transform="translate(-817.04 -368)"/><path class="cls-11" d="M994.22,431.46v0Z" transform="translate(-817.04 -368)"/><path class="cls-24" d="M993.25,597.52l1-1c1-.69,2-1.37,3-2l5,3,8.42,2.2-2.12,3.1c-1.48.7-3.31,1.05-4.37,2.15-2.38,2.48-4.61,4.18-7.88,1.58l-3-1c-4.57-1.41-6.15.78-6,5l-4-1q2.49-6.51,5-13l2.06,2,1,1,2.41,2.76Z" transform="translate(-817.04 -368)"/><path class="cls-18" d="M1047.18,529.26l.86-1,2.16,1.29.2.12-.12-.2,3.27-1.79q-6.16,11.42-12.32,22.82c-.37-3.62-.74-7.25-1.1-10.87C1043.67,537,1047.12,534.27,1047.18,529.26Z" transform="translate(-817.04 -368)"/><path class="cls-8" d="M1026.23,598.15l3.32-2.51.93.6-2.24,4.36-1,1-1,.92-1,2-13.06,11c.33-2.2.66-4.41,1-6.61l3.09-2.34,0,0Z" transform="translate(-817.04 -368)"/><path class="cls-5" d="M996.22,606.51c3.27,2.6,5.5.9,7.88-1.58,1.06-1.1,2.89-1.45,4.37-2.15-1,1.8-1.8,3.67-2.91,5.36-1.67,2.53-3.54,4.92-5.32,7.37l-1.14.76-2.76.47-.12-2.19,0-8Z" transform="translate(-817.04 -368)"/><path class="cls-19" d="M996.34,616.74l2.76-.47,1.85,2.6-3.66,5.65c-.11.34-.21.67-.32,1l.45,0-.21,1-2,1-3.06,2.91q-2.91-1.49-5.84-3l6.58-5c2.31-.37,4.53-.81,3.27-4.06Zm-1.85,7.41-.3.21.34.17Z" transform="translate(-817.04 -368)"/><path class="cls-17" d="M1026.23,598.15l-10,8.41c-.06-.15-.22-.35-.17-.45q3.45-7.32,6.92-14.63C1026,592.76,1027.3,594.89,1026.23,598.15Z" transform="translate(-817.04 -368)"/><path class="cls-19" d="M1054.68,525.91l.48-5.46,8.87-8.11Z" transform="translate(-817.04 -368)"/><path class="cls-18" d="M1005,628.67l-.79,0c-2.35-3.93.6-6.15,2.8-8.61C1009,623.6,1007.56,626.27,1005,628.67Z" transform="translate(-817.04 -368)"/><path class="cls-14" d="M1035.38,552.48l.21-3.82,1.75-.43,1.23,4.41-.93.79Z" transform="translate(-817.04 -368)"/><path class="cls-15" d="M1035.38,552.48l2.26.95c-.15.71-.31,1.42-.47,2.13l-4-1.93Z" transform="translate(-817.04 -368)"/><path class="cls-17" d="M1001,618.87l-1.85-2.6,1.14-.76C1002.67,616.16,1002.73,617.32,1001,618.87Z" transform="translate(-817.04 -368)"/><path class="cls-17" d="M1016.28,606.54l-3.09,2.34Z" transform="translate(-817.04 -368)"/><path class="cls-18" d="M1009.25,617.86l-2,1.65Z" transform="translate(-817.04 -368)"/><path class="cls-17" d="M997,625.52c.11-.33.21-.66.32-1C997.18,624.86,997.08,625.19,997,625.52Z" transform="translate(-817.04 -368)"/><path class="cls-16" d="M934.78,662.76l20.05,34.45c3.54-4.88,7.07-8.42,7.56-13.78l2.69-.81c-.78,2-1.46,4-2.36,5.89-1.77,3.71-3.66,7.36-5.5,11h0c-1.69-1.2-4-2-5-3.66-6-9.73-11.63-19.62-17.32-29.5a11.42,11.42,0,0,1-.76-3.33A1,1,0,0,0,934.78,662.76Z" transform="translate(-817.04 -368)"/><path class="cls-14" d="M932,640.61c.31-.08.66-.28.94-.21,1.9.44,3.93.65,5.59,1.55.65.35.77,3.28.59,3.34a46.79,46.79,0,0,1-5.79,1.19C932.91,644.52,932.47,642.57,932,640.61Z" transform="translate(-817.04 -368)"/><path class="cls-12" d="M912.4,625.15l7.89,10.91c-1-.09-2.67.15-2.93-.34C915.55,632.28,914,628.69,912.4,625.15Z" transform="translate(-817.04 -368)"/><path class="cls-12" d="M896.14,595.68c.11.92.23,1.85.34,2.78-.42.32-.83.65-1.24,1l-.9,2-1.7-.94c.2-1.32.4-2.65.59-4,0-.47.08-1,.13-1.43a.88.88,0,0,0,.64-.3Z" transform="translate(-817.04 -368)"/><path class="cls-15" d="M907.92,617l5.1-1.5.8.7-3.56,3.59Z" transform="translate(-817.04 -368)"/><path class="cls-13" d="M931.17,653l-.42,2.82q-1.54-2.45-3.08-4.89a7.56,7.56,0,0,0,.69-.58Z" transform="translate(-817.04 -368)"/><path class="cls-15" d="M900.12,603.62l1.52,2.19Z" transform="translate(-817.04 -368)"/><path class="cls-13" d="M934.78,662.76a1,1,0,0,1-.6.28c-.34-.82-.68-1.63-1-2.45C933.7,661.31,934.24,662,934.78,662.76Z" transform="translate(-817.04 -368)"/><path class="cls-15" d="M895.24,599.44c.41-.33.82-.66,1.24-1l.93.82Z" transform="translate(-817.04 -368)"/><path class="cls-13" d="M927.67,650.94l-.07-.8.76.22A7.56,7.56,0,0,1,927.67,650.94Z" transform="translate(-817.04 -368)"/><path class="cls-25" d="M1070.62,498.36l-5.37-.9h-3l0,0-1.63-4.73-10.38,8.78,0,0,1-4,.1-.2-.2.11c-3,1.4-4.66-.12-5.67-2.82l-.24-1.25-2-5.84,2-.94,7.87,3.62c1.07-2.47,3.69-6.06-1.82-8.7.61-1,1.22-2,1.82-3.07L1057,478c-.91-1.74-1.64-3.11-2.36-4.49l29.9-.47-.21,2.48a2,2,0,0,0-.25.71l-3.63,6.36-.05.05-7.71,13Z" transform="translate(-817.04 -368)"/><path class="cls-13" d="M1037.2,472.91l-.16-.08,12.32-.46c0,.52-.09,1-.14,1.56l-6.06,7.53-1.83-.09c-.26-1-.53-2-.79-3l-1.38.76,2,2.38,1.79,1.75.42,1.21c-1.46.63-3.23.94-4.3,2-2.27,2.23-4.42,2.56-6.93.65l2.25-6.49,2.85,1.15a14.45,14.45,0,0,0,.38-2.66C1037.57,477.05,1037.35,475,1037.2,472.91Z" transform="translate(-817.04 -368)"/><path class="cls-17" d="M1049.26,456.37l2,.1-6,10.67-3,.13-7.08-3.86,2.67-4.09c4.31,5.52,5,5.42,8.72-.23A18.08,18.08,0,0,1,1049.26,456.37Z" transform="translate(-817.04 -368)"/><path class="cls-20" d="M1072.66,495.64l7.71-13Z" transform="translate(-817.04 -368)"/><path class="cls-17" d="M1061.76,462.56c-.17,1.46-.34,2.93-.52,4.4l-4.09.19C1057.57,464.5,1057.57,461.43,1061.76,462.56Z" transform="translate(-817.04 -368)"/><path class="cls-17" d="M1048.18,467.31l1.8-4,5.58,3.72Z" transform="translate(-817.04 -368)"/><path class="cls-13" d="M1053.15,478.42c-.6,1-1.21,2.05-1.82,3.07l-1.1,0q.42-3.89.83-7.75l2.27-1.14-.09,1.29Z" transform="translate(-817.04 -368)"/><path class="cls-14" d="M1053.15,478.42l.09-4.55,1.37-.36c.72,1.38,1.45,2.75,2.36,4.49Z" transform="translate(-817.04 -368)"/><path class="cls-20" d="M1080.42,482.59l3.63-6.36Z" transform="translate(-817.04 -368)"/><path class="cls-13" d="M1025.31,472.62l-4.18.05Z" transform="translate(-817.04 -368)"/><path class="cls-12" d="M1053.33,472.58l-2.27,1.14-1.84.21c0-.52.09-1,.14-1.56Z" transform="translate(-817.04 -368)"/><path class="cls-13" d="M1084.3,475.52l.21-2.48a1.28,1.28,0,0,1,.68-.69l1.1,1.1Z" transform="translate(-817.04 -368)"/><path class="cls-12" d="M1086.29,473.45l-1.1-1.1Z" transform="translate(-817.04 -368)"/><path class="cls-9" d="M1089.56,475.43a3.56,3.56,0,0,1,.41.8h-.42l-.42,0A.92.92,0,0,1,1089.56,475.43Z" transform="translate(-817.04 -368)"/><path class="cls-11" d="M899.23,482.47l-4,2c-3.07-.86-6.17-1.11-7.1-5.48-.33-1.55-4.1-2.51-6.43-3.44a38.34,38.34,0,0,0-5.57-1.35c0-1.23.07-2.46.11-3.68,0-.46.06-.91.08-1.37l4-.61,11.94,4.87,3-1h6c0,1.33,0,2.66,0,4Zm-2.87-3.28-.75-.25a3.47,3.47,0,0,0,0,.72c0,.06.31.17.36.13A4.55,4.55,0,0,0,896.36,479.19Z" transform="translate(-817.04 -368)"/><path class="cls-22" d="M894.21,464.49c4.53.55,1-4,3.14-5l2.86,1.85,6.08,2.65c-2.3,5-6.73,4.61-11.1,4.47-2-.07-4,0-6-.05-1-1-2-2-3-2.93l0,0c-.32-1-.65-2-1-3.06l5,1C890.92,466.27,892.06,467.35,894.21,464.49Z" transform="translate(-817.04 -368)"/><path class="cls-3" d="M901.21,476.45c0-1.33,0-2.66,0-4C903,473.8,905,475.14,901.21,476.45Z" transform="translate(-817.04 -368)"/><path class="cls-23" d="M886.18,465.52c1,1,2,2,3,2.93l-3.06-.06C886.17,467.43,886.18,466.47,886.18,465.52Z" transform="translate(-817.04 -368)"/><path class="cls-3" d="M910.22,472.67a4.55,4.55,0,0,1-1.28.38c-.18,0-.38-.41-.56-.64a4.81,4.81,0,0,1,1.15-.54C909.66,471.84,909.9,472.28,910.22,472.67Z" transform="translate(-817.04 -368)"/><path class="cls-3" d="M895.21,472.46l-3,1Z" transform="translate(-817.04 -368)"/><path class="cls-29" d="M877.2,536.47l2-2c3.75.27,6.32,1.54,5,6l-10,6-2.68-3.06Z" transform="translate(-817.04 -368)"/><path class="cls-18" d="M870.18,553.52c-1.81-1.77-4.95-3.32-.95-6C869.55,549.52,869.86,551.52,870.18,553.52Z" transform="translate(-817.04 -368)"/><path class="cls-4" d="M986.31,627.4q2.93,1.47,5.84,3c.05.58.1,1.17.14,1.76q-6,6.92-11.93,13.82l-9.14,3.59,1.47-9.89c2.84-1.07,5.17-2.5,4.35-6.15.43-1.25.85-2.49,1.28-3.73l4.71,1.92-2.36-3Z" transform="translate(-817.04 -368)"/><path class="cls-6" d="M971.22,649.52l9.14-3.59a1.35,1.35,0,0,0,.6.51l-1.78,3.48-.92.61-1,.34-2,2.67-5.93,4c-1.76-4.52-5.26-2.08-8.15-2,1.33-6.29,2.16-6.78,8.12-5.15C969.85,650.51,970.59,649.82,971.22,649.52Z" transform="translate(-817.04 -368)"/><path class="cls-27" d="M961.22,655.52c2.89,0,6.39-2.48,8.15,2a4.13,4.13,0,0,0-.16.92l-2.14.71-13.79,2.49-.84-3.34,6.89-3.8Z" transform="translate(-817.04 -368)"/><path class="cls-11" d="M986.33,653.56q-2.05,5-4.1,10l-6.52,4.84c.2.29-.34-.48-.88-1.23l5.4-11.68,0,.08c.33-.67.67-1.33,1-2Z" transform="translate(-817.04 -368)"/><path class="cls-18" d="M981,646.44a1.35,1.35,0,0,1-.6-.51q6-6.9,11.93-13.82C993.05,640.48,986.25,642.86,981,646.44Z" transform="translate(-817.04 -368)"/><path class="cls-7" d="M980.23,655.47l-5.4,11.68-1.4.51,1.71-8.38,0,.15,1.25-.07-.19-.9Z" transform="translate(-817.04 -368)"/><path class="cls-11" d="M991.25,648.44l-3.61,2.67c.59-1.67,1.17-3.34,1.76-5Z" transform="translate(-817.04 -368)"/><path class="cls-8" d="M967.07,659.19l2.14-.71,0,3-2.81,1.19C966.64,661.5,966.85,660.34,967.07,659.19Z" transform="translate(-817.04 -368)"/><path class="cls-8" d="M975.3,653.54l2-2.67Z" transform="translate(-817.04 -368)"/><path class="cls-2" d="M995.21,627.44l2-1Z" transform="translate(-817.04 -368)"/><path class="cls-25" d="M976.18,658.46l.19.9-1.25.07Z" transform="translate(-817.04 -368)"/><path class="cls-7" d="M981.19,653.55c-.33.67-.67,1.33-1,2C980.52,654.88,980.86,654.22,981.19,653.55Z" transform="translate(-817.04 -368)"/><path class="cls-8" d="M978.26,650.53l.92-.61Z" transform="translate(-817.04 -368)"/><path class="cls-25" d="M877.29,507.58l2.88,7.85-8.09,11a1,1,0,0,0-.79.08l-6.12,7.18c-2.51,1.06-4.34.44-5.69-2a40.46,40.46,0,0,0-3.14-4.31l-.75-1.56c-.46-.77-.92-1.54-1.39-2.31l-2.27-3.82-1.59-2.31-2.47-4.67-3.66-6.21a6.07,6.07,0,0,0-.32-.8c-.55-.75-1.1-1.49-1.64-2.24a5.87,5.87,0,0,0-.36-.81l-1.57-2.27-.63-1.63c-.79-1.78-1.46-3.63-2.39-5.34-3.69-6.83-7.46-13.61-11.2-20.41l14.13-.28c9.54.18,19.09.28,28.63.61,2,.07,4,.95,6,1.45,1.69,2.59,3.36,5.19,5.09,7.75,1.14,1.69,2.37,3.33,3.55,5-.83.88-2.51,2.35-2.38,2.54a61.66,61.66,0,0,0,4.52,5.34.76.76,0,0,1,.55.74c-1.81,1.83-3.35,4.51-5.54,5.24-1.74.57-4.28-1.23-7.46-2.31C874.92,502.64,876.1,505.11,877.29,507.58Zm2.57-13.16-1.22.24a13.07,13.07,0,0,0,.51,2,5.36,5.36,0,0,0,1.21-.19Zm-1.39-4.84c0-.12-.06-.28-.13-.32s-.22.06-.33.1,0,.28.13.32S878.36,489.62,878.47,489.58Z" transform="translate(-817.04 -368)"/><path class="cls-7" d="M826.1,473c3.74,6.8,7.51,13.58,11.2,20.41.93,1.71,1.6,3.56,2.39,5.34-1.41-1.32-3.23-2.41-4.17-4-3.49-6-6.77-12.15-9.93-18.34C825.17,475.55,825.9,474.13,826.1,473Z" transform="translate(-817.04 -368)"/><path class="cls-7" d="M840.32,500.36l1.57,2.27-1.53-.19C840.35,501.75,840.34,501.05,840.32,500.36Z" transform="translate(-817.04 -368)"/><path class="cls-10" d="M1029.19,457.49l-5-2.06c-.7-2.84-.32-5.52,2.94-6,1.56-.22,3.38,1.29,5.08,2Q1030.71,454.47,1029.19,457.49Z" transform="translate(-817.04 -368)"/><path class="cls-1" d="M883.51,487.5c-1.18-1.66-2.41-3.3-3.55-5-1.73-2.56-3.4-5.16-5.09-7.75l1.26-.52a38.34,38.34,0,0,1,5.57,1.35c2.33.93,6.1,1.89,6.43,3.44.93,4.37,4,4.62,7.1,5.48.65,1.63,1.29,3.26,1.94,4.9l-6.93,9c-.32,0-.65,0-1,0l-3.07-2.29a.76.76,0,0,0-.55-.74Q884.59,491.44,883.51,487.5Z" transform="translate(-817.04 -368)"/><path class="cls-29" d="M876.32,469.19c0,.46-.05.91-.08,1.37-3.59,1.41-7.13,1.85-10.56.12l0-2.15Z" transform="translate(-817.04 -368)"/><path class="cls-23" d="M885.19,462.44c.32,1,.65,2,1,3.06l-3,0-1.85-3.1Z" transform="translate(-817.04 -368)"/><path class="cls-23" d="M894.21,464.49c-2.15,2.86-3.29,1.78-4-1l.24-1.32Z" transform="translate(-817.04 -368)"/><path class="cls-3" d="M957.22,699.54c1.84-3.67,3.73-7.32,5.5-11,.9-1.91,1.58-3.92,2.36-5.89l3.2-.06q-2.56,5.87-5.14,11.72l-1.35,2.18Z" transform="translate(-817.04 -368)"/><path class="cls-7" d="M969,673.31l2.18-1.79Z" transform="translate(-817.04 -368)"/><path class="cls-22" d="M986.27,455.38q.48,2.56,1,5.14l-7.82-.16q.95-3.45,1.87-6.89l4,0-.1,0,1,2Z" transform="translate(-817.04 -368)"/><path class="cls-11" d="M970.33,457.54l-4.15.06Z" transform="translate(-817.04 -368)"/><path class="cls-11" d="M979.23,453.46l-.64,2.1-.8-.46,1.44-1.64Z" transform="translate(-817.04 -368)"/><path class="cls-13" d="M844.21,506.48l3.66,6.21Z" transform="translate(-817.04 -368)"/><path class="cls-13" d="M842.25,503.44c.54.75,1.09,1.49,1.64,2.24C843.34,504.93,842.79,504.19,842.25,503.44Z" transform="translate(-817.04 -368)"/><path class="cls-13" d="M854.2,523.49c.47.77.93,1.54,1.39,2.31C855.13,525,854.67,524.26,854.2,523.49Z" transform="translate(-817.04 -368)"/><path class="cls-13" d="M850.34,517.36l1.59,2.31Z" transform="translate(-817.04 -368)"/><path class="cls-19" d="M887.67,581.25l1.73,2.15-3.15.1C886.73,582.75,887.2,582,887.67,581.25Z" transform="translate(-817.04 -368)"/><path class="cls-24" d="M865.17,533.7l6.12-7.18,2.15,1.14c.11.59.21,1.18.32,1.78-.32,1.24-.63,2.48-1,3.73q-2,5.15-4,10.29l-2.58.21Z" transform="translate(-817.04 -368)"/><path class="cls-6" d="M1026.25,602.51l1-.92Z" transform="translate(-817.04 -368)"/><path class="cls-29" d="M943.82,461a7.28,7.28,0,0,1,.4.72s-.28.27-.35.24a4.23,4.23,0,0,1-.69-.44Z" transform="translate(-817.04 -368)"/><path class="cls-30" d="M983.84,450.7c.13-.42.25-.84.37-1.26l2.83,1.11-1.91,1Z" transform="translate(-817.04 -368)"/><path class="cls-11" d="M986.28,455.46l-1-2Z" transform="translate(-817.04 -368)"/><path class="cls-21" d="M984.67,436.45l8.77,4.1c2.79,1.69,3.18,4,1.72,6.76Z" transform="translate(-817.04 -368)"/><path class="cls-1" d="M988.53,659.83l-.7.3-.15-1.07Z" transform="translate(-817.04 -368)"/><path class="cls-21" d="M983.26,433.44l1.48,1c-.17.48-.35,1-.53,1.45Z" transform="translate(-817.04 -368)"/><path class="cls-27" d="M896.14,595.68l-2.14-.92-1.72-4.35c-.16-.88-.31-1.75-.47-2.63l5-4.7,5.23-5c1.63,3.31,1.61,5.8-.8,8.68C899.11,589.38,897.82,592.69,896.14,595.68Z" transform="translate(-817.04 -368)"/><path class="cls-19" d="M892.28,590.41l1.72,4.35a.88.88,0,0,1-.64.3Z" transform="translate(-817.04 -368)"/><path class="cls-30" d="M1008,647.55c.07-.35.14-.7.22-1C1008.1,646.85,1008,647.2,1008,647.55Z" transform="translate(-817.04 -368)"/><path class="cls-24" d="M961.22,655.52l-1.89-1c-.77-.65-1.53-1.83-2.31-1.84a56.62,56.62,0,0,0-6.84.62c2.38-2.2,4.81-4.35,7.13-6.62s4.43-4.77,6.82-7a19.86,19.86,0,0,1,4-2.27l4.58,2.16-1.47,9.89c-.63.3-1.37,1-1.88.85C963.38,648.74,962.55,649.23,961.22,655.52Z" transform="translate(-817.04 -368)"/><path class="cls-21" d="M970.07,629.42a8.41,8.41,0,0,0-.39-1.91c-1.09-2.36-3.56-6.47-3.2-6.73A69.9,69.9,0,0,1,977,615c.13-.07.79,1,1.21,1.46l-2,7,0,0,3-1h0c0,1,0,2,0,3l-1,2-6.86,2Z" transform="translate(-817.04 -368)"/><path class="cls-21" d="M983.23,609.51l4,1c-.32,1.7-.65,3.4-1,5.1s-.65,3.29-1,4.93v0l-1,1,0,0-1,1,0,0-4,0h0l1.92-2.31-1.95-3.83C979.32,613.36,978.55,609.84,983.23,609.51Z" transform="translate(-817.04 -368)"/><path class="cls-6" d="M970.07,629.42l1.3.08c.56,3.13,2,2.64,3.85,1l0,0,1.8,3c.82,3.65-1.51,5.08-4.35,6.15l-4.58-2.16C968.76,634.79,969.42,632.1,970.07,629.42Z" transform="translate(-817.04 -368)"/><path class="cls-11" d="M967.07,659.19c-.22,1.15-.43,2.31-.65,3.46l-15.78,2.93-.57-1.09,3.21-2.81Z" transform="translate(-817.04 -368)"/><path class="cls-12" d="M950.18,653.32a56.62,56.62,0,0,1,6.84-.62c.78,0,1.54,1.19,2.31,1.84l-6.89,3.8,0,0-2.3-1-3.82-2.91Z" transform="translate(-817.04 -368)"/><path class="cls-29" d="M937.5,660l8.68,1.79-.26,2-8.67-1.37Z" transform="translate(-817.04 -368)"/><path class="cls-10" d="M979.2,616.37l1.95,3.83-1.92,2.31-3,1,0,0,2-7Z" transform="translate(-817.04 -368)"/><path class="cls-27" d="M988.21,595.52l-5.08-.36c3.25-2.76,3.25-2.76,5.12.32Z" transform="translate(-817.04 -368)"/><path class="cls-27" d="M950.16,657.35l2.3,1Z" transform="translate(-817.04 -368)"/><path class="cls-26" d="M990.14,594.39l-1,1.07C989.46,595.1,989.8,594.74,990.14,594.39Z" transform="translate(-817.04 -368)"/><polygon class="cls-15" points="99.21 246.47 99.31 246.66 99.24 246.5 99.21 246.47"/><polygon class="cls-15" points="99.24 246.5 99.08 246.37 99.21 246.48 99.24 246.5"/><path class="cls-20" d="M915.26,564.08l-3.58,2.16-.76-.86,4.41-4.66Z" transform="translate(-817.04 -368)"/><path class="cls-29" d="M915.26,564.08l.07-3.36.11-.07,2.45-2.43.05-.08,2,0,.29.37c-.35,1-.69,2-1,3Z" transform="translate(-817.04 -368)"/><path class="cls-16" d="M919.24,561.55c.34-1,.68-2,1-3l4,2Z" transform="translate(-817.04 -368)"/><path class="cls-20" d="M920,558.17l-2,0,2.74-3.15C920.45,556.05,920.22,557.11,920,558.17Z" transform="translate(-817.04 -368)"/><path class="cls-20" d="M917.89,558.22l-2.45,2.43Z" transform="translate(-817.04 -368)"/><path class="cls-24" d="M1003.24,590.55l1.63-3.51,6.28,5.32-.8,1.18h-6.09Z" transform="translate(-817.04 -368)"/><path class="cls-21" d="M1003.24,590.55l1,3-2.09,3.94-5-3,5.06-3.92Z" transform="translate(-817.04 -368)"/><path class="cls-26" d="M1002.27,590.56l-5.06,3.92c-1,.68-2,1.36-3,2-.84-4.2,2.61-5.55,5.13-7.37C999.79,588.86,1001.28,590.06,1002.27,590.56Z" transform="translate(-817.04 -368)"/><path class="cls-28" d="M993.25,597.52l.4,4.73-2.41-2.76,1-1Z" transform="translate(-817.04 -368)"/><path class="cls-28" d="M999.25,585.53c.34-.67.68-1.34,1-2C999.93,584.19,999.59,584.86,999.25,585.53Z" transform="translate(-817.04 -368)"/><path class="cls-26" d="M992.23,598.5l-1,1-1-1Z" transform="translate(-817.04 -368)"/><path class="cls-13" d="M1004.58,582.28l.76-.82Z" transform="translate(-817.04 -368)"/><path class="cls-1" d="M913.47,526.39l-2.24,1.13-4-2.95,8.94-7.19,1.14.18.22,0c-.51,1.72-1,3.43-1.54,5.15L914,525.65A1.1,1.1,0,0,1,913.47,526.39Z" transform="translate(-817.04 -368)"/><path class="cls-29" d="M914,525.65l2.06-2.91,2.92.9Z" transform="translate(-817.04 -368)"/><path class="cls-29" d="M917.57,517.59l-.22,0,.06-.42Z" transform="translate(-817.04 -368)"/><path class="cls-16" d="M942.57,531.94l8.36-3.85c1.08,4.73-2.5,5.5-5.51,6.23C944.65,534.51,943.38,532.66,942.57,531.94Z" transform="translate(-817.04 -368)"/><path class="cls-14" d="M1050.23,501.46l10.38-8.78,1.63,4.73-8,6.13a2.86,2.86,0,0,1-.83.09l-1.12.33-6.06-.51h-1.06l.07-.09-7.24,5.81-11.19,1c1-2,2.18-4.28,3.35-6.58l15.37-9c1,2.71,2.63,4.23,5.68,2.83l.1.09-1,4-.3.12Z" transform="translate(-817.04 -368)"/><path class="cls-6" d="M1049.22,473.93l1.84-.21q-.4,3.87-.83,7.75l-5,4-1.87-1c-.13-.41-.27-.81-.41-1.21.07-.61.13-1.22.2-1.83Z" transform="translate(-817.04 -368)"/><path class="cls-14" d="M1045.24,485.48l5-4,1.1,0c5.51,2.64,2.89,6.23,1.82,8.7l-7.87-3.62C1045.27,486.21,1045.25,485.84,1045.24,485.48Z" transform="translate(-817.04 -368)"/><path class="cls-29" d="M1034.4,480.64l-2.25,6.5-7.9-1.58q2-3,4-6.05a1.31,1.31,0,0,1,.59-.5l5.39.45h0Z" transform="translate(-817.04 -368)"/><path class="cls-14" d="M1043.27,487.51l2,5.84-6.82-1Z" transform="translate(-817.04 -368)"/><path class="cls-29" d="M1024.43,486.84c0-.47-.09-.93-.13-1.4C1024.34,485.91,1024.39,486.37,1024.43,486.84Z" transform="translate(-817.04 -368)"/><path class="cls-19" d="M1053.39,503.63a2.86,2.86,0,0,0,.83-.09c3.85,4.38-.36,5.31-3,6.94l-3.18.57-1.75.66-2.14-1.26h0l1-7.07-.07.09h1.06l6.06.51Z" transform="translate(-817.04 -368)"/><path class="cls-1" d="M1046.33,511.71l1.75-.66c.17.66.33,1.32.49,2-.65.66-1.31,1.31-2,2C1046.51,513.9,1046.42,512.81,1046.33,511.71Z" transform="translate(-817.04 -368)"/><path class="cls-11" d="M1048.57,513c-.16-.66-.32-1.32-.49-2l3.18-.57Z" transform="translate(-817.04 -368)"/><path class="cls-14" d="M1062.29,497.45h0Z" transform="translate(-817.04 -368)"/><path class="cls-24" d="M1054.49,515.59c-.11,0-.26.14-.33.1s-.1-.21-.14-.32c.12,0,.26-.15.34-.11S1054.45,515.47,1054.49,515.59Z" transform="translate(-817.04 -368)"/><path class="cls-1" d="M1010.44,566.74l-1.51.19.81-1C1010,566.19,1010.2,566.47,1010.44,566.74Z" transform="translate(-817.04 -368)"/><path class="cls-23" d="M873.44,527.66l-2.15-1.14a1,1,0,0,1,.79-.08Z" transform="translate(-817.04 -368)"/><path class="cls-26" d="M1014,486.64l2.23-7.18c2.8.15,4.9,1.13,5.16,4.31C1019.28,485.7,1017.61,488.69,1014,486.64Z" transform="translate(-817.04 -368)"/><path class="cls-20" d="M1034.4,480.64c-.05-.39-.11-.78-.17-1.17l-5.39-.46,8.36-6.1c.15,2.07.37,4.14.43,6.22a14.45,14.45,0,0,1-.38,2.66Z" transform="translate(-817.04 -368)"/><path class="cls-24" d="M1047.18,529.26c-.06,5-3.51,7.71-7,10.35a22.68,22.68,0,0,1,.74-4.32,38,38,0,0,1,2.46-4.68Z" transform="translate(-817.04 -368)"/><path class="cls-19" d="M1037.34,548.23l-1.75.43c-.4-1.07-.8-2.15-1.21-3.23l2.59-.14C1037.09,546.27,1037.22,547.25,1037.34,548.23Z" transform="translate(-817.04 -368)"/><path class="cls-6" d="M1037,545.29l-2.59.14a3.52,3.52,0,0,1-.53-.79Z" transform="translate(-817.04 -368)"/><path class="cls-27" d="M886.2,496.12l3.07,2.29-4.62,12.18-7.36-3c-1.19-2.47-2.37-4.94-4.09-8.53,3.18,1.08,5.72,2.88,7.46,2.31C882.85,500.63,884.39,498,886.2,496.12Z" transform="translate(-817.04 -368)"/><path class="cls-10" d="M903.22,526.86c.35-.46.71-.92,1.07-1.37C903.93,525.94,903.57,526.4,903.22,526.86Z" transform="translate(-817.04 -368)"/><path class="cls-1" d="M1044.19,510.45l.19.09c-.59-.31-.39-.2-.18-.1Z" transform="translate(-817.04 -368)"/><path class="cls-13" d="M960.21,461.44l0,0Z" transform="translate(-817.04 -368)"/><path class="cls-16" d="M925.26,556.55l-1,.47.89-.59Z" transform="translate(-817.04 -368)"/><path class="cls-27" d="M986.23,615.61c.32-1.7.65-3.4,1-5.1-.12-4.23,1.46-6.42,6-5,0,.65,0,1.31,0,2-.33,1.69-.65,3.38-1,5.06Z" transform="translate(-817.04 -368)"/><path class="cls-5" d="M993.22,607.46c0-.65,0-1.31,0-2l3,1h0Z" transform="translate(-817.04 -368)"/><polygon class="cls-24" points="233.25 161.45 233.37 161.65 233.16 161.53 233.25 161.45"/><path class="cls-27" d="M978.23,627.53l1-2,4-3,0,0,1-1,0,0,1-1v0l8.94-6.06,2,.07.12,2.19-.18,1.63-3.27,4.06-6.58,5-5.64,1.24,2.36,3-4.71-1.92Z" transform="translate(-817.04 -368)"/><path class="cls-24" d="M996.22,614.55l-2-.07-2-2c.33-1.68.65-3.37,1-5.06l3-1C996.23,609.18,996.23,611.86,996.22,614.55Z" transform="translate(-817.04 -368)"/><path class="cls-17" d="M992.89,622.43l3.27-4.06C997.42,621.62,995.2,622.06,992.89,622.43Z" transform="translate(-817.04 -368)"/><polygon class="cls-17" points="177.45 256.15 177.49 256.53 177.15 256.37 177.45 256.15"/><polygon class="cls-14" points="234.16 129.42 234.36 129.32 234.25 129.52 234.16 129.42"/><path class="cls-20" d="M1041.16,481.54l-2-2.38,1.38-.76c.26,1,.53,2,.79,3Z" transform="translate(-817.04 -368)"/><path class="cls-20" d="M1043.16,481.46c-.07.61-.13,1.22-.2,1.83l-1.79-1.75.16-.17Z" transform="translate(-817.04 -368)"/><path class="cls-4" d="M896.36,479.19a4.55,4.55,0,0,1-.42.6c-.05,0-.36-.07-.36-.13a3.47,3.47,0,0,1,0-.72Z" transform="translate(-817.04 -368)"/><path class="cls-28" d="M978.23,627.53l.09,2.22L977,633.48l-1.8-3,0,0c-1.8,1.64-3.29,2.13-3.85-1Z" transform="translate(-817.04 -368)"/><path class="cls-27" d="M883.51,487.5q1.08,3.93,2.14,7.88a61.66,61.66,0,0,1-4.52-5.34C881,489.85,882.68,488.38,883.51,487.5Z" transform="translate(-817.04 -368)"/><path class="cls-27" d="M879.86,494.42l.5,2a5.36,5.36,0,0,1-1.21.19,13.07,13.07,0,0,1-.51-2Z" transform="translate(-817.04 -368)"/><path class="cls-27" d="M878.47,489.58c-.11,0-.25.13-.33.1s-.09-.21-.13-.32.25-.14.33-.1S878.43,489.46,878.47,489.58Z" transform="translate(-817.04 -368)"/><path class="cls-10" d="M983.23,622.56l-4,3c0-1,0-2,0-3Z" transform="translate(-817.04 -368)"/><path class="cls-10" d="M976.24,623.5l0,0Z" transform="translate(-817.04 -368)"/><path class="cls-10" d="M992.24,612.52l2,2-8.94,6.06c.33-1.64.65-3.29,1-4.93Z" transform="translate(-817.04 -368)"/><path class="cls-10" d="M984.23,621.54l-1,1Z" transform="translate(-817.04 -368)"/><path class="cls-10" d="M985.24,620.52l-1,1Z" transform="translate(-817.04 -368)"/><path class="cls-25" d="M1050.23,501.46l-.28.15.3-.12Z" transform="translate(-817.04 -368)"/><path class="cls-11" d="M1046.21,503.45h0Z" transform="translate(-817.04 -368)"/><path class="cls-5" d="M1053.39,503.63l-1.12.33Z" transform="translate(-817.04 -368)"/><path class="cls-6" d="M975.22,630.5l0,0Z" transform="translate(-817.04 -368)"/></svg>