<svg id="Capa_1" data-name="Capa 1" xmlns="http://www.w3.org/2000/svg" viewBox="0 0 988.16 900.96"><defs><style>.cls-1{fill:#2b2e21;}.cls-2{fill:#59a46d;}.cls-3{fill:#9ebb9f;}</style></defs><polygon class="cls-1" points="493.89 96.06 939.89 391.06 763.39 856.56 218.39 860.56 61.39 389.56 493.89 96.06"/><path class="cls-2" d="M959.11,89.94h1.42a25.76,25.76,0,0,0,2.86,2.46c6.73,4.39,13.51,8.73,20.27,13.08l70,45,66.11,42.61q47,30.27,94.09,60.48a4.92,4.92,0,0,1,2.63,4.76c-.13,11.54,0,23.09-.11,34.64a4.66,4.66,0,0,0,2.21,4.3c11.58,8.64,23.08,17.39,34.61,26.09l86.73,65.45,111.34,84a17.6,17.6,0,0,0,3,1.52v.61a24.39,24.39,0,0,0-2,3.56q-25.62,68.44-51.15,136.79-28.68,76.71-57.4,153.42l-38.43,102.71L1267.64,972.2c-2.16,5.76-4.34,11.5-6.51,17.26-.78,0-1.36.11-1.93.12-14.81.13-29.67.36-44.43.36q-43.41.19-86.82.27h-57.08c-5.25,0-10.5.07-15.75.1q-39.75,0-79.51-.07a5.67,5.67,0,0,0-1.79.66h-28a23.8,23.8,0,0,0-3.92-.67q-37-.06-73.92,0c-1.16,0-2.32.09-3.48.14s-2.33-.13-3.49-.13L779.79,990q-43.59-.18-87.15-.39H658.28c-2.91-7.77-5.78-15.38-8.62-23Q624.52,899.34,599.4,832.1q-17.92-47.91-35.89-95.84Q538.79,670.2,514.1,604.08L469.93,486c-1.21-3.23-2.54-6.41-3.82-9.62v-2.1l46.22-34.93,69.76-52.62q59-44.49,118.08-89a5.91,5.91,0,0,0,2.75-5.44c-.13-12.24-.06-24.49-.06-36.86,1.15-.79,2.28-1.61,3.44-2.36q18.06-11.62,36.17-23.24l65.79-42.42L892.94,133q26.31-16.92,52.58-33.91C950.11,96.13,954.53,93,959.11,89.94Zm.36,106.59c-1.23.93-2.38,1.89-3.61,2.72l-23.81,16-52.6,35.29-51.74,34.71-52.6,35.29Q747.95,338.78,720.76,357l-50.28,33.73-55,36.87L535.88,481c-2.83,1.89-2.81,1.91-1.69,5q12.75,35,25.49,70,25.23,69.36,50.45,138.71l40.5,111.44Q670,859.58,689.46,913q3.15,8.73,6.34,17.42c.44,1.22.8,2.43,2.48,2.5,2.32.1,4.64.48,7,.52,14.57.28,29.14.49,43.72.73l42.66.69,43,.7,42.67.7q21.84.36,43.71.7c6.89.1,13.77.21,20.66.15q31.29-.27,62.62-.68c15-.19,30.08-.46,45.12-.7l40.92-.69c14.92-.24,29.84-.5,44.76-.7,19.48-.26,39-.44,58.43-.73,8.74-.13,17.47-.51,26.21-.63,2.1,0,3.3-.71,3.76-2.76a14.67,14.67,0,0,1,.76-2q21-57.84,42.09-115.7l40.49-111.38,30.25-83.18q11-30.24,22-60.49,12.9-35.49,25.82-71c1.3-3.59,1.27-3.62-1.78-5.67l-34.26-23.06L1297.15,423l-52.62-35.28L1192.8,353l-53.8-36.1-51.47-34.47-53.48-35.87q-20.64-13.83-41.31-27.63-16.65-11.19-33.27-22.44Z" transform="translate(-466.11 -89.94)"/><path class="cls-1" d="M1044.79,834.9h-320v-322a13.29,13.29,0,0,0,1.94-1.33Q785,453.38,843.29,395.11a3.73,3.73,0,0,0,.52-1.16h318c1,2.8,2.87,5.59,2.88,8.39.18,51.29.12,102.57.13,153.86q0,78.91.08,157.84a19.54,19.54,0,0,1-2,2.81Q1103.86,775.89,1044.79,834.9ZM743.05,824.47h294.42c.12-1.11.25-1.77.25-2.42,0-33.49,0-67,.1-100.45,0-4.06-1.83-4.39-5.11-4.77-1.73-.2-4.37-2.44-4.51-4s1.82-4,3.48-5.11c1.44-1,3.73-.79,5.71-1.12V522.17H852.1c-.73,3.83.38,8.47-5,8.78-6.6.37-4.48-5.64-5.83-8.79H734.15V816.05Zm-.54-312.85c1.19.06,2.32.16,3.46.16q145.2,0,290.41-.13a11.46,11.46,0,0,0,7.22-3.25q50.54-50.19,100.8-100.65c1-1,1.87-2.11,3.1-3.52H852.31c-1.72,10.27-3.51,11.41-9.93,7.52Zm412,195V412.53l-1.2-.72a34.5,34.5,0,0,1-3,4q-49.27,49.35-98.66,98.59a12.26,12.26,0,0,0-4,9.58q.15,143.73.08,287.45v4.36l99.39-99.39C1144,710.21,1145.21,708.24,1154.46,706.66Z" transform="translate(-466.11 -89.94)"/><path class="cls-1" d="M1165.77,713.91a3.08,3.08,0,0,0-.91.13q0-78.91-.08-157.84c0-51.29,0-102.57-.13-153.86,0-2.8-1.88-5.59-2.88-8.39h4Z" transform="translate(-466.11 -89.94)"/><path class="cls-3" d="M743.05,824.47l-8.9-8.42V522.16H841.24c1.35,3.15-.77,9.16,5.83,8.79,5.41-.31,4.3-5,5-8.78h185.29V706.65c-2,.33-4.27.12-5.71,1.12-1.66,1.15-3.62,3.47-3.48,5.11s2.78,3.75,4.51,4c3.28.38,5.13.71,5.11,4.77-.15,33.48-.09,67-.1,100.45,0,.65-.13,1.31-.25,2.42Zm98.76-264.9c0,2.19-.57,4.17.13,5.46,1.14,2.06,3.11,3.66,4.72,5.45,1.69-1.72,3.75-3.23,4.94-5.25.73-1.24.15-3.26.15-4.92,0-7.28-1.26-9.72-5.17-9.39C840.37,551.46,842.15,556.38,841.81,559.57Zm0,79.23h0c0,1.49-.52,3.29.12,4.43,1.15,2.06,2.75,4.92,4.61,5.3,3.15.65,5.06-2,5.18-5.25s.59-6.49-.22-9.43c-.53-1.9-3.09-4.42-4.78-4.46s-3.64,2.6-4.74,4.49C841.25,635.12,841.84,637.13,841.84,638.8Zm38.83,78.26c1.5,0,3,0,4.49,0,3.05.06,5.85-1.12,5.36-4.3a7.71,7.71,0,0,0-4.62-5.22,21.24,21.24,0,0,0-10.33,0c-1.82.47-4.13,3.29-4.16,5.08,0,1.44,2.9,3.23,4.83,4.27C877.4,717.55,879.17,717,880.67,717.06ZM851.73,600.63c0-2.32.12-4,0-5.64-.27-3.07-2.07-5.45-5.06-4.79-1.86.41-3.6,2.8-4.68,4.7-.72,1.27-.21,3.25-.16,4.91.12,4-1.15,9.56,4.83,9.61S851.87,604.16,851.73,600.63ZM851.67,678c0-1.82.62-4-.15-5.39-1-1.8-3.06-4.08-4.73-4.13s-4.36,2.28-4.67,3.94a30.14,30.14,0,0,0,0,11.36c.32,1.61,3.15,3.81,4.77,3.75s3.65-2.34,4.59-4.13C852.27,682,851.67,679.84,851.67,678Zm-12.94,46c4.51.09,13.17-8.61,13-12s-4.53-5.85-7.37-3.65a51.77,51.77,0,0,0-8.47,8.4c-.87,1.09-.79,3.57-.18,5C836.19,722.92,838.1,723.55,838.73,724Zm160-7v0c1.82,0,3.89.54,5.41-.14,1.7-.77,3.72-2.47,4.06-4.09.28-1.34-1.52-4.4-2.67-4.54a55.42,55.42,0,0,0-13.68-.08c-1.2.15-3,3.36-2.77,4.91s2.5,3.12,4.22,3.83C994.88,717.53,996.92,717,998.75,717ZM823.84,739.13c-.54-.7-1.33-2.54-2.72-3.29-1.19-.64-3.56-.66-4.52.13a54.83,54.83,0,0,0-8.45,8.44c-2.44,3.13-.06,7.32,3.88,7.45C815.12,752,823.84,743.36,823.84,739.13ZM779.71,775c.14,4,4.15,6.16,7.47,3.59a47.1,47.1,0,0,0,8.05-8.1,5.42,5.42,0,0,0,.2-4.92,6.22,6.22,0,0,0-4.37-2.52C787.86,762.78,779.6,771.82,779.71,775ZM768.64,794.7c-.55-.77-1.22-2.79-2.45-3.21-1.65-.56-4.23-.6-5.52.35a40.37,40.37,0,0,0-7.74,7.71,5.65,5.65,0,0,0-.44,5,6.47,6.47,0,0,0,4.31,2.79C759.58,807.77,768.59,798.4,768.64,794.7Zm151.49-86.91v0c-1.66,0-3.6-.54-4.91.13-1.77.92-4.4,3-4.23,4.18.27,1.81,2.43,4.32,4.19,4.72a25,25,0,0,0,10.36,0c1.67-.35,4-2.86,4-4.4s-2.27-3.56-4-4.46C924.08,707.2,922,707.79,920.13,707.79ZM959.22,717v0c1.66,0,3.64.57,4.9-.13,1.86-1,3.22-3,4.79-4.53-1.59-1.54-3-4-4.81-4.41a23.09,23.09,0,0,0-9.86,0c-1.72.37-4.12,2.68-4.19,4.21s2.09,3.7,3.79,4.65C955.24,717.6,957.4,717,959.22,717Z" transform="translate(-466.11 -89.94)"/><path class="cls-3" d="M742.51,511.62l99.87-99.87c6.42,3.89,8.21,2.75,9.93-7.52H1147.5c-1.23,1.41-2.1,2.52-3.1,3.52q-50.34,50.37-100.8,100.65a11.46,11.46,0,0,1-7.22,3.25q-145.2.24-290.41.13C744.83,511.78,743.7,511.68,742.51,511.62ZM851.7,443.13h0c0-1.49.06-3,0-4.49-.17-3.29-2-5.9-5.15-5.28-1.87.38-4,3.21-4.57,5.32a19.05,19.05,0,0,0,0,9.37c.52,1.88,3.08,4.49,4.67,4.45s3.71-2.58,4.85-4.47C852.3,446.81,851.7,444.79,851.7,443.13ZM841.82,481c0,2.44-.11,4.11,0,5.76.24,2.94,1.57,5.74,4.75,5,2-.47,3.81-2.94,5-4.93.73-1.22.15-3.24.15-4.9,0-6.78-1.64-10-5.15-9.49C841,473.26,841.74,477.76,841.82,481Z" transform="translate(-466.11 -89.94)"/><path class="cls-3" d="M1154.46,706.66c-9.25,1.58-10.49,3.55-7.38,9.76l-99.39,99.39v-4.36q0-143.73-.08-287.45a12.26,12.26,0,0,1,4-9.58q49.46-49.17,98.66-98.59a34.5,34.5,0,0,0,3-4l1.2.72Zm-77.54,10.4c1.33,0,2.66,0,4,0,3,.09,5.39-.86,5.74-4.17.38-3.57-2-5.27-5.07-5.59-3.28-.36-6.84-.69-9.89.24-1.92.6-3.12,3.53-4.64,5.42,1.79,1.36,3.44,3,5.43,4C1073.69,717.53,1075.42,717.05,1076.92,717.06Zm38.48,0c1.66,0,3.53.5,4.93-.12,2-.87,3.64-2.55,5.44-3.89-1.49-1.89-2.63-4.65-4.56-5.43-2.45-1-5.55-.52-8.36-.41-3.38.13-6.68,1.16-6.67,5.17s3.18,5,6.72,4.7C1113.73,717,1114.56,717.06,1115.4,717.05Z" transform="translate(-466.11 -89.94)"/><path class="cls-1" d="M841.81,559.57c.34-3.19-1.44-8.11,4.77-8.65,3.91-.33,5.17,2.11,5.17,9.39,0,1.66.58,3.68-.15,4.92-1.19,2-3.25,3.53-4.94,5.25-1.61-1.79-3.58-3.39-4.72-5.45C841.24,563.74,841.81,561.76,841.81,559.57Z" transform="translate(-466.11 -89.94)"/><path class="cls-1" d="M841.84,638.8c0-1.67-.59-3.68.14-4.92,1.1-1.89,3.15-4.53,4.74-4.49s4.25,2.56,4.78,4.46c.81,2.94.33,6.27.22,9.43s-2,5.9-5.18,5.25c-1.86-.38-3.46-3.24-4.61-5.3-.64-1.14-.12-2.94-.12-4.43Z" transform="translate(-466.11 -89.94)"/><path class="cls-1" d="M880.67,717.05c-1.5,0-3.27.5-4.43-.12-1.93-1-4.85-2.83-4.83-4.27,0-1.79,2.34-4.61,4.16-5.08a21.24,21.24,0,0,1,10.33,0,7.71,7.71,0,0,1,4.62,5.22c.49,3.18-2.31,4.36-5.36,4.3C883.67,717,882.17,717.06,880.67,717.05Z" transform="translate(-466.11 -89.94)"/><path class="cls-1" d="M851.73,600.63c.14,3.53.74,8.85-5.09,8.79s-4.71-5.61-4.83-9.61c0-1.66-.56-3.64.16-4.91,1.08-1.9,2.82-4.29,4.68-4.7,3-.66,4.79,1.72,5.06,4.79C851.85,596.64,851.73,598.31,851.73,600.63Z" transform="translate(-466.11 -89.94)"/><path class="cls-1" d="M851.67,678c0,1.83.6,4-.15,5.4-.94,1.79-3,4.07-4.59,4.13s-4.45-2.14-4.77-3.75a30.14,30.14,0,0,1,0-11.36c.31-1.66,3.08-4,4.67-3.94s3.74,2.33,4.73,4.13C852.29,674,851.67,676.19,851.67,678Z" transform="translate(-466.11 -89.94)"/><path class="cls-1" d="M838.73,724c-.63-.43-2.54-1.06-3.06-2.28-.61-1.44-.69-3.92.18-5a51.77,51.77,0,0,1,8.47-8.4c2.84-2.2,7.16.17,7.37,3.65S843.24,724.07,838.73,724Z" transform="translate(-466.11 -89.94)"/><path class="cls-1" d="M998.75,717c-1.83,0-3.87.51-5.43-.14-1.72-.71-4-2.34-4.22-3.83s1.57-4.76,2.77-4.91a55.42,55.42,0,0,1,13.68.08c1.15.14,3,3.2,2.67,4.54-.34,1.62-2.36,3.32-4.06,4.09-1.52.68-3.59.14-5.41.14Z" transform="translate(-466.11 -89.94)"/><path class="cls-1" d="M823.84,739.13c0,4.23-8.72,12.84-11.81,12.73-3.94-.13-6.32-4.32-3.88-7.45A54.83,54.83,0,0,1,816.6,736c1-.79,3.33-.77,4.52-.13C822.51,736.59,823.3,738.43,823.84,739.13Z" transform="translate(-466.11 -89.94)"/><path class="cls-1" d="M779.71,775c-.11-3.17,8.15-12.21,11.35-12a6.22,6.22,0,0,1,4.37,2.52,5.42,5.42,0,0,1-.2,4.92,47.1,47.1,0,0,1-8.05,8.1C783.86,781.15,779.85,779,779.71,775Z" transform="translate(-466.11 -89.94)"/><path class="cls-1" d="M768.64,794.7c0,3.7-9.06,13.07-11.84,12.62a6.47,6.47,0,0,1-4.31-2.79,5.65,5.65,0,0,1,.44-5,40.37,40.37,0,0,1,7.74-7.71c1.29-1,3.87-.91,5.52-.35C767.42,791.91,768.09,793.93,768.64,794.7Z" transform="translate(-466.11 -89.94)"/><path class="cls-1" d="M920.13,707.79c1.83,0,4-.59,5.4.15,1.74.9,4,2.93,4,4.46s-2.33,4.05-4,4.4a25,25,0,0,1-10.36,0c-1.76-.4-3.92-2.91-4.19-4.72-.17-1.21,2.46-3.26,4.23-4.18,1.31-.67,3.25-.13,4.91-.13Z" transform="translate(-466.11 -89.94)"/><path class="cls-1" d="M959.22,717c-1.82,0-4,.62-5.38-.15-1.7-1-3.86-3.11-3.79-4.65s2.47-3.84,4.19-4.21a23.09,23.09,0,0,1,9.86,0c1.85.43,3.22,2.87,4.81,4.41-1.57,1.55-2.93,3.49-4.79,4.53-1.26.7-3.24.13-4.9.13Z" transform="translate(-466.11 -89.94)"/><path class="cls-1" d="M851.7,443.13c0,1.66.6,3.68-.13,4.9-1.14,1.89-3.16,4.43-4.85,4.47s-4.15-2.57-4.67-4.45a19.05,19.05,0,0,1,0-9.37c.55-2.11,2.7-4.94,4.57-5.32,3.12-.62,5,2,5.15,5.28.07,1.5,0,3,0,4.49Z" transform="translate(-466.11 -89.94)"/><path class="cls-1" d="M841.82,481c-.08-3.2-.82-7.7,4.78-8.57,3.51-.54,5.15,2.71,5.15,9.49,0,1.66.58,3.68-.15,4.9-1.2,2-3,4.46-5,4.93-3.18.75-4.51-2-4.75-5C841.71,485.07,841.82,483.4,841.82,481Z" transform="translate(-466.11 -89.94)"/><path class="cls-1" d="M1076.92,717.06c-1.5,0-3.23.47-4.44-.12-2-1-3.64-2.61-5.43-4,1.52-1.89,2.72-4.82,4.64-5.42,3-.93,6.61-.6,9.89-.24,3,.32,5.45,2,5.07,5.59-.35,3.31-2.73,4.26-5.74,4.17C1079.58,717,1078.25,717.06,1076.92,717.06Z" transform="translate(-466.11 -89.94)"/><path class="cls-1" d="M1115.4,717.06c-.84,0-1.67,0-2.5,0-3.54.25-6.71-.59-6.72-4.7s3.29-5,6.67-5.17c2.81-.11,5.91-.59,8.36.41,1.93.78,3.07,3.54,4.56,5.43-1.8,1.34-3.44,3-5.44,3.89C1118.93,717.55,1117.06,717.05,1115.4,717.06Z" transform="translate(-466.11 -89.94)"/></svg>