<svg id="Capa_1" data-name="Capa 1" xmlns="http://www.w3.org/2000/svg" viewBox="0 0 696.01 800"><defs><style>.cls-1{opacity:0.8;}.cls-2{fill:#fdfdfd;}</style></defs><g class="cls-1"><path class="cls-2" d="M438.25,797.76c160.48-18,289.1-146.26,307.4-306.74,24-209.84-139.07-388.46-343.51-390.74V6.15c0-5.23-6.54-8-10.95-4.74L197.37,143.75a6,6,0,0,0,0,9.64L391.19,295.73c4.41,3.27,10.95.33,10.95-4.74V197C545.79,199.31,660.83,321.55,651,467.65c-8.34,125.67-110.8,227.64-236.47,235.65-133.19,8.5-246.44-86.61-266.7-212.45a48.28,48.28,0,0,0-47.72-40.36c-29.26,0-52.14,26-47.56,54.91C81,684.67,246.56,819.17,438.25,797.76Z" transform="translate(-52 0)"/></g></svg>