<svg id="Capa_1" data-name="Capa 1" xmlns="http://www.w3.org/2000/svg" viewBox="0 0 350.18 337"><defs><style>.cls-1{fill:#fdfdfd;opacity:0.8;}</style></defs><path class="cls-1" d="M966,708h-2c-9.81-5.57-19.76-10.92-29.41-16.76-32.1-19.42-61.83-41.79-86.36-70.48-23-26.9-36.23-57.09-34.7-93.51,1.29-30.94.21-62,.33-93,0-3.22-.87-5.15-3.73-6.79-6.78-3.9-13.34-8.18-20-12.3-.85-.53-1.71-1-2.56-1.56-2.6-1.6-4.74-3.57-3-6.88s4.34-3,7.3-1.75c7,2.86,14.1,5.59,22.13,8.76V371h18a27.27,27.27,0,0,0,4.57,1q36.66,1.89,73.33,3.65c18.95.89,37.95,2.8,56.87,2.23,42.59-1.3,85.15-3.84,127.72-5.92a9.16,9.16,0,0,0,2.57-1h19q0,75,0,150c0,5.83-1.69,12.53.63,17.24s8.66,7.39,13.29,10.92c2.58,2,5.59,3.95,3.35,7.67-2.4,4-5.68,2.1-8.73.58s-6.1-3-9.53-4.62c-5.58,33.16-23.5,58.63-45.88,81.48s-47.85,41.35-75.08,57.7C984.81,697.48,975.33,702.65,966,708Zm33.29-179.24c-7.21-4.78-13.85-9.51-20.82-13.7-5.33-3.2-9.57-7.11-11.79-13-3.21-8.49-9.28-13.94-17.72-17a19.24,19.24,0,0,1-3.14-1.5c-.38-.22-.58-.75-1-1.34l2.63-3.6c2.42.93,4.6,1.72,6.75,2.58,12.87,5.19,12.72,5.1,20.15-6.69,2.34-3.71,1.34-5.08-2.21-6.56-10.27-4.31-20.51-8.7-30.61-13.38-3.65-1.69-5.52-1.26-7.38,2.42-4.73,9.34-9.72,18.56-14.85,27.7-1.61,2.87-1.4,5,.32,7.73q11.42,18.16,22.36,36.64a9.55,9.55,0,0,1,.89,6.36c-1.21,5.5-3.1,10.86-4.48,16.34-.3,1.19-.07,3.23.73,3.87,6.1,4.87,12.21,9.76,18.69,14.1,6.18,4.15,13.08,4.9,19.92,1.47,7.1-3.55,14-7.41,21.06-11.14C998.15,549.66,991.57,539.21,999.25,528.76Zm-110.72,13.1c1.76.32,3.24.5,4.67.85,12,2.91,14.76,9,9.07,19.9-1.48,2.82-.69,4.88,2,6.2a20.75,20.75,0,0,0,6.06,2.21c13.22,2,24.28,7.85,34.46,16.66,13.11,11.34,29,12,43.45,4,12.7-7,26.67-9,39.76-14.11,4.89-1.91,10.06-1,15.06,4-2.71.84-4.71,1.19-6.44,2.07-1.43.73-3.31,1.88-3.65,3.2-1.43,5.47,3.46,11.73,9.13,12.33,2.57.27,5.1.81,7.91,1.27l-5.35,9.79,2.41,1.16c2.85-6.32,5.77-12.62,8.38-19,.14-.35-2.25-2.43-3.53-2.51-3.41-.22-3.62-2.06-2.55-4.33.76-1.6,2.44-2.72,3.41-4.24.81-1.28,1.9-3,1.65-4.23-2.24-11-14.54-19.41-25.65-17.46-6.86,1.2-13.67,2.74-20.45,4.33a89.51,89.51,0,0,0-13.79,3.91c-4.74,2-9.12,4.79-13.64,7.26a23.13,23.13,0,0,1-21.63.82,48.06,48.06,0,0,1-11.8-8.21,49.77,49.77,0,0,0-22.23-11.79c-3.46-.83-6.87-1.84-10.31-2.76l-.93-1.68a51.7,51.7,0,0,0,4.47-3.05c5.19-4.36,4.55-9-1.71-11.75a41.18,41.18,0,0,0-6.24-1.67c-6.23-1.64-12.46-3.31-18.7-4.94a39.4,39.4,0,0,0-5.83-1.27c-4.11-.41-8.26,0-10.76,3.71-2.69,4-.08,7.59,1.74,11.14s3.55,7.12,5.55,11.14C887.91,552.94,887.33,547.24,888.53,541.86Zm214.79,5.61c-.65,3.6-1.18,7.23-2,10.79-5.15,23.3-17.63,42.63-33.24,60.08C1039.64,650.17,1005,674,967.55,693.85c-1.59.85-4.63.48-6.26-.52-17.33-10.57-35-20.66-51.62-32.29-25-17.49-47.26-38-64.27-63.68-12.73-19.22-19.65-40.1-19.33-63.45.41-30.49,0-61,.22-91.49.05-5.42-2.64-7.12-7.11-8.44-.08,1.34-.19,2.31-.19,3.29,0,34.33,0,68.66.09,103a88.63,88.63,0,0,0,1.41,14.89c3.58,20.7,13.22,38.67,26.08,54.92,31.33,39.61,72,67.35,116.12,90.66a6.14,6.14,0,0,0,4.93-.31c8.23-4.37,16.48-8.75,24.44-13.59,31.76-19.31,61.37-41.33,85.52-69.93,14.79-17.52,26.3-36.83,31.08-59.6C1110.27,549.62,1110.18,549.47,1103.32,547.47ZM826.14,383.58a25.91,25.91,0,0,1,3-.26q42.45,2.07,84.89,4.17c17.81.86,35.66,2.73,53.43,2.2,37.31-1.1,74.57-3.55,111.86-5.29,7.89-.37,15.82-.06,24.23-.06v6c0,44.66.11,89.33-.13,134,0,5.39,2.5,7.56,7,9.64V376.87c-1.59,0-2.89-.06-4.18,0q-48.69,2.31-97.38,4.63c-15.48.72-31,2.37-46.43,1.82-46-1.66-91.9-4.21-137.84-6.4-1.74-.08-3.5,0-5.6,0,0,11.6.28,22.59-.12,33.55-.19,5.2,1.9,7.19,7.28,7.51Zm303.05,171.75L1130,554l-97.7-72.77c-1.76,11.2-3.38,21.52-5.13,32.64l-15.54-12.52c-.93,1.25-1.56,2-2.11,2.85-4.95,7.39-6.06,7.63-13.57,3.31q-12.33-7.08-24.75-14c-1.18-.66-2.49-1.09-4.39-1.91,4.15,9.92,9.31,17.32,18.1,22.75,18,11.11,35.24,23.34,52.8,35.1,1.47,1,3,1.89,5,3.13,1.93-12.63,3.74-24.53,5.65-37.06Zm-240-107.42-100.67-40-.65,1.4,116.73,72.24c2-7.27,3.77-13.89,5.67-20.88L923,469.32l12.66-22.23L887.56,413C888.13,425.14,888.64,435.9,889.21,447.91Zm75.53,198.58c7.81,3.58,11.88,12.21,22,13.32-3.12-9-11.63-11.87-16.17-18.44l14.06-11.43c.7,2,1.16,3.56,1.76,5,.44,1.1,1.07,2.12,1.61,3.17.77-.5,2.07-.89,2.2-1.52a5,5,0,0,0-.62-3.29c-2.57-4.31-2.22-7.53,1.6-10.81,2.75-2.35,5.73-4.44,8.42-6.86a5.31,5.31,0,0,0,1.46-3.36c.06-.69-1.09-2.13-1.6-2.09a6.55,6.55,0,0,0-3.4,1.48,87.32,87.32,0,0,0-7.64,7c-3.62,3.85-7.15,2.23-10.73.18-.68-.39-1.16-1.78-1.64-1.73a22.62,22.62,0,0,0-4.24,1.21,18.19,18.19,0,0,0,2.26,2.22c1.59,1.09,3.29,2,5.57,3.37L965,637.08,950.27,624c2.24-1.42,3.64-2.3,5-3.2,1-.61,1.89-1.24,2.83-1.86-.47-.6-1-1.74-1.39-1.72a9.73,9.73,0,0,0-3.7,1c-3,1.55-5.79,4.59-9.39,1.94-3.43-2.54-6.45-5.63-9.75-8.36a7,7,0,0,0-3.37-1.56c-.5-.06-1.68,1.34-1.65,2a5.34,5.34,0,0,0,1.36,3.4c2.3,2.1,4.94,3.82,7.31,5.85,5.74,4.95,5.72,5.32,2.09,12.45a4.19,4.19,0,0,0,.27,3,2.8,2.8,0,0,0,1.86,1.11,7.3,7.3,0,0,0,1.63-2.52c.65-1.67,1.12-3.4,1.84-5.67l14.09,11.46c-4.59,6.76-13.31,9.36-15.89,18.29,2.15-.23,3.56,0,4.36-.53C953.56,655,959.21,650.64,964.74,646.49Zm43.52-182.76c-.82-.44-1.84-1-2.83-1.54-2.72-1.59-5.52-3.07-8.12-4.84s-4.31-1.35-6,1.44c-4,6.7-8.15,13.28-12.28,19.89-6.93,11.09-6.89,11,4.41,17.3,2.79,1.55,4.31,1.28,6-1.5,5.4-8.94,11-17.74,16.56-26.61C1006.64,466.9,1007.12,465.85,1008.26,463.73Zm-16.94,35.51a16.4,16.4,0,0,0,2.32,2.38c1.79,1.21,3.78,2.12,5.53,3.37,2.85,2,4.65,1.35,6.39-1.58,3.92-6.56,8.16-12.93,12.12-19.46,5.82-9.58,6.72-7.05-3.61-13.6-2.75-1.74-4.33-1.32-6,1.42-4.91,8.1-10,16.08-15,24.12C992.45,496.86,992,497.92,991.32,499.24Zm-31.11-40.79c3.21-5.31,6.38-10.17,9-15.3a5,5,0,0,0-1.08-4.71,78.87,78.87,0,0,0-11.54-6.86c-1-.5-3.49.05-4,.92-3.75,5.81-7.17,11.83-10.86,18.06Zm20.63,10c.82-1.29,1.91-2.94,2.95-4.62,7.62-12.25,7.61-12.25-5.22-19.23-.43-.24-.88-.72-1.29-.69-1.16.09-2.9,0-3.36.67-3.36,5-6.47,10.23-9.68,15.41ZM1054,445.28c.27.42.55.83.83,1.25,2.36-.68,6.17-.68,6.87-2.15,4.78-10.12,8.91-20.55,13.33-31.06h-23.54v6.18h13.49C1061,428.68,1057.48,437,1054,445.28Z" transform="translate(-783.89 -371)"/></svg>