<svg id="Capa_1" data-name="Capa 1" xmlns="http://www.w3.org/2000/svg" viewBox="0 0 988.19 901"><defs><style>.cls-1{fill:#b03618;}.cls-2{fill:#e0b2a7;}.cls-3{fill:#341b18;}.cls-4{fill:#ab7f78;}.cls-5{fill:#aa7e77;}</style></defs><path class="cls-1" d="M960.42,970H959a26.54,26.54,0,0,0-2.86-2.46c-6.73-4.39-13.51-8.73-20.27-13.08q-35-22.49-70-45-33.06-21.29-66.11-42.61-47-30.27-94.09-60.48a4.9,4.9,0,0,1-2.63-4.76c.13-11.54,0-23.09.11-34.64a4.69,4.69,0,0,0-2.21-4.3c-11.58-8.64-23.08-17.39-34.61-26.09L579.6,671.13q-55.67-42-111.34-84a19.07,19.07,0,0,0-3-1.52V585a25.11,25.11,0,0,0,2-3.56Q492.87,513,518.41,444.65q28.68-76.71,57.4-153.42l38.43-102.71L651.89,87.74c2.16-5.76,4.34-11.5,6.51-17.26.78,0,1.36-.11,1.93-.12C675.14,70.23,690,70,704.76,70q43.41-.19,86.82-.27c19,0,38.06,0,57.08,0,5.25,0,10.5-.07,15.75-.1q39.75,0,79.51.07a5.66,5.66,0,0,0,1.79-.66h28a23.12,23.12,0,0,0,3.92.67q37,.06,73.92,0c1.16,0,2.32-.09,3.48-.14s2.33.13,3.49.13l81.22.28q43.58.18,87.15.39c9.45,0,18.91,0,28.36,0h6c2.91,7.77,5.78,15.38,8.62,23q25.14,67.23,50.26,134.47,17.92,47.92,35.89,95.84,24.72,66.07,49.41,132.18,22.08,59.05,44.17,118.09c1.21,3.23,2.54,6.41,3.82,9.62v2.1L1407.2,620.6l-69.76,52.62q-59,44.5-118.08,89a5.92,5.92,0,0,0-2.75,5.44c.13,12.24.06,24.49.06,36.86-1.15.79-2.28,1.61-3.44,2.36q-18.07,11.63-36.17,23.24-32.89,21.2-65.79,42.42-42.33,27.22-84.68,54.42-26.31,16.92-52.58,33.91C969.42,963.81,965,966.94,960.42,970Zm-.36-106.59c1.23-.93,2.38-1.89,3.61-2.72q11.9-8,23.81-16l52.6-35.29,51.74-34.71,52.6-35.29q27.16-18.24,54.35-36.46l50.28-33.73L1304,632.34l79.65-53.4c2.83-1.89,2.81-1.91,1.69-5q-12.75-35-25.49-70-25.23-69.36-50.45-138.71l-40.5-111.44q-19.41-53.42-38.83-106.83-3.16-8.72-6.34-17.42c-.44-1.22-.8-2.43-2.48-2.5-2.32-.1-4.64-.48-7-.52-14.57-.28-29.14-.49-43.72-.73l-42.66-.69-43-.7-42.67-.7q-21.85-.36-43.71-.7c-6.89-.1-13.77-.21-20.66-.15q-31.3.27-62.62.68c-15,.19-30.08.46-45.12.7q-20.46.33-40.92.69c-14.92.24-29.84.5-44.76.7-19.48.26-38.95.44-58.43.73-8.74.13-17.47.51-26.21.63-2.1,0-3.3.71-3.76,2.76a16,16,0,0,1-.76,2q-21,57.85-42.09,115.7L612.67,358.82,582.42,442q-11,30.24-22,60.49-12.9,35.5-25.82,71c-1.3,3.59-1.27,3.62,1.78,5.67q17.13,11.54,34.26,23.06l51.74,34.7L675,672.2l51.73,34.7L780.53,743,832,777.47q26.73,17.94,53.48,35.87,20.64,13.83,41.31,27.63Q943.44,852.16,960.06,863.41Z" transform="translate(-465.27 -69)"/><path class="cls-2" d="M864.41,69.59l.06-.59h81.24a5.66,5.66,0,0,1-1.79.66Q904.17,69.66,864.41,69.59Z" transform="translate(-465.27 -69)"/><path class="cls-2" d="M1055,69a.87.87,0,0,1,.08.55c-1.16,0-2.32.14-3.48.14q-37,0-73.92,0a23.12,23.12,0,0,1-3.92-.67Z" transform="translate(-465.27 -69)"/><path class="cls-3" d="M960.06,863.41q-16.65-11.22-33.3-22.44-20.64-13.85-41.31-27.63Q858.69,795.43,832,777.47L780.53,743,726.75,706.9,675,672.2l-52.6-35.3-51.74-34.7q-17.14-11.51-34.26-23.06c-3-2-3.08-2.08-1.78-5.67q12.9-35.51,25.82-71,11-30.24,22-60.49l30.25-83.16,40.49-111.44q21-57.85,42.09-115.7a16,16,0,0,0,.76-2c.46-2,1.66-2.73,3.76-2.76,8.74-.12,17.47-.5,26.21-.63,19.48-.29,38.95-.47,58.43-.73,14.92-.2,29.84-.46,44.76-.7q20.46-.33,40.92-.69c15-.24,30.08-.51,45.12-.7q31.31-.39,62.62-.68c6.89-.06,13.77,0,20.66.15q21.85.32,43.71.7l42.67.7,43,.7,42.66.69c14.58.24,29.15.45,43.72.73,2.32,0,4.64.42,7,.52,1.68.07,2,1.28,2.48,2.5q3.16,8.7,6.34,17.42,19.42,53.42,38.83,106.83l40.5,111.44q25.21,69.34,50.45,138.71,12.74,35,25.49,70c1.12,3.1,1.14,3.12-1.69,5L1304,632.34l-54.93,36.85-50.28,33.73q-27.18,18.23-54.35,36.46l-52.6,35.29-51.74,34.71-52.6,35.29q-11.91,8-23.81,16C962.44,861.52,961.29,862.48,960.06,863.41ZM1201.45,498.1c1.17-129.15-103.8-239-235.06-242.12-69.63-1.66-129.74,21.9-178.92,70.93-47.08,46.95-71,104.64-71.11,171.14-.08,65.3,23.12,122.17,68.63,169,46.65,48,104.23,72.86,171.2,73.6C1097.29,742.2,1203,626.52,1201.45,498.1ZM955.86,212c10.84,0,21.69.07,32.53,0a29,29,0,0,0,24.78-43.3c-5.68-10.13-14.82-14.88-26.33-14.93-20.64-.09-41.29,0-61.93,0a35.55,35.55,0,0,0-6.59.64,29.08,29.08,0,0,0,5.36,57.63C934.41,212,945.13,212,955.86,212ZM774.29,245.85c-.1-1.39-.13-2.8-.31-4.18a14.27,14.27,0,0,0-.69-2.7c-5.5-16.23-25.34-19.31-36.21-8.69q-10.38,10.16-20.52,20.53c-5.63,5.78-7.64,12.84-5.74,20.61,4.11,16.84,24.27,22.51,36.72,10.42,6.86-6.66,13.57-13.47,20.29-20.26A21.14,21.14,0,0,0,774.29,245.85Zm427.2,20.55a20.92,20.92,0,0,0-6.23-15.5q-10.14-10.4-20.53-20.53c-5.9-5.77-13.15-7.52-21-5.58-16.73,4.15-21.44,24.5-10.36,36.18,6.89,7.27,14,14.38,21.28,21.25,7,6.55,15.33,7.83,24,4.06C1197.14,282.59,1201.23,275.6,1201.49,266.4Z" transform="translate(-465.27 -69)"/><path class="cls-4" d="M1201.45,498.1c1.58,128.42-104.16,244.1-245.26,242.56-67-.74-124.55-25.59-171.2-73.6-45.51-46.84-68.71-103.71-68.63-169,.08-66.5,24-124.19,71.11-171.14,49.18-49,109.29-72.59,178.92-70.93C1097.65,259.12,1202.62,369,1201.45,498.1Zm-60.23-1.73c.54-96.63-77.71-178.5-176.83-180.24C863.2,314.36,781,395.39,780.76,495.6A179.86,179.86,0,0,0,958.55,676.34C1062.31,677.66,1141.73,593.06,1141.22,496.37Z" transform="translate(-465.27 -69)"/><path class="cls-5" d="M955.86,212c-10.73,0-21.45-.07-32.18,0a29.08,29.08,0,0,1-5.36-57.63,35.55,35.55,0,0,1,6.59-.64c20.64,0,41.29-.09,61.93,0,11.51.05,20.65,4.8,26.33,14.93A29,29,0,0,1,988.39,212C977.55,212.1,966.7,212,955.86,212Z" transform="translate(-465.27 -69)"/><path class="cls-5" d="M774.29,245.85a21.14,21.14,0,0,1-6.46,15.73c-6.72,6.79-13.43,13.6-20.29,20.26-12.45,12.09-32.61,6.42-36.72-10.42-1.9-7.77.11-14.83,5.74-20.61q10.13-10.4,20.52-20.53c10.87-10.62,30.71-7.54,36.21,8.69a14.27,14.27,0,0,1,.69,2.7C774.16,243.05,774.19,244.46,774.29,245.85Z" transform="translate(-465.27 -69)"/><path class="cls-5" d="M1201.49,266.4c-.26,9.2-4.35,16.19-12.84,19.88-8.68,3.77-17,2.49-24-4.06-7.3-6.87-14.39-14-21.28-21.25-11.08-11.68-6.37-32,10.36-36.18,7.86-1.94,15.11-.19,21,5.58q10.39,10.14,20.53,20.53A20.92,20.92,0,0,1,1201.49,266.4Z" transform="translate(-465.27 -69)"/><path class="cls-3" d="M1141.22,496.37c.51,96.69-78.91,181.29-182.67,180A179.86,179.86,0,0,1,780.76,495.6C781,395.39,863.2,314.36,964.39,316.13,1063.51,317.87,1141.76,399.74,1141.22,496.37Zm-98.44-3.18c-17.74,0-35.48,0-53.21,0a6.24,6.24,0,0,1-5.41-2.35,32.21,32.21,0,0,0-6.73-6,6,6,0,0,1-3-5.7c.12-17.61,0-35.22.12-52.84a7.55,7.55,0,0,0-2.55-6.17c-1.49-1.3-2.89-2.74-4.48-3.9a21.57,21.57,0,0,0-11.94-4.43c-6.83-.3-12.07,2.84-17,7a7.18,7.18,0,0,0-2.67,6.05c.12,17.85,0,35.7.13,53.54a7.28,7.28,0,0,1-3.43,6.85c-18.7,13.37-17.77,39,1.71,51.25a38.82,38.82,0,0,0,22.33,5.83c10.72-.32,19.79-4.17,26.94-12.12a7.86,7.86,0,0,1,6.57-2.88q51.1.13,102.22,0a12.11,12.11,0,0,0,4.15-.33c5.71-2.22,11-5.22,15-9.94s4.24-10.2-.11-14.83c-2.59-2.77-5.89-4.88-8.93-7.21a10.72,10.72,0,0,0-6.91-1.93C1078,493.23,1060.4,493.19,1042.78,493.19Z" transform="translate(-465.27 -69)"/><path class="cls-5" d="M1042.78,493.19c17.62,0,35.24,0,52.86,0a10.72,10.72,0,0,1,6.91,1.93c3,2.33,6.34,4.44,8.93,7.21,4.35,4.63,4.24,10,.11,14.83s-9.31,7.72-15,9.94a12.11,12.11,0,0,1-4.15.33q-51.11,0-102.22,0a7.86,7.86,0,0,0-6.57,2.88c-7.15,7.95-16.22,11.8-26.94,12.12a38.82,38.82,0,0,1-22.33-5.83c-19.48-12.22-20.41-37.88-1.71-51.25a7.28,7.28,0,0,0,3.43-6.85c-.13-17.84,0-35.69-.13-53.54a7.18,7.18,0,0,1,2.67-6.05c4.92-4.19,10.16-7.33,17-7a21.57,21.57,0,0,1,11.94,4.43c1.59,1.16,3,2.6,4.48,3.9a7.55,7.55,0,0,1,2.55,6.17c-.1,17.62,0,35.23-.12,52.84a6,6,0,0,0,3,5.7,32.21,32.21,0,0,1,6.73,6,6.24,6.24,0,0,0,5.41,2.35C1007.3,493.16,1025,493.19,1042.78,493.19Z" transform="translate(-465.27 -69)"/></svg>